<svg width="17" height="16" viewBox="0 0 17 16" fill="none" xmlns="http://www.w3.org/2000/svg">
<g clip-path="url(#clip0_513_29078)">
<path d="M16.8 5.33332V3.99999C16.8 2.15999 15.3067 0.666656 13.4667 0.666656H4.13332C2.29332 0.666656 0.799988 2.15999 0.799988 3.99999V5.33332H16.8ZM13.8 1.99999C14.3533 1.99999 14.8 2.44666 14.8 2.99999C14.8 3.55332 14.3533 3.99999 13.8 3.99999C13.2467 3.99999 12.8 3.55332 12.8 2.99999C12.8 2.44666 13.2467 1.99999 13.8 1.99999ZM11.1333 1.99999C11.6867 1.99999 12.1333 2.44666 12.1333 2.99999C12.1333 3.55332 11.6867 3.99999 11.1333 3.99999C10.58 3.99999 10.1333 3.55332 10.1333 2.99999C10.1333 2.44666 10.58 1.99999 11.1333 1.99999ZM8.46665 1.99999C9.01999 1.99999 9.46665 2.44666 9.46665 2.99999C9.46665 3.55332 9.01999 3.99999 8.46665 3.99999C7.91332 3.99999 7.46665 3.55332 7.46665 2.99999C7.46665 2.44666 7.91332 1.99999 8.46665 1.99999ZM16.8 6.66666V12C16.8 13.84 15.3067 15.3333 13.4667 15.3333H4.13332C2.29332 15.3333 0.799988 13.84 0.799988 12V6.66666H16.8Z" fill="#2A4896"/>
</g>
<defs>
<clipPath id="clip0_513_29078">
<rect width="16" height="16" fill="white" transform="translate(0.799988)"/>
</clipPath>
</defs>
</svg>
