<svg width="18" height="18" viewBox="0 0 18 18" fill="none" xmlns="http://www.w3.org/2000/svg">
<path opacity="0.4" d="M14.0021 1.5H12.5771C10.9421 1.5 10.0796 2.3625 10.0796 3.9975V5.4225C10.0796 7.0575 10.9421 7.92 12.5771 7.92H14.0021C15.6371 7.92 16.4996 7.0575 16.4996 5.4225V3.9975C16.4996 2.3625 15.6371 1.5 14.0021 1.5Z" fill="#1B68AD"/>
<path opacity="0.4" d="M5.43 10.0726H4.005C2.3625 10.0726 1.5 10.9351 1.5 12.5701V13.9951C1.5 15.6376 2.3625 16.5001 3.9975 16.5001H5.4225C7.0575 16.5001 7.92 15.6376 7.92 14.0026V12.5776C7.9275 10.9351 7.065 10.0726 5.43 10.0726Z" fill="#1B68AD"/>
<path d="M4.7175 7.935C6.49447 7.935 7.935 6.49447 7.935 4.7175C7.935 2.94053 6.49447 1.5 4.7175 1.5C2.94053 1.5 1.5 2.94053 1.5 4.7175C1.5 6.49447 2.94053 7.935 4.7175 7.935Z" fill="#1B68AD"/>
<path d="M13.2824 16.4999C15.0594 16.4999 16.4999 15.0594 16.4999 13.2824C16.4999 11.5055 15.0594 10.0649 13.2824 10.0649C11.5055 10.0649 10.0649 11.5055 10.0649 13.2824C10.0649 15.0594 11.5055 16.4999 13.2824 16.4999Z" fill="#1B68AD"/>
</svg>
