<svg width="18" height="18" viewBox="0 0 18 18" fill="none" xmlns="http://www.w3.org/2000/svg">
<path opacity="0.4" d="M7.4925 13.485C10.8021 13.485 13.485 10.8021 13.485 7.4925C13.485 4.18293 10.8021 1.5 7.4925 1.5C4.18293 1.5 1.5 4.18293 1.5 7.4925C1.5 10.8021 4.18293 13.485 7.4925 13.485Z" fill="#2A4896"/>
<path d="M16.4776 11.9926C16.4776 14.4676 14.4676 16.4776 11.9926 16.4776C10.4626 16.4776 9.12006 15.7126 8.31006 14.5501C11.5801 14.1826 14.1826 11.5801 14.5501 8.31006C15.7126 9.12006 16.4776 10.4626 16.4776 11.9926Z" fill="#2A4896"/>
<path d="M8.5875 7.28262L6.7875 6.65262C6.6075 6.59262 6.57 6.57762 6.57 6.31512C6.57 6.12012 6.705 5.96262 6.8775 5.96262H8.0025C8.2425 5.96262 8.4375 6.18012 8.4375 6.45012C8.4375 6.75762 8.6925 7.01262 9 7.01262C9.3075 7.01262 9.5625 6.75762 9.5625 6.45012C9.5625 5.58762 8.895 4.88262 8.0625 4.84512V4.80762C8.0625 4.50012 7.8075 4.24512 7.5 4.24512C7.1925 4.24512 6.9375 4.49262 6.9375 4.80762V4.84512H6.87C6.0825 4.84512 5.4375 5.50512 5.4375 6.32262C5.4375 7.03512 5.7525 7.49262 6.405 7.71765L8.2125 8.34765C8.3925 8.40765 8.43 8.42265 8.43 8.68515C8.43 8.88015 8.295 9.03765 8.1225 9.03765H6.9975C6.7575 9.03765 6.5625 8.82015 6.5625 8.55015C6.5625 8.24265 6.3075 7.98765 6 7.98765C5.6925 7.98765 5.4375 8.24265 5.4375 8.55015C5.4375 9.41265 6.105 10.1176 6.9375 10.1551V10.2001C6.9375 10.5076 7.1925 10.7626 7.5 10.7626C7.8075 10.7626 8.0625 10.5076 8.0625 10.2001V10.1626H8.13C8.9175 10.1626 9.5625 9.50265 9.5625 8.68515C9.5625 7.97265 9.24 7.51515 8.5875 7.28262Z" fill="#2A4896"/>
</svg>
