<svg width="17" height="16" viewBox="0 0 17 16" fill="none" xmlns="http://www.w3.org/2000/svg">
<g clip-path="url(#clip0_513_29073)">
<path d="M6.40002 2.66667C6.40002 1.194 8.63869 0 11.4 0C14.1614 0 16.4 1.194 16.4 2.66667C16.4 4.13933 14.1614 5.33333 11.4 5.33333C8.63869 5.33333 6.40002 4.13933 6.40002 2.66667ZM11.4 6.66667C10.7154 6.66667 10.066 6.59 9.47269 6.45667C8.56669 5.77733 7.08202 5.33333 5.40002 5.33333C2.63869 5.33333 0.400024 6.52733 0.400024 8C0.400024 9.47267 2.63869 10.6667 5.40002 10.6667C8.16136 10.6667 10.4 9.47267 10.4 8C10.4 7.98067 10.3954 7.962 10.3947 7.94267H10.4V9.33333C10.4 10.806 8.16136 12 5.40002 12C2.63869 12 0.400024 10.806 0.400024 9.33333V10.6667C0.400024 12.1393 2.63869 13.3333 5.40002 13.3333C8.16136 13.3333 10.4 12.1393 10.4 10.6667V12C10.4 13.4727 8.16136 14.6667 5.40002 14.6667C2.63869 14.6667 0.400024 13.4727 0.400024 12V13.3333C0.400024 14.806 2.63869 16 5.40002 16C8.16136 16 10.4 14.806 10.4 13.3333V13.28C10.7234 13.3147 11.0574 13.3333 11.4 13.3333C14.1614 13.3333 16.4 12.1393 16.4 10.6667V9.33333C16.4 10.746 14.3387 11.8993 11.7334 11.9913V10.658C14.3387 10.566 16.4 9.41333 16.4 8V6.66667C16.4 8.07933 14.3387 9.23267 11.7334 9.32467V7.99133C14.3387 7.89933 16.4 6.74667 16.4 5.33333V4C16.4 5.47267 14.1614 6.66667 11.4 6.66667Z" fill="#2A4896"/>
</g>
<defs>
<clipPath id="clip0_513_29073">
<rect width="16" height="16" fill="white" transform="translate(0.400024)"/>
</clipPath>
</defs>
</svg>
