<svg width="18" height="18" viewBox="0 0 18 18" fill="none" xmlns="http://www.w3.org/2000/svg">
<path d="M16.2526 5.21243C15.7726 3.58493 14.4151 2.22743 12.7876 1.74743C11.5501 1.38743 10.6951 1.41743 10.1026 1.85993C9.39012 2.39243 9.30762 3.35243 9.30762 4.03493V5.90243C9.30762 7.74743 10.1476 8.68493 11.7976 8.68493H13.9501C14.6251 8.68493 15.5926 8.60243 16.1251 7.88993C16.5826 7.30493 16.6201 6.44993 16.2526 5.21243Z" fill="#2A4896"/>
<path opacity="0.4" d="M14.1821 10.0198C13.9871 9.79478 13.7021 9.66728 13.4095 9.66728H10.7246C9.40455 9.66728 8.33205 8.59478 8.33205 7.27475V4.58975C8.33205 4.29725 8.20455 4.01225 7.97955 3.81725C7.76205 3.62225 7.46206 3.53225 7.17706 3.56975C5.41456 3.79475 3.79456 4.76225 2.73706 6.21725C1.67206 7.67978 1.28206 9.46478 1.61956 11.2498C2.10706 13.8298 4.16956 15.8923 6.75706 16.3798C7.16956 16.4623 7.58205 16.4998 7.99455 16.4998C9.35205 16.4998 10.6645 16.0798 11.7821 15.2623C13.2371 14.2048 14.2046 12.5848 14.4296 10.8223C14.4671 10.5298 14.3771 10.2373 14.1821 10.0198Z" fill="#2A4896"/>
</svg>
