<svg width="18" height="18" viewBox="0 0 18 18" fill="none" xmlns="http://www.w3.org/2000/svg">
<path d="M14.7562 2.06849C13.806 1.27773 12.7023 0.692357 11.5146 0.34926C10.3269 0.00616275 9.08105 -0.0872235 7.8555 0.0749854C5.58829 0.369524 3.51816 1.51586 2.06544 3.28124C0.612714 5.04662 -0.113702 7.2987 0.0336891 9.5802C0.18108 11.8617 1.19123 14.0016 2.85902 15.5654C4.52682 17.1292 6.72724 17.9996 9.0135 18H14.25C15.2442 17.9988 16.1973 17.6033 16.9003 16.9003C17.6033 16.1973 17.9988 15.2442 18 14.25V8.48174V8.43449C17.9206 7.20857 17.592 6.01173 17.0343 4.91715C16.4765 3.82257 15.7014 2.85325 14.7562 2.06849ZM6 5.24999H9C9.19891 5.24999 9.38967 5.329 9.53033 5.46966C9.67098 5.61031 9.75 5.80107 9.75 5.99999C9.75 6.1989 9.67098 6.38966 9.53033 6.53032C9.38967 6.67097 9.19891 6.74999 9 6.74999H6C5.80108 6.74999 5.61032 6.67097 5.46967 6.53032C5.32901 6.38966 5.25 6.1989 5.25 5.99999C5.25 5.80107 5.32901 5.61031 5.46967 5.46966C5.61032 5.329 5.80108 5.24999 6 5.24999ZM12 12.75H6C5.80108 12.75 5.61032 12.671 5.46967 12.5303C5.32901 12.3897 5.25 12.1989 5.25 12C5.25 11.8011 5.32901 11.6103 5.46967 11.4697C5.61032 11.329 5.80108 11.25 6 11.25H12C12.1989 11.25 12.3897 11.329 12.5303 11.4697C12.671 11.6103 12.75 11.8011 12.75 12C12.75 12.1989 12.671 12.3897 12.5303 12.5303C12.3897 12.671 12.1989 12.75 12 12.75ZM12 9.74999H6C5.80108 9.74999 5.61032 9.67097 5.46967 9.53032C5.32901 9.38966 5.25 9.1989 5.25 8.99999C5.25 8.80107 5.32901 8.61031 5.46967 8.46966C5.61032 8.329 5.80108 8.24999 6 8.24999H12C12.1989 8.24999 12.3897 8.329 12.5303 8.46966C12.671 8.61031 12.75 8.80107 12.75 8.99999C12.75 9.1989 12.671 9.38966 12.5303 9.53032C12.3897 9.67097 12.1989 9.74999 12 9.74999Z" fill="#2A4896"/>
</svg>
