<svg width="18" height="18" viewBox="0 0 18 18" fill="none" xmlns="http://www.w3.org/2000/svg">
<path opacity="0.4" d="M9 16.5C13.1421 16.5 16.5 13.1421 16.5 9C16.5 4.85786 13.1421 1.5 9 1.5C4.85786 1.5 1.5 4.85786 1.5 9C1.5 13.1421 4.85786 16.5 9 16.5Z" fill="#2A4896"/>
<path d="M11.783 11.9476C11.6855 11.9476 11.588 11.9251 11.498 11.8651L9.17297 10.4776C8.59547 10.1326 8.16797 9.37506 8.16797 8.70756V5.63257C8.16797 5.32507 8.42297 5.07007 8.73047 5.07007C9.03797 5.07007 9.29297 5.32507 9.29297 5.63257V8.70756C9.29297 8.97756 9.51797 9.37506 9.75047 9.51006L12.0755 10.8976C12.3455 11.0551 12.428 11.4001 12.2705 11.6701C12.158 11.8501 11.9705 11.9476 11.783 11.9476Z" fill="#2A4896"/>
</svg>
