<svg width="17" height="16" viewBox="0 0 17 16" fill="none" xmlns="http://www.w3.org/2000/svg">
<g clip-path="url(#clip0_513_29135)">
<path d="M13.9333 10H11.2666V7.33333C11.2666 6.96533 10.9686 6.66667 10.6 6.66667C10.2313 6.66667 9.93331 6.96533 9.93331 7.33333V10H3.26664C1.79598 10 0.599976 11.196 0.599976 12.6667V13.3333C0.599976 14.804 1.79598 16 3.26664 16H13.9333C15.404 16 16.6 14.804 16.6 13.3333V12.6667C16.6 11.196 15.404 10 13.9333 10ZM3.59998 14C3.04798 14 2.59998 13.552 2.59998 13C2.59998 12.448 3.04798 12 3.59998 12C4.15198 12 4.59998 12.448 4.59998 13C4.59998 13.552 4.15198 14 3.59998 14ZM6.93331 14C6.38131 14 5.93331 13.552 5.93331 13C5.93331 12.448 6.38131 12 6.93331 12C7.48531 12 7.93331 12.448 7.93331 13C7.93331 13.552 7.48531 14 6.93331 14ZM10.6 3.33333C11.8113 3.33333 12.9506 3.80533 13.808 4.662C14.0686 4.92267 14.0686 5.34467 13.808 5.60467C13.678 5.73467 13.5073 5.8 13.3366 5.8C13.166 5.8 12.9953 5.73467 12.8653 5.60467C12.2606 4.99933 11.456 4.66667 10.6006 4.66667C9.74531 4.66667 8.94064 5 8.33598 5.60467C8.07598 5.86533 7.65398 5.86533 7.39331 5.60467C7.13264 5.34467 7.13264 4.92267 7.39331 4.662C8.24998 3.80533 9.38931 3.33333 10.6006 3.33333H10.6ZM4.74798 2.54533C6.25664 0.928 8.38931 0 10.6 0C12.8106 0 14.944 0.928 16.452 2.54533C16.7033 2.81467 16.688 3.23667 16.4186 3.488C16.2906 3.608 16.1266 3.66733 15.964 3.66733C15.7853 3.66733 15.608 3.596 15.4766 3.45533C14.2193 2.10733 12.442 1.334 10.6 1.334C8.75798 1.334 6.97998 2.10733 5.72331 3.45533C5.47131 3.72467 5.04998 3.73867 4.78064 3.488C4.51131 3.23667 4.49664 2.81467 4.74798 2.54533Z" fill="#2A4896"/>
</g>
<defs>
<clipPath id="clip0_513_29135">
<rect width="16" height="16" fill="white" transform="translate(0.599976)"/>
</clipPath>
</defs>
</svg>
