<svg width="18" height="18" viewBox="0 0 18 18" fill="none" xmlns="http://www.w3.org/2000/svg">
<path opacity="0.4" d="M16.4775 4.8075V9.6825H1.5V4.8075C1.5 2.985 2.985 1.5 4.8075 1.5H13.17C14.9925 1.5 16.4775 2.985 16.4775 4.8075Z" fill="#2A4896"/>
<path d="M1.5 9.68994V9.83994C1.5 11.6699 2.985 13.1474 4.8075 13.1474H7.6875C8.1 13.1474 8.4375 13.4849 8.4375 13.8974V14.6249C8.4375 15.0374 8.1 15.3749 7.6875 15.3749H5.8725C5.565 15.3749 5.31 15.6299 5.31 15.9374C5.31 16.2449 5.5575 16.4999 5.8725 16.4999H12.135C12.4425 16.4999 12.6975 16.2449 12.6975 15.9374C12.6975 15.6299 12.4425 15.3749 12.135 15.3749H10.32C9.9075 15.3749 9.57 15.0374 9.57 14.6249V13.8974C9.57 13.4849 9.9075 13.1474 10.32 13.1474H13.1775C15.0075 13.1474 16.485 11.6624 16.485 9.83994V9.68994H1.5Z" fill="#2A4896"/>
</svg>
