<svg width="18" height="18" viewBox="0 0 18 18" fill="none" xmlns="http://www.w3.org/2000/svg">
<g clip-path="url(#clip0_722_745)">
<path d="M18 17.25C18 17.664 17.664 18 17.25 18H0.75C0.336 18 0 17.664 0 17.25C0 16.0072 1.00725 15 2.25 15H15.75C16.9928 15 18 16.0072 18 17.25ZM16.6583 4.65224L17.7833 3.51449C18.075 3.21974 18.072 2.74574 17.7773 2.45399C17.4818 2.16224 17.0078 2.16524 16.7168 2.45999L15.5918 3.59774C15.3 3.89249 15.303 4.36649 15.5978 4.65824C15.744 4.80224 15.9345 4.87499 16.125 4.87499C16.3185 4.87499 16.512 4.80074 16.6583 4.65224ZM13.791 2.21999L14.3738 1.09499C14.5643 0.727489 14.4203 0.274488 14.0528 0.0839885C13.6868 -0.106512 13.2323 0.0359885 13.0418 0.404988L12.459 1.52999C12.2685 1.89749 12.4125 2.35049 12.78 2.54099C12.8895 2.59799 13.008 2.62499 13.1243 2.62499C13.395 2.62499 13.6575 2.47799 13.791 2.21999ZM2.40225 4.65824C2.697 4.36649 2.69925 3.89249 2.40825 3.59774L1.28325 2.45999C0.993 2.16524 0.51675 2.16299 0.22275 2.45399C-0.072 2.74574 -0.07425 3.21974 0.21675 3.51449L1.34175 4.65224C1.488 4.80074 1.6815 4.87499 1.875 4.87499C2.0655 4.87499 2.25675 4.80224 2.40225 4.65824ZM5.22 2.54099C5.5875 2.35049 5.7315 1.89824 5.541 1.52999L4.95825 0.404988C4.767 0.0359885 4.31325 -0.106512 3.94725 0.0839885C3.57975 0.274488 3.43575 0.726739 3.62625 1.09499L4.209 2.21999C4.3425 2.47799 4.60425 2.62499 4.87575 2.62499C4.992 2.62499 5.10975 2.59799 5.22 2.54099ZM15.75 9.74999V12.75C15.75 13.1647 15.4148 13.5 15 13.5H3C2.58525 13.5 2.25 13.1647 2.25 12.75V9.74999C2.25 6.02774 5.27775 2.99999 9 2.99999C12.7223 2.99999 15.75 6.02774 15.75 9.74999ZM9.75 7.49999C9.75 7.08524 9.41475 6.74999 9 6.74999C7.3455 6.74999 6 8.09549 6 9.74999C6 10.1647 6.33525 10.5 6.75 10.5C7.16475 10.5 7.5 10.1647 7.5 9.74999C7.5 8.92274 8.17275 8.24999 9 8.24999C9.41475 8.24999 9.75 7.91474 9.75 7.49999Z" fill="#C82B2B"/>
</g>
<defs>
<clipPath id="clip0_722_745">
<rect width="18" height="18" fill="white"/>
</clipPath>
</defs>
</svg>
