<svg width="18" height="18" viewBox="0 0 18 18" fill="none" xmlns="http://www.w3.org/2000/svg">
<path d="M14.9995 14.4451H8.19703C7.85953 14.4451 7.58203 14.1676 7.58203 13.8301C7.58203 13.4926 7.85953 13.2151 8.19703 13.2151H14.9995C15.337 13.2151 15.6145 13.4926 15.6145 13.8301C15.6145 14.1751 15.337 14.4451 14.9995 14.4451Z" fill="#2A4896"/>
<path d="M14.9995 9.72756H8.19703C7.85953 9.72756 7.58203 9.45006 7.58203 9.11256C7.58203 8.77506 7.85953 8.49756 8.19703 8.49756H14.9995C15.337 8.49756 15.6145 8.77506 15.6145 9.11256C15.6145 9.45006 15.337 9.72756 14.9995 9.72756Z" fill="#2A4896"/>
<path d="M14.9995 5.00246H8.19703C7.85953 5.00246 7.58203 4.72495 7.58203 4.38745C7.58203 4.04995 7.85953 3.77246 8.19703 3.77246H14.9995C15.337 3.77246 15.6145 4.04995 15.6145 4.38745C15.6145 4.72495 15.337 5.00246 14.9995 5.00246Z" fill="#2A4896"/>
<path opacity="0.4" d="M3.68227 6.02244C3.51727 6.02244 3.35977 5.95494 3.24727 5.84244L2.56477 5.15994C2.32477 4.91994 2.32477 4.52994 2.56477 4.28994C2.80477 4.04994 3.19477 4.04994 3.43477 4.28994L3.68227 4.53744L5.28727 2.93244C5.52727 2.69244 5.91727 2.69244 6.15727 2.93244C6.39727 3.17244 6.39727 3.56244 6.15727 3.80244L4.11727 5.84244C3.99727 5.95494 3.84727 6.02244 3.68227 6.02244Z" fill="#2A4896"/>
<path opacity="0.4" d="M3.68227 10.7475C3.52477 10.7475 3.36727 10.6875 3.24727 10.5675L2.56477 9.88503C2.32477 9.64503 2.32477 9.25503 2.56477 9.01503C2.80477 8.77503 3.19477 8.77503 3.43477 9.01503L3.68227 9.26253L5.28727 7.65753C5.52727 7.41754 5.91727 7.41754 6.15727 7.65753C6.39727 7.89753 6.39727 8.28753 6.15727 8.52753L4.11727 10.5675C3.99727 10.6875 3.83977 10.7475 3.68227 10.7475Z" fill="#2A4896"/>
<path opacity="0.4" d="M3.68227 15.2475C3.52477 15.2475 3.36727 15.1875 3.24727 15.0675L2.56477 14.385C2.32477 14.145 2.32477 13.755 2.56477 13.515C2.80477 13.275 3.19477 13.275 3.43477 13.515L3.68227 13.7625L5.28727 12.1575C5.52727 11.9175 5.91727 11.9175 6.15727 12.1575C6.39727 12.3975 6.39727 12.7875 6.15727 13.0275L4.11727 15.0675C3.99727 15.1875 3.83977 15.2475 3.68227 15.2475Z" fill="#2A4896"/>
</svg>
