<svg width="18" height="18" viewBox="0 0 18 18" fill="none" xmlns="http://www.w3.org/2000/svg">
<path d="M14.25 6C15.4927 6 16.5 4.99264 16.5 3.75C16.5 2.50736 15.4927 1.5 14.25 1.5C13.0073 1.5 12 2.50736 12 3.75C12 4.99264 13.0073 6 14.25 6Z" fill="#2A4896"/>
<path opacity="0.4" d="M14.25 7.125C12.39 7.125 10.875 5.61 10.875 3.75C10.875 3.21 11.0175 2.7075 11.2425 2.25H5.64C3.0525 2.25 1.5 3.795 1.5 6.39V12.3525C1.5 14.955 3.0525 16.5 5.64 16.5H11.6025C14.1975 16.5 15.7425 14.955 15.7425 12.36V6.7575C15.2925 6.9825 14.79 7.125 14.25 7.125Z" fill="#2A4896"/>
<path d="M8.8125 10.5H5.0625C4.755 10.5 4.5 10.245 4.5 9.9375C4.5 9.63 4.755 9.375 5.0625 9.375H8.8125C9.12 9.375 9.375 9.63 9.375 9.9375C9.375 10.245 9.12 10.5 8.8125 10.5Z" fill="#2A4896"/>
<path d="M11.8125 13.5H5.0625C4.755 13.5 4.5 13.245 4.5 12.9375C4.5 12.63 4.755 12.375 5.0625 12.375H11.8125C12.12 12.375 12.375 12.63 12.375 12.9375C12.375 13.245 12.12 13.5 11.8125 13.5Z" fill="#2A4896"/>
</svg>
