<svg width="17" height="16" viewBox="0 0 17 16" fill="none" xmlns="http://www.w3.org/2000/svg">
<g clip-path="url(#clip0_513_29110)">
<path d="M5.19995 8.66667C4.60661 8.66667 4.02659 8.49072 3.53324 8.16108C3.03989 7.83143 2.65538 7.3629 2.42831 6.81472C2.20125 6.26654 2.14184 5.66334 2.2576 5.0814C2.37335 4.49945 2.65907 3.96491 3.07863 3.54535C3.49819 3.12579 4.03274 2.84007 4.61468 2.72431C5.19662 2.60856 5.79982 2.66797 6.348 2.89503C6.89618 3.12209 7.36472 3.50661 7.69436 3.99996C8.024 4.4933 8.19995 5.07332 8.19995 5.66667C8.19907 6.46205 7.88272 7.2246 7.3203 7.78701C6.75788 8.34943 5.99533 8.66579 5.19995 8.66667ZM10.2 13.3333C10.1989 12.4496 9.84736 11.6024 9.22247 10.9775C8.59758 10.3526 7.75035 10.0011 6.86662 10H3.53328C2.64955 10.0011 1.80232 10.3526 1.17743 10.9775C0.552539 11.6024 0.20101 12.4496 0.199951 13.3333L0.199951 16H10.2V13.3333ZM11.8666 6C11.2733 6 10.6933 5.82405 10.1999 5.49441C9.70656 5.16477 9.32204 4.69623 9.09498 4.14805C8.86792 3.59987 8.80851 2.99667 8.92426 2.41473C9.04002 1.83279 9.32574 1.29824 9.7453 0.878681C10.1649 0.459123 10.6994 0.173401 11.2813 0.0576455C11.8633 -0.0581102 12.4665 0.00129986 13.0147 0.228363C13.5628 0.455426 14.0314 0.839943 14.361 1.33329C14.6907 1.82664 14.8666 2.40666 14.8666 3C14.8657 3.79538 14.5494 4.55793 13.987 5.12035C13.4245 5.68277 12.662 5.99912 11.8666 6ZM12.8666 7.33333H9.53329C9.41628 7.3387 9.29966 7.3505 9.18395 7.36867C8.94156 7.92954 8.58354 8.43295 8.13328 8.846C9.11083 9.12259 9.97158 9.71029 10.5851 10.52C11.1986 11.3298 11.5315 12.3174 11.5333 13.3333H16.2V10.6667C16.1989 9.78294 15.8474 8.93571 15.2225 8.31081C14.5976 7.68592 13.7503 7.33439 12.8666 7.33333Z" fill="#2A4896"/>
</g>
<defs>
<clipPath id="clip0_513_29110">
<rect width="16" height="16" fill="white" transform="translate(0.199951)"/>
</clipPath>
</defs>
</svg>
