<svg width="18" height="18" viewBox="0 0 18 18" fill="none" xmlns="http://www.w3.org/2000/svg">
<path opacity="0.4" d="M6.75 1.5C4.785 1.5 3.1875 3.0975 3.1875 5.0625C3.1875 6.99 4.695 8.55 6.66 8.6175C6.72 8.61 6.78 8.61 6.825 8.6175C6.84 8.6175 6.8475 8.6175 6.8625 8.6175C6.87 8.6175 6.87 8.6175 6.8775 8.6175C8.7975 8.55 10.305 6.99 10.3125 5.0625C10.3125 3.0975 8.715 1.5 6.75 1.5Z" fill="#1B68AD"/>
<path d="M10.5607 10.6124C8.46817 9.21741 5.0557 9.21741 2.9482 10.6124C1.9957 11.2499 1.4707 12.1124 1.4707 13.0349C1.4707 13.9574 1.9957 14.8124 2.9407 15.4424C3.9907 16.1474 5.3707 16.4999 6.7507 16.4999C8.13067 16.4999 9.51067 16.1474 10.5607 15.4424C11.5057 14.8049 12.0307 13.9499 12.0307 13.0199C12.0232 12.0974 11.5057 11.2424 10.5607 10.6124Z" fill="#1B68AD"/>
<path opacity="0.4" d="M14.992 5.50507C15.112 6.96007 14.077 8.23507 12.6445 8.40758C12.637 8.40758 12.637 8.40758 12.6295 8.40758H12.607C12.562 8.40758 12.517 8.40757 12.4795 8.42257C11.752 8.46007 11.0845 8.22757 10.582 7.80007C11.3545 7.11007 11.797 6.07508 11.707 4.95008C11.6545 4.34258 11.4445 3.78758 11.1295 3.31508C11.4145 3.17258 11.7445 3.08257 12.082 3.05257C13.552 2.92507 14.8645 4.02007 14.992 5.50507Z" fill="#1B68AD"/>
<path d="M16.4927 12.4424C16.4327 13.1699 15.9677 13.7999 15.1877 14.2274C14.4377 14.6399 13.4927 14.8349 12.5552 14.8124C13.0952 14.3249 13.4102 13.7174 13.4702 13.0724C13.5452 12.1424 13.1027 11.2499 12.2177 10.5374C11.7152 10.1399 11.1302 9.82493 10.4927 9.59243C12.1502 9.11243 14.2352 9.43493 15.5177 10.4699C16.2077 11.0249 16.5602 11.7224 16.4927 12.4424Z" fill="#1B68AD"/>
</svg>
