<svg width="16" height="16" viewBox="0 0 16 16" fill="none" xmlns="http://www.w3.org/2000/svg">
<g clip-path="url(#clip0_513_29037)">
<path d="M12.6667 2H3.33333C2.4496 2.00106 1.60237 2.35259 0.97748 2.97748C0.352588 3.60237 0.00105857 4.4496 0 5.33333L0 9.33333C0.00105857 10.2171 0.352588 11.0643 0.97748 11.6892C1.60237 12.3141 2.4496 12.6656 3.33333 12.6667H7.33333V13.3333H5.33333C5.15652 13.3333 4.98695 13.4036 4.86193 13.5286C4.7369 13.6536 4.66667 13.8232 4.66667 14C4.66667 14.1768 4.7369 14.3464 4.86193 14.4714C4.98695 14.5964 5.15652 14.6667 5.33333 14.6667H10.6667C10.8435 14.6667 11.013 14.5964 11.1381 14.4714C11.2631 14.3464 11.3333 14.1768 11.3333 14C11.3333 13.8232 11.2631 13.6536 11.1381 13.5286C11.013 13.4036 10.8435 13.3333 10.6667 13.3333H8.66667V12.6667H12.6667C13.5504 12.6656 14.3976 12.3141 15.0225 11.6892C15.6474 11.0643 15.9989 10.2171 16 9.33333V5.33333C15.9989 4.4496 15.6474 3.60237 15.0225 2.97748C14.3976 2.35259 13.5504 2.00106 12.6667 2Z" fill="#2A4896"/>
</g>
<defs>
<clipPath id="clip0_513_29037">
<rect width="16" height="16" fill="white"/>
</clipPath>
</defs>
</svg>
