<svg width="18" height="18" viewBox="0 0 18 18" fill="none" xmlns="http://www.w3.org/2000/svg">
<path d="M15 9.15V10.425C15 12.7875 13.65 13.8 11.625 13.8H4.875C2.85 13.8 1.5 12.7875 1.5 10.425V6.375C1.5 4.0125 2.85 3 4.875 3H6.9C6.8025 3.285 6.75 3.6 6.75 3.9375V6.86251C6.75 7.59 6.99 8.205 7.4175 8.6325C7.845 9.06 8.46 9.3 9.1875 9.3V10.3425C9.1875 10.725 9.6225 10.9575 9.945 10.7475L12.1125 9.3H14.0625C14.4 9.3 14.715 9.2475 15 9.15Z" fill="#1B68AD"/>
<path opacity="0.4" d="M16.5 3.9375V6.86251C16.5 7.98 15.93 8.82 15 9.15C14.715 9.2475 14.4 9.3 14.0625 9.3H12.1125L9.945 10.7475C9.6225 10.9575 9.1875 10.725 9.1875 10.3425V9.3C8.46 9.3 7.845 9.06 7.4175 8.6325C6.99 8.205 6.75 7.59 6.75 6.86251V3.9375C6.75 3.6 6.8025 3.285 6.9 3C7.23 2.07 8.07 1.5 9.1875 1.5H14.0625C15.525 1.5 16.5 2.475 16.5 3.9375Z" fill="#1B68AD"/>
<path opacity="0.4" d="M10.9503 15.9374H8.8128V13.7999C8.8128 13.4924 8.5578 13.2374 8.2503 13.2374C7.9428 13.2374 7.6878 13.4924 7.6878 13.7999V15.9374H5.55029C5.24279 15.9374 4.98779 16.1924 4.98779 16.4999C4.98779 16.8074 5.24279 17.0624 5.55029 17.0624H10.9503C11.2578 17.0624 11.5128 16.8074 11.5128 16.4999C11.5128 16.1924 11.2578 15.9374 10.9503 15.9374Z" fill="#1B68AD"/>
<path d="M11.5796 6C11.2646 6 11.0171 5.745 11.0171 5.4375C11.0171 5.13 11.2721 4.875 11.5796 4.875C11.8871 4.875 12.1421 5.13 12.1421 5.4375C12.1421 5.745 11.8871 6 11.5796 6Z" fill="#1B68AD"/>
<path d="M13.6875 6C13.3725 6 13.125 5.745 13.125 5.4375C13.125 5.13 13.38 4.875 13.6875 4.875C13.995 4.875 14.25 5.13 14.25 5.4375C14.25 5.745 13.995 6 13.6875 6Z" fill="#1B68AD"/>
<path d="M9.46436 6C9.14936 6 8.90186 5.745 8.90186 5.4375C8.90186 5.13 9.15686 4.875 9.46436 4.875C9.77186 4.875 10.0269 5.13 10.0269 5.4375C10.0269 5.745 9.77936 6 9.46436 6Z" fill="#1B68AD"/>
</svg>
