<svg width="18" height="18" viewBox="0 0 18 18" fill="none" xmlns="http://www.w3.org/2000/svg">
<g clip-path="url(#clip0_725_760)">
<path d="M3.05101 13.5H14.793C15.1544 13.5 15.5104 13.413 15.8311 13.2463C16.1517 13.0795 16.4274 12.8381 16.635 12.5422C16.8425 12.2464 16.9758 11.9049 17.0234 11.5467C17.0711 11.1885 17.0317 10.8241 16.9088 10.4843L14.7698 4.5705C14.4044 3.25628 13.6187 2.09789 12.5327 1.2725C11.4468 0.447112 10.1203 0.000159059 8.75626 7.62983e-10C7.3363 -2.21942e-05 5.95879 0.484191 4.85116 1.37269C3.74354 2.26119 2.97202 3.50085 2.66401 4.887L0.901505 10.587C0.797735 10.9235 0.774407 11.2797 0.833397 11.6269C0.892387 11.9741 1.03205 12.3026 1.24114 12.5859C1.45024 12.8693 1.72293 13.0996 2.03728 13.2584C2.35162 13.4172 2.69884 13.4999 3.05101 13.5Z" fill="#2A4896"/>
<path d="M5.32501 15C5.49715 15.8477 5.95706 16.6099 6.62682 17.1573C7.29658 17.7047 8.135 18.0038 9.00001 18.0038C9.86503 18.0038 10.7034 17.7047 11.3732 17.1573C12.043 16.6099 12.5029 15.8477 12.675 15H5.32501Z" fill="#2A4896"/>
</g>
<defs>
<clipPath id="clip0_725_760">
<rect width="18" height="18" fill="white"/>
</clipPath>
</defs>
</svg>
