<svg width="18" height="19" viewBox="0 0 18 19" fill="none" xmlns="http://www.w3.org/2000/svg">
<path d="M9 18.5C10.78 18.5 12.5201 17.9722 14.0001 16.9832C15.4802 15.9943 16.6337 14.5887 17.3149 12.9442C17.9961 11.2996 18.1743 9.49002 17.8271 7.74419C17.4798 5.99836 16.6226 4.39472 15.364 3.13604C14.1053 1.87737 12.5016 1.0202 10.7558 0.672937C9.00998 0.32567 7.20038 0.5039 5.55585 1.18509C3.91131 1.86628 2.50571 3.01983 1.51677 4.49987C0.527841 5.97991 0 7.71997 0 9.5C0.00258081 11.8862 0.951621 14.1738 2.63889 15.8611C4.32616 17.5484 6.61384 18.4974 9 18.5ZM9 4.25C9.2225 4.25 9.44001 4.31598 9.62502 4.4396C9.81002 4.56322 9.95422 4.73892 10.0394 4.94449C10.1245 5.15005 10.1468 5.37625 10.1034 5.59448C10.06 5.81271 9.95283 6.01316 9.7955 6.1705C9.63816 6.32783 9.43771 6.43498 9.21948 6.47839C9.00125 6.5218 8.77505 6.49952 8.56948 6.41437C8.36391 6.32922 8.18821 6.18503 8.0646 6.00002C7.94098 5.81502 7.875 5.59751 7.875 5.375C7.875 5.07664 7.99353 4.79049 8.2045 4.57951C8.41548 4.36853 8.70163 4.25 9 4.25ZM8.25 8H9C9.39783 8 9.77936 8.15804 10.0607 8.43934C10.342 8.72065 10.5 9.10218 10.5 9.5V14C10.5 14.1989 10.421 14.3897 10.2803 14.5303C10.1397 14.671 9.94891 14.75 9.75 14.75C9.55109 14.75 9.36032 14.671 9.21967 14.5303C9.07902 14.3897 9 14.1989 9 14V9.5H8.25C8.05109 9.5 7.86032 9.42099 7.71967 9.28033C7.57902 9.13968 7.5 8.94892 7.5 8.75C7.5 8.55109 7.57902 8.36033 7.71967 8.21967C7.86032 8.07902 8.05109 8 8.25 8Z" fill="#2A4896"/>
</svg>
