<svg width="18" height="18" viewBox="0 0 18 18" fill="none" xmlns="http://www.w3.org/2000/svg">
<g clip-path="url(#clip0_725_765)">
<path d="M1.20527 13.5C1.82564 14.5767 3.2014 14.9466 4.2781 14.3262C4.27884 14.3258 4.27954 14.3254 4.28028 14.325L4.61402 14.1322C5.24402 14.6712 5.96817 15.0892 6.75001 15.3652V15.75C6.75001 16.9926 7.75737 18 9.00001 18C10.2426 18 11.25 16.9926 11.25 15.75V15.3652C12.032 15.0888 12.7561 14.6703 13.386 14.1307L13.7212 14.3242C14.7982 14.9456 16.1749 14.5762 16.7963 13.4992C17.4176 12.4223 17.0482 11.0455 15.9712 10.4242L15.6382 10.2322C15.7882 9.41657 15.7882 8.58041 15.6382 7.76472L15.9712 7.57273C17.0482 6.95141 17.4176 5.57469 16.7963 4.49771C16.1749 3.42077 14.7982 3.05139 13.7212 3.6727L13.3875 3.86546C12.7569 3.32712 12.0322 2.90988 11.25 2.63475V2.25C11.25 1.00737 10.2426 0 9.00001 0C7.75737 0 6.75001 1.00737 6.75001 2.25V2.63475C5.96806 2.91118 5.24388 3.32968 4.61402 3.86926L4.27877 3.67502C3.20179 3.05367 1.82507 3.42306 1.20376 4.5C0.58244 5.57694 0.951791 6.9537 2.02877 7.57501L2.36177 7.767C2.21186 8.58266 2.21186 9.41882 2.36177 10.2345L2.02877 10.4265C0.95478 11.0495 0.586623 12.4235 1.20527 13.5ZM9.00001 6.00001C10.6568 6.00001 12 7.34316 12 9C12 10.6568 10.6568 12 9.00001 12C7.34316 12 6.00002 10.6568 6.00002 9C6.00002 7.34316 7.34316 6.00001 9.00001 6.00001Z" fill="#2A4896"/>
</g>
<defs>
<clipPath id="clip0_725_765">
<rect width="18" height="18" fill="white"/>
</clipPath>
</defs>
</svg>
