<svg width="56" height="42" viewBox="0 0 56 42" fill="none" xmlns="http://www.w3.org/2000/svg">
<g clip-path="url(#clip0_86_5869)">
<path d="M53.5817 38.9925H11.432C10.7908 38.9918 10.1761 38.7365 9.72278 38.2827C9.26941 37.8289 9.0144 37.2136 9.01367 36.5719V14.0523C9.0144 13.4105 9.26941 12.7952 9.72278 12.3414C10.1761 11.8876 10.7908 11.6323 11.432 11.6316H53.5817C54.2229 11.6323 54.8375 11.8876 55.2909 12.3414C55.7443 12.7952 55.9993 13.4105 56 14.0523V36.5719C55.9993 37.2136 55.7443 37.8289 55.2909 38.2827C54.8375 38.7365 54.2229 38.9918 53.5817 38.9925Z" fill="white"/>
<path d="M53.5817 38.9925H11.432C10.7908 38.9918 10.1761 38.7365 9.72278 38.2827C9.26941 37.8289 9.0144 37.2136 9.01367 36.5719V14.0523C9.0144 13.4105 9.26941 12.7952 9.72278 12.3414C10.1761 11.8876 10.7908 11.6323 11.432 11.6316H53.5817C54.2229 11.6323 54.8375 11.8876 55.2909 12.3414C55.7443 12.7952 55.9993 13.4105 56 14.0523V36.5719C55.9993 37.2136 55.7443 37.8289 55.2909 38.2827C54.8375 38.7365 54.2229 38.9918 53.5817 38.9925ZM11.432 11.7783C10.8297 11.779 10.2523 12.0188 9.82637 12.4451C9.40048 12.8714 9.16092 13.4494 9.16024 14.0523V36.5719C9.16092 37.1747 9.40048 37.7527 9.82637 38.179C10.2523 38.6053 10.8297 38.8451 11.432 38.8458H53.5817C54.184 38.8451 54.7614 38.6053 55.1873 38.179C55.6132 37.7527 55.8528 37.1747 55.8534 36.5719V14.0523C55.8528 13.4494 55.6132 12.8714 55.1873 12.4451C54.7614 12.0188 54.184 11.779 53.5817 11.7783H11.432Z" fill="#F2F2F2"/>
<path d="M53.5817 37.2321H11.432C11.2571 37.2319 11.0895 37.1622 10.9659 37.0385C10.8422 36.9147 10.7727 36.7469 10.7725 36.5719V14.0523C10.7727 13.8772 10.8422 13.7094 10.9659 13.5857C11.0895 13.4619 11.2571 13.3923 11.432 13.3921H53.5817C53.7566 13.3923 53.9242 13.4619 54.0479 13.5857C54.1715 13.7094 54.2411 13.8772 54.2413 14.0523V36.5719C54.2411 36.7469 54.1715 36.9147 54.0479 37.0385C53.9242 37.1622 53.7566 37.2319 53.5817 37.2321ZM11.432 13.5388C11.296 13.539 11.1656 13.5931 11.0694 13.6894C10.9733 13.7856 10.9192 13.9161 10.919 14.0523V36.5719C10.9192 36.708 10.9733 36.8385 11.0694 36.9348C11.1656 37.031 11.296 37.0852 11.432 37.0853H53.5817C53.7177 37.0852 53.8481 37.031 53.9443 36.9348C54.0405 36.8385 54.0945 36.708 54.0947 36.5719V14.0523C54.0945 13.9161 54.0405 13.7856 53.9443 13.6894C53.8481 13.5931 53.7177 13.539 53.5817 13.5388H11.432Z" fill="#F2F2F2"/>
<path d="M42.8541 37.3394L2.11153 26.5287C1.49197 26.3636 0.963151 25.9592 0.641089 25.4042C0.319028 24.8493 0.230025 24.1891 0.39361 23.5686L6.15819 1.8008C6.32317 1.18063 6.72718 0.651287 7.28157 0.32891C7.83597 0.00653247 8.49547 -0.0825563 9.11541 0.0811888L49.858 10.8919C50.4775 11.057 51.0064 11.4614 51.3284 12.0164C51.6505 12.5713 51.7395 13.2315 51.5759 13.852L45.8113 35.6198C45.6463 36.24 45.2423 36.7693 44.6879 37.0917C44.1335 37.414 43.474 37.5031 42.8541 37.3394Z" fill="#F2F2F2"/>
<path d="M42.8541 37.3394L2.11153 26.5287C1.49197 26.3636 0.963151 25.9592 0.641089 25.4042C0.319028 24.8493 0.230025 24.1891 0.39361 23.5686L6.15819 1.8008C6.32317 1.18063 6.72718 0.651287 7.28157 0.32891C7.83597 0.00653247 8.49547 -0.0825563 9.11541 0.0811888L49.858 10.8919C50.4775 11.057 51.0064 11.4614 51.3284 12.0164C51.6505 12.5713 51.7395 13.2315 51.5759 13.852L45.8113 35.6198C45.6463 36.24 45.2423 36.7693 44.6879 37.0917C44.1335 37.414 43.474 37.5031 42.8541 37.3394ZM9.07785 0.222998C8.49549 0.0691803 7.87595 0.152871 7.35516 0.45571C6.83436 0.758548 6.45485 1.2558 6.29986 1.83839L0.535281 23.6062C0.381615 24.1891 0.465224 24.8092 0.767766 25.3306C1.07031 25.8519 1.56708 26.2317 2.14909 26.3869L42.8917 37.1976C43.474 37.3514 44.0936 37.2677 44.6144 36.9649C45.1351 36.662 45.5147 36.1648 45.6697 35.5822L51.4342 13.8144C51.5879 13.2315 51.5043 12.6113 51.2017 12.09C50.8992 11.5687 50.4024 11.1888 49.8204 11.0337L9.07785 0.222998Z" fill="#E6E6E6"/>
<path d="M43.3047 35.6376L2.56215 24.8269C2.39318 24.7819 2.24896 24.6716 2.16113 24.5203C2.07329 24.3689 2.04902 24.1889 2.09363 24.0196L7.85821 2.25184C7.90321 2.08271 8.01339 1.93834 8.16459 1.85042C8.31579 1.7625 8.49565 1.73821 8.66472 1.78286L49.4073 12.5936C49.5763 12.6386 49.7205 12.7489 49.8083 12.9002C49.8962 13.0516 49.9204 13.2316 49.8758 13.4009L44.1112 35.1686C44.0662 35.3378 43.9561 35.4821 43.8049 35.5701C43.6537 35.658 43.4738 35.6823 43.3047 35.6376ZM8.62717 1.92467C8.49567 1.88994 8.35577 1.90883 8.23817 1.97722C8.12057 2.0456 8.03488 2.15788 7.99988 2.28943L2.2353 24.0572C2.2006 24.1889 2.21948 24.3289 2.28779 24.4466C2.35611 24.5643 2.46829 24.6501 2.59971 24.6851L43.3423 35.4958C43.4738 35.5306 43.6137 35.5117 43.7313 35.4433C43.8489 35.3749 43.9346 35.2626 43.9696 35.1311L49.7341 13.3633C49.7688 13.2316 49.75 13.0916 49.6817 12.9739C49.6133 12.8562 49.5012 12.7704 49.3697 12.7354L8.62717 1.92467Z" fill="white"/>
<path d="M44.568 42.0001H2.4183C1.77715 41.9994 1.16247 41.7441 0.709104 41.2903C0.255741 40.8365 0.000724244 40.2212 0 39.5794V17.0598C0.000724244 16.4181 0.255741 15.8028 0.709104 15.349C1.16247 14.8952 1.77715 14.6399 2.4183 14.6392H44.568C45.2092 14.6399 45.8239 14.8952 46.2772 15.349C46.7306 15.8028 46.9856 16.4181 46.9863 17.0598V39.5794C46.9856 40.2212 46.7306 40.8365 46.2772 41.2903C45.8239 41.7441 45.2092 41.9994 44.568 42.0001Z" fill="white"/>
<path d="M33.1164 40.0928H5.89737C5.86328 40.093 5.82924 40.0921 5.79565 40.0902L18.669 32.833C18.9142 32.692 19.4641 32.6424 19.8974 32.7222C20.0162 32.7405 20.1312 32.7779 20.238 32.833L28.8777 37.7031L29.2916 37.9362L33.1164 40.0928Z" fill="#E6E6E6"/>
<path d="M41.7036 40.0929H18.1614L22.7234 37.9362L23.0517 37.7809L28.9964 34.9704C29.3862 34.7862 30.3238 34.7747 30.782 34.9356C30.8128 34.9466 30.8413 34.9582 30.8676 34.9704L41.7036 40.0929Z" fill="#E6E6E6"/>
<path d="M2.41822 14.7856C1.81593 14.7863 1.2385 15.0261 0.812615 15.4524C0.38673 15.8787 0.147167 16.4567 0.146484 17.0596V39.5792C0.147167 40.1821 0.38673 40.7601 0.812615 41.1864C1.2385 41.6127 1.81593 41.8525 2.41822 41.8532H44.568C45.1702 41.8525 45.7477 41.6127 46.1736 41.1864C46.5994 40.7601 46.839 40.1821 46.8397 39.5792V17.0596C46.839 16.4567 46.5994 15.8787 46.1736 15.4524C45.7477 15.0261 45.1702 14.7863 44.568 14.7856H2.41822Z" fill="#3F3D56"/>
<path d="M44.5681 40.2396H2.41833C2.24347 40.2394 2.07583 40.1698 1.95218 40.046C1.82854 39.9223 1.75899 39.7545 1.75879 39.5794V17.0598C1.75899 16.8848 1.82854 16.717 1.95218 16.5932C2.07583 16.4695 2.24347 16.3999 2.41833 16.3997H44.5681C44.7429 16.3999 44.9106 16.4695 45.0342 16.5932C45.1578 16.717 45.2274 16.8848 45.2276 17.0598V39.5794C45.2274 39.7545 45.1578 39.9223 45.0342 40.046C44.9106 40.1698 44.7429 40.2394 44.5681 40.2396ZM2.41833 16.5464C2.28232 16.5465 2.15194 16.6007 2.05577 16.6969C1.9596 16.7932 1.90551 16.9237 1.90535 17.0598V39.5794C1.90551 39.7156 1.9596 39.8461 2.05577 39.9424C2.15194 40.0386 2.28232 40.0928 2.41833 40.0929H44.5681C44.7041 40.0928 44.8344 40.0386 44.9306 39.9424C45.0268 39.8461 45.0809 39.7156 45.081 39.5794V17.0598C45.0809 16.9237 45.0268 16.7932 44.9306 16.6969C44.8344 16.6007 44.7041 16.5465 44.5681 16.5464H2.41833Z" fill="#CCCCCC"/>
<path d="M35.1765 20.5216C37.6819 20.5216 39.7129 18.4886 39.7129 15.9808C39.7129 13.4729 37.6819 11.4399 35.1765 11.4399C32.6711 11.4399 30.6401 13.4729 30.6401 15.9808C30.6401 18.4886 32.6711 20.5216 35.1765 20.5216Z" fill="#FF6584"/>
<path d="M37.0729 32.5129C40.2461 32.5129 42.8184 29.29 42.8184 25.3142C42.8184 21.3385 40.2461 18.1155 37.0729 18.1155C33.8998 18.1155 31.3274 21.3385 31.3274 25.3142C31.3274 29.29 33.8998 32.5129 37.0729 32.5129Z" fill="#F2F2F2"/>
<path d="M37.0888 23.8667H37.1045L37.3886 40.1721H36.7888L37.0888 23.8667Z" fill="#CCCCCC"/>
<path d="M38.0687 34.6614C38.0862 34.6948 38.0898 34.7338 38.0786 34.7698C38.0675 34.8058 38.0425 34.8359 38.0091 34.8535L37.1851 35.2877L37.0527 35.0361L37.8768 34.6018C37.9101 34.5843 37.9491 34.5807 37.9851 34.5918C38.021 34.603 38.0511 34.628 38.0687 34.6614Z" fill="#CCCCCC"/>
<path d="M20.5549 32.5129C23.728 32.5129 26.3004 29.29 26.3004 25.3142C26.3004 21.3385 23.728 18.1155 20.5549 18.1155C17.3817 18.1155 14.8093 21.3385 14.8093 25.3142C14.8093 29.29 17.3817 32.5129 20.5549 32.5129Z" fill="#F2F2F2"/>
<path d="M21.5506 34.931C21.5331 34.8977 21.503 34.8726 21.467 34.8614C21.431 34.8503 21.3921 34.8539 21.3587 34.8714L20.7834 35.1746L20.5864 23.8667H20.5706L20.2708 40.1722H20.8705L20.789 35.4931L21.4911 35.1231C21.5244 35.1055 21.5494 35.0754 21.5606 35.0394C21.5717 35.0034 21.5682 34.9644 21.5506 34.931Z" fill="#CCCCCC"/>
<path d="M28.7938 8.72437C32.8146 8.72437 36.0826 16.3078 36.0826 21.3455C36.0826 26.3833 32.8232 30.4671 28.8024 30.4671C24.7817 30.4671 21.5222 26.3833 21.5222 21.3456C21.5222 16.3078 24.7731 8.72437 28.7938 8.72437Z" fill="#2A4896"/>
<path d="M30.0643 33.4577C30.0533 33.4367 30.0383 33.4182 30.0201 33.403C30.0019 33.3879 29.981 33.3765 29.9584 33.3695C29.9358 33.3625 29.9121 33.36 29.8885 33.3622C29.865 33.3644 29.8421 33.3712 29.8212 33.3822L29.0923 33.7663L28.8426 19.438H28.8226L28.4426 40.0988H29.2026L29.0993 34.1699L29.9889 33.701C30.0098 33.69 30.0284 33.675 30.0435 33.6568C30.0586 33.6386 30.07 33.6176 30.077 33.595C30.084 33.5724 30.0865 33.5486 30.0843 33.5251C30.0821 33.5015 30.0753 33.4786 30.0643 33.4577Z" fill="#3F3D56"/>
<path d="M44.7145 41.8534H2.56479C1.92363 41.8527 1.30895 41.5974 0.855588 41.1436C0.402226 40.6898 0.147209 40.0745 0.146484 39.4327V16.9131C0.147209 16.2713 0.402226 15.656 0.855588 15.2022C1.30895 14.7484 1.92363 14.4932 2.56479 14.4924H44.7145C45.3557 14.4932 45.9703 14.7484 46.4237 15.2022C46.8771 15.656 47.1321 16.2713 47.1328 16.9131V39.4327C47.1321 40.0745 46.8771 40.6898 46.4237 41.1436C45.9703 41.5974 45.3557 41.8527 44.7145 41.8534Z" fill="white"/>
<path d="M33.2629 39.9461H6.04385C6.00977 39.9462 5.97572 39.9453 5.94214 39.9435L18.8155 32.6863C19.0606 32.5453 19.6106 32.4957 20.0439 32.5754C20.1627 32.5937 20.2777 32.6312 20.3845 32.6863L29.0242 37.5564L29.4381 37.7895L33.2629 39.9461Z" fill="#E6E6E6"/>
<path d="M41.8504 39.9461H18.3081L22.8701 37.7895L23.1984 37.6341L29.1432 34.8236C29.5329 34.6394 30.4705 34.628 30.9287 34.7889C30.9595 34.7999 30.988 34.8115 31.0143 34.8236L41.8504 39.9461Z" fill="#E6E6E6"/>
<path d="M44.7145 41.8534H2.56479C1.92363 41.8527 1.30895 41.5974 0.855588 41.1436C0.402226 40.6898 0.147209 40.0745 0.146484 39.4327V16.9131C0.147209 16.2713 0.402226 15.656 0.855588 15.2022C1.30895 14.7484 1.92363 14.4932 2.56479 14.4924H44.7145C45.3557 14.4932 45.9703 14.7484 46.4237 15.2022C46.8771 15.656 47.1321 16.2713 47.1328 16.9131V39.4327C47.1321 40.0745 46.8771 40.6898 46.4237 41.1436C45.9703 41.5974 45.3557 41.8527 44.7145 41.8534ZM2.56479 14.6391C1.96249 14.6398 1.38506 14.8796 0.959179 15.3059C0.533293 15.7322 0.293731 16.3102 0.293048 16.9131V39.4327C0.293731 40.0356 0.533293 40.6136 0.959179 41.0399C1.38506 41.4662 1.96249 41.706 2.56479 41.7067H44.7145C45.3168 41.706 45.8942 41.4662 46.3201 41.0399C46.746 40.6136 46.9856 40.0356 46.9863 39.4327V16.9131C46.9856 16.3102 46.746 15.7322 46.3201 15.3059C45.8942 14.8796 45.3168 14.6398 44.7145 14.6391H2.56479Z" fill="#3F3D56"/>
<path d="M44.7145 40.0929H2.56481C2.38995 40.0927 2.22231 40.0231 2.09867 39.8993C1.97502 39.7755 1.90547 39.6077 1.90527 39.4327V16.9131C1.90547 16.7381 1.97502 16.5703 2.09867 16.4465C2.22231 16.3228 2.38995 16.2531 2.56481 16.2529H44.7145C44.8894 16.2531 45.057 16.3228 45.1807 16.4465C45.3043 16.5703 45.3739 16.7381 45.3741 16.9131V39.4327C45.3739 39.6077 45.3043 39.7755 45.1807 39.8993C45.057 40.0231 44.8894 40.0927 44.7145 40.0929ZM2.56481 16.3996C2.42881 16.3998 2.29842 16.4539 2.20225 16.5502C2.10608 16.6465 2.05199 16.777 2.05184 16.9131V39.4327C2.05199 39.5688 2.10608 39.6994 2.20225 39.7956C2.29842 39.8919 2.42881 39.946 2.56481 39.9462H44.7145C44.8505 39.946 44.9809 39.8919 45.0771 39.7956C45.1733 39.6994 45.2274 39.5688 45.2275 39.4327V16.9131C45.2274 16.777 45.1733 16.6465 45.0771 16.5502C44.9809 16.4539 44.8505 16.3998 44.7145 16.3996H2.56481Z" fill="#CCCCCC"/>
<path d="M35.323 20.3749C37.8284 20.3749 39.8594 18.3419 39.8594 15.834C39.8594 13.3262 37.8284 11.2932 35.323 11.2932C32.8176 11.2932 30.7866 13.3262 30.7866 15.834C30.7866 18.3419 32.8176 20.3749 35.323 20.3749Z" fill="#FF6584"/>
<path d="M37.2196 32.3662C40.3928 32.3662 42.9652 29.1432 42.9652 25.1675C42.9652 21.1917 40.3928 17.9688 37.2196 17.9688C34.0465 17.9688 31.4741 21.1917 31.4741 25.1675C31.4741 29.1432 34.0465 32.3662 37.2196 32.3662Z" fill="#F2F2F2"/>
<path d="M37.2355 23.72H37.2512L37.5354 40.0254H36.9355L37.2355 23.72Z" fill="#CCCCCC"/>
<path d="M38.2154 34.5147C38.233 34.548 38.2365 34.587 38.2254 34.623C38.2142 34.6591 38.1892 34.6892 38.1559 34.7067L37.3318 35.141L37.1995 34.8894L38.0235 34.4551C38.0569 34.4375 38.0958 34.4339 38.1318 34.4451C38.1678 34.4563 38.1978 34.4813 38.2154 34.5147Z" fill="#CCCCCC"/>
<path d="M20.7013 32.3662C23.8745 32.3662 26.4469 29.1432 26.4469 25.1675C26.4469 21.1917 23.8745 17.9688 20.7013 17.9688C17.5282 17.9688 14.9558 21.1917 14.9558 25.1675C14.9558 29.1432 17.5282 32.3662 20.7013 32.3662Z" fill="#F2F2F2"/>
<path d="M21.6971 34.7843C21.6796 34.7509 21.6495 34.7259 21.6135 34.7147C21.5775 34.7035 21.5385 34.7071 21.5052 34.7247L20.9299 35.0279L20.7329 23.72H20.7171L20.4172 40.0255H21.017L20.9355 35.3464L21.6376 34.9764C21.6709 34.9588 21.6959 34.9287 21.7071 34.8927C21.7182 34.8566 21.7146 34.8177 21.6971 34.7843Z" fill="#CCCCCC"/>
<path d="M28.9405 8.57764C32.9613 8.57764 36.2293 16.1611 36.2293 21.1988C36.2293 26.2365 32.9699 30.3204 28.9491 30.3204C24.9284 30.3204 21.6689 26.2365 21.6689 21.1988C21.6689 16.1611 24.9198 8.57764 28.9405 8.57764Z" fill="#2A4896"/>
<path d="M30.2108 33.3109C30.1998 33.29 30.1848 33.2714 30.1666 33.2563C30.1484 33.2412 30.1275 33.2298 30.1049 33.2228C30.0823 33.2158 30.0586 33.2133 30.035 33.2155C30.0115 33.2176 29.9886 33.2244 29.9677 33.2354L29.2387 33.6196L28.9891 19.2913H28.9691L28.5891 39.9521H29.3491L29.2458 34.0231L30.1354 33.5543C30.1563 33.5433 30.1749 33.5282 30.19 33.5101C30.2051 33.4919 30.2165 33.4709 30.2235 33.4483C30.2305 33.4257 30.233 33.4019 30.2308 33.3783C30.2286 33.3548 30.2218 33.3319 30.2108 33.3109Z" fill="#3F3D56"/>
</g>
<defs>
<clipPath id="clip0_86_5869">
<rect width="56" height="42" fill="white"/>
</clipPath>
</defs>
</svg>
