<svg width="84" height="38" viewBox="0 0 84 38" fill="none" xmlns="http://www.w3.org/2000/svg">
<g clip-path="url(#clip0_395_2790)">
<path d="M75.5677 2.07617H0.0322266V38.0127H75.5677V2.07617Z" fill="#E6E6E6"/>
<path d="M73.4081 5.15796H2.19238V35.1409H73.4081V5.15796Z" fill="white"/>
<path d="M75.5355 0H0V3.21736H75.5355V0Z" fill="#2A4896"/>
<path d="M2.38481 2.0845C2.71329 2.0845 2.97958 1.81751 2.97958 1.48817C2.97958 1.15883 2.71329 0.891846 2.38481 0.891846C2.05633 0.891846 1.79004 1.15883 1.79004 1.48817C1.79004 1.81751 2.05633 2.0845 2.38481 2.0845Z" fill="white"/>
<path d="M4.64262 2.0845C4.97111 2.0845 5.23739 1.81751 5.23739 1.48817C5.23739 1.15883 4.97111 0.891846 4.64262 0.891846C4.31414 0.891846 4.04785 1.15883 4.04785 1.48817C4.04785 1.81751 4.31414 2.0845 4.64262 2.0845Z" fill="white"/>
<path d="M6.89946 2.0845C7.22794 2.0845 7.49423 1.81751 7.49423 1.48817C7.49423 1.15883 7.22794 0.891846 6.89946 0.891846C6.57098 0.891846 6.30469 1.15883 6.30469 1.48817C6.30469 1.81751 6.57098 2.0845 6.89946 2.0845Z" fill="white"/>
<path d="M65.7302 27.245V27.0067H67.1428L67.1519 27.2448L67.1473 27.2449L65.7302 27.245ZM64.3176 27.245H62.905V27.0067H64.3176V27.245ZM61.4925 27.245H60.0799V27.0067H61.4925V27.245ZM58.6673 27.245H57.2548V27.0067H58.6673V27.245ZM55.8422 27.245H54.4296V27.0067H55.8422V27.245ZM53.0171 27.245H51.6045V27.0067H53.0171V27.245ZM50.1919 27.245H48.7794V27.0067H50.1919V27.245ZM47.3668 27.245H45.9542V27.0067H47.3668V27.245ZM44.5416 27.245H43.2862C43.2086 27.2441 43.1334 27.2185 43.0713 27.172L43.2097 26.9783C43.2316 26.9957 43.2585 27.0057 43.2864 27.0067H44.5417L44.5416 27.245ZM67.7034 25.8893H67.4657V24.4731H67.7034V25.8893ZM42.9632 25.737H42.7256V24.3208H42.9632V25.737ZM67.7034 23.0568H67.4657V21.6405H67.7034V23.0568ZM42.9632 22.9045H42.7256V21.4883H42.9632V22.9045ZM67.7034 20.2243H67.4657V18.808H67.7034V20.2243ZM42.9632 20.072H42.7256V18.6558H42.9632V20.072ZM67.7034 17.3918H67.4657V15.9755H67.7034V17.3918ZM42.9632 17.2395H42.7256V15.8233H42.9632V17.2395ZM67.7034 14.5593H67.4657V14.0793C67.4655 13.6776 67.3371 13.4039 67.2179 13.3197L67.3547 13.1249C67.5663 13.2743 67.7031 13.649 67.7034 14.0793V14.5593ZM42.9632 14.407H42.7256V14.0793C42.7256 13.4997 42.9647 13.0589 43.2817 13.054L43.2854 13.2922C43.1509 13.2943 42.9632 13.5948 42.9632 14.0793V14.407ZM65.8847 13.2922H64.4721V13.054H65.8847V13.2922ZM63.0595 13.2922H61.647V13.054H63.0595V13.2922ZM60.2344 13.2922H58.8218V13.054H60.2344V13.2922ZM57.4093 13.2922H55.9967V13.054H57.4093V13.2922ZM54.5841 13.2922H53.1715V13.054H54.5841V13.2922ZM51.759 13.2922H50.3464V13.054H51.759V13.2922ZM48.9338 13.2922H47.5212V13.054H48.9338V13.2922ZM46.1087 13.2922H44.6961V13.054H46.1087V13.2922Z" fill="#E4E4E4"/>
<path d="M23.8038 13.8923H9.24219V14.7304H23.8038V13.8923Z" fill="#E6E6E6"/>
<path d="M31.7286 16.9495H9.24219V17.7876H31.7286V16.9495Z" fill="#2A4896"/>
<path d="M27.568 19.8296H9.24219V20.6677H27.568V19.8296Z" fill="#E6E6E6"/>
<path d="M19.9406 22.699H9.24219V23.5371H19.9406V22.699Z" fill="#E6E6E6"/>
<path d="M25.3888 25.5681H9.24219V26.4062H25.3888V25.5681Z" fill="#E6E6E6"/>
<path d="M83.6031 32.1632H59.7465C59.5026 32.1626 59.305 31.7573 59.3047 31.2569V19.1167C59.3047 18.6164 59.5026 18.2113 59.7465 18.2104H83.6031C83.8469 18.2111 84.0445 18.6163 84.0449 19.1167V31.2568C84.0445 31.7571 83.8466 32.1626 83.6031 32.1632Z" fill="white"/>
<path d="M67.4182 25.1087C68.5703 25.1087 69.5043 24.1723 69.5043 23.0171C69.5043 21.862 68.5703 20.9255 67.4182 20.9255C66.266 20.9255 65.332 21.862 65.332 23.0171C65.332 24.1723 66.266 25.1087 67.4182 25.1087Z" fill="#3F3D56"/>
<path d="M73.9605 29.4623H63.7267C63.7139 29.4625 63.7011 29.4614 63.6885 29.4592L68.5288 21.0536C68.5584 21.0013 68.6012 20.9577 68.653 20.9274C68.7049 20.8971 68.7638 20.8811 68.8238 20.8811C68.8838 20.8811 68.9427 20.8971 68.9945 20.9274C69.0464 20.9577 69.0892 21.0013 69.1187 21.0536L72.3671 26.6945L72.5228 26.9644L73.9605 29.4623Z" fill="#2A4896"/>
<path d="M79.6582 29.4625H70.8066L72.5218 26.9647L72.6452 26.7847L74.8803 23.5295C74.9198 23.4797 74.9694 23.4388 75.0257 23.4095C75.082 23.3801 75.1439 23.363 75.2073 23.3592C75.2706 23.3554 75.3341 23.365 75.3935 23.3875C75.4529 23.4099 75.507 23.4446 75.5521 23.4893C75.5637 23.502 75.5744 23.5154 75.5843 23.5295L79.6582 29.4625Z" fill="#2A4896"/>
<path d="M83.6031 32.1632H59.7465C59.5026 32.1626 59.305 31.7573 59.3047 31.2569V19.1167C59.3047 18.6164 59.5026 18.2113 59.7465 18.2104H83.6031C83.8469 18.2111 84.0445 18.6163 84.0449 19.1167V31.2568C84.0445 31.7571 83.8466 32.1626 83.6031 32.1632ZM59.7465 18.5729C59.6001 18.5729 59.4816 18.8166 59.4814 19.1167V31.2568C59.4814 31.557 59.6001 31.8003 59.7465 31.8006H83.6031C83.7494 31.8006 83.868 31.5571 83.8682 31.2568V19.1167C83.8682 18.8166 83.7494 18.5733 83.6031 18.5729H59.7465Z" fill="#E6E6E6"/>
<path d="M55.4491 19.1785H55.1475V21.4345H55.4491V19.1785Z" fill="#E4E4E4"/>
<path d="M56.5311 20.1803L56.3101 20.3867L55.2978 19.2946L54.2853 20.3867L54.0645 20.1803L55.2978 18.8506L56.5311 20.1803Z" fill="#E4E4E4"/>
<path d="M55.2145 22.5683C54.7373 22.5683 54.2708 22.4264 53.8741 22.1606C53.4773 21.8948 53.168 21.517 52.9854 21.075C52.8028 20.633 52.755 20.1466 52.8481 19.6773C52.9412 19.2081 53.171 18.7771 53.5084 18.4387C53.8459 18.1004 54.2758 17.87 54.7438 17.7767C55.2118 17.6834 55.6969 17.7313 56.1378 17.9144C56.5787 18.0975 56.9555 18.4075 57.2206 18.8053C57.4857 19.2031 57.6272 19.6708 57.6272 20.1493C57.6265 20.7906 57.3721 21.4055 56.9197 21.859C56.4674 22.3125 55.8542 22.5676 55.2145 22.5683ZM55.2145 18.0326C54.7969 18.0326 54.3888 18.1567 54.0416 18.3893C53.6944 18.6219 53.4238 18.9525 53.2641 19.3392C53.1043 19.726 53.0625 20.1516 53.1439 20.5622C53.2254 20.9728 53.4264 21.3499 53.7217 21.646C54.0169 21.942 54.3931 22.1436 54.8026 22.2252C55.2121 22.3069 55.6366 22.265 56.0224 22.1048C56.4081 21.9446 56.7379 21.6733 56.9698 21.3252C57.2018 20.9771 57.3256 20.5679 57.3256 20.1493C57.325 19.5881 57.1024 19.0501 56.7066 18.6533C56.3108 18.2564 55.7742 18.0332 55.2145 18.0326Z" fill="#E4E4E4"/>
</g>
<defs>
<clipPath id="clip0_395_2790">
<rect width="84" height="38" fill="white"/>
</clipPath>
</defs>
</svg>
