<?xml version="1.0" encoding="UTF-8"?>
<svg version="1.1" xmlns="http://www.w3.org/2000/svg" width="512" height="512">
<path d="M0 0 C6.87582397 5.65838663 12.91456183 12.2669065 19.04663086 18.70532227 C27.91120589 28.40122815 27.91120589 28.40122815 39.54711914 33.9934082 C40.63053589 34.27390015 40.63053589 34.27390015 41.73583984 34.56005859 C45.66618267 35.16590823 49.54076904 35.14919531 53.51196289 35.16918945 C55.30038579 35.1924133 57.08879725 35.21653163 58.87719727 35.24145508 C61.66771834 35.27630917 64.45782461 35.30577803 67.24853516 35.31933594 C87.8836509 35.43893313 104.52726738 39.16585794 119.75024414 54.0715332 C131.47122841 66.04697575 137.81230148 80.67344844 137.85571289 97.3918457 C137.88087146 99.18872397 137.90626951 100.98559889 137.93188477 102.7824707 C137.96055942 105.57543068 137.98461863 108.36833287 138.00341797 111.16137695 C137.99169341 131.23996774 137.99169341 131.23996774 148.33691406 147.94677734 C149.39592349 148.97872817 150.45972094 150.00578215 151.52758789 151.02856445 C152.70430974 152.17996131 153.88073215 153.33166426 155.05688477 154.48364258 C156.88463927 156.26222857 158.71542379 158.03741931 160.55224609 159.80664062 C176.61316343 175.31470893 188.12384903 191.62914962 188.85961914 214.8059082 C188.34972084 239.44036978 175.34445614 255.78763401 158.47680664 272.01538086 C157.2644991 273.17619157 156.05060631 274.33534878 154.83520508 275.49291992 C145.1392992 284.35749495 145.1392992 284.35749495 139.54711914 295.9934082 C139.36012451 296.71568604 139.17312988 297.43796387 138.98046875 298.18212891 C138.37461912 302.11247173 138.39133203 305.9870581 138.37133789 309.95825195 C138.34811404 311.74667485 138.32399572 313.53508631 138.29907227 315.32348633 C138.26421817 318.1140074 138.23474931 320.90411367 138.22119141 323.69482422 C138.10159421 344.32993997 134.3746694 360.97355644 119.46899414 376.1965332 C107.4935516 387.91751747 92.8670789 394.25859054 76.14868164 394.30200195 C74.35180338 394.32716052 72.55492845 394.35255857 70.75805664 394.37817383 C67.96509666 394.40684848 65.17219448 394.4309077 62.37915039 394.44970703 C42.3005596 394.43798247 42.3005596 394.43798247 25.59375 404.78320312 C24.56179917 405.84221255 23.5347452 406.90601 22.51196289 407.97387695 C21.36056604 409.1505988 20.20886309 410.32702121 19.05688477 411.50317383 C17.27829878 413.33092833 15.50310804 415.16171286 13.73388672 416.99853516 C-1.77418158 433.05945249 -18.08862227 444.57013809 -41.26538086 445.3059082 C-65.89984244 444.7960099 -82.24710666 431.7907452 -98.47485352 414.9230957 C-99.63566423 413.71078816 -100.79482144 412.49689537 -101.95239258 411.28149414 C-110.81696761 401.58558826 -110.81696761 401.58558826 -122.45288086 395.9934082 C-123.17660889 395.80568848 -123.90033691 395.61796875 -124.64599609 395.42456055 C-128.55394519 394.8242789 -132.39943287 394.8577239 -136.34741211 394.8527832 C-138.12672152 394.83442945 -139.90601869 394.81485684 -141.68530273 394.79418945 C-144.45821523 394.76548486 -147.23034828 394.74341445 -150.00341797 394.74291992 C-170.36089727 394.71727386 -186.81419223 390.72564651 -202.06616211 376.4074707 C-208.95592973 369.43876957 -214.17063502 362.28343972 -217.45288086 352.9934082 C-217.8412915 351.96654907 -217.8412915 351.96654907 -218.23754883 350.91894531 C-221.66949782 340.51591372 -220.92022769 329.48559328 -220.96411133 318.66064453 C-220.92083214 298.67114915 -220.92083214 298.67114915 -231.24267578 282.04003906 C-232.30168521 281.00808824 -233.36548266 279.98103426 -234.43334961 278.95825195 C-235.61007146 277.8068551 -236.78649387 276.65515215 -237.96264648 275.50317383 C-239.79040099 273.72458784 -241.62118551 271.9493971 -243.45800781 270.18017578 C-259.51892515 254.67210748 -271.02961075 238.35766679 -271.76538086 215.1809082 C-271.25548256 190.54644662 -258.25021785 174.1991824 -241.38256836 157.97143555 C-240.17026081 156.81062483 -238.95636803 155.65146762 -237.7409668 154.49389648 C-228.04506091 145.62932145 -228.04506091 145.62932145 -222.45288086 133.9934082 C-222.26588623 133.27113037 -222.0788916 132.54885254 -221.88623047 131.8046875 C-221.28038084 127.87434467 -221.29709375 123.99975831 -221.27709961 120.02856445 C-221.25387576 118.24014156 -221.22975743 116.4517301 -221.20483398 114.66333008 C-221.16997989 111.872809 -221.14051103 109.08270273 -221.12695312 106.29199219 C-221.00735593 85.65687644 -217.28043112 69.01325997 -202.37475586 53.7902832 C-190.07633891 41.7531872 -175.2676598 35.73070152 -158.17553711 35.68481445 C-156.42748681 35.65966079 -154.67944001 35.63426268 -152.93139648 35.60864258 C-150.22185128 35.57995587 -147.51236657 35.55588731 -144.80273438 35.53710938 C-124.98167321 35.48546779 -124.98167321 35.48546779 -108.49951172 25.20361328 C-107.46756089 24.14460385 -106.44050691 23.08080641 -105.41772461 22.01293945 C-104.26632775 20.8362176 -103.1146248 19.6597952 -101.96264648 18.48364258 C-100.1840605 16.65588807 -98.40886976 14.82510355 -96.63964844 12.98828125 C-69.74490313 -14.86523814 -33.02991596 -26.16581636 0 0 Z " fill="#2A4896" transform="translate(297.452880859375,41.006591796875)"/>
<path d="M0 0 C3.54538571 3.10194792 6.95557524 6.3300354 10.34667969 9.59912109 C11.31154297 10.48664063 11.31154297 10.48664063 12.29589844 11.39208984 C30.01929906 28.12397155 41.62291465 51.43957915 47.83007812 74.69628906 C48.32767026 76.52910243 48.86955904 78.34971349 49.41308594 80.16943359 C58.43683476 113.31943972 51.21923862 152.31554793 34.78686523 181.93457031 C27.6957617 194.11035033 19.10822806 204.48794707 9.34667969 214.59912109 C8.75628906 215.25267578 8.16589844 215.90623047 7.55761719 216.57958984 C-12.01083821 237.70348657 -43.54230091 250.82170286 -71.65332031 254.59912109 C-72.43707031 254.70998047 -73.22082031 254.82083984 -74.02832031 254.93505859 C-111.81236072 259.30383827 -149.6094283 249.35784677 -179.71972656 226.00537109 C-194.04420058 214.2558691 -205.97843402 201.42511998 -215.65332031 185.59912109 C-216.68585938 183.94589844 -216.68585938 183.94589844 -217.73925781 182.25927734 C-222.42407815 174.17657348 -225.54351409 165.75611432 -228.52832031 156.91162109 C-228.90996338 155.78336914 -229.29160645 154.65511719 -229.68481445 153.49267578 C-241.25691972 117.86297816 -236.61228684 78.10642892 -219.88769531 44.92285156 C-212.7495921 31.2450278 -203.50711251 19.51222363 -192.65332031 8.59912109 C-192.17137207 8.11314453 -191.68942383 7.62716797 -191.19287109 7.12646484 C-140.79266742 -42.98359204 -54.13537477 -45.86957773 0 0 Z " fill="#5574C6" transform="translate(347.6533203125,144.40087890625)"/>
<path d="M0 0 C5.36787898 1.88869816 8.45991584 4.91983169 11 10 C11.14792873 11.76661038 11.2212169 13.53994064 11.25 15.3125 C11.28867187 16.72982422 11.28867187 16.72982422 11.328125 18.17578125 C10.74636698 23.18305563 7.76054483 26.48915385 4.2940979 29.96659851 C3.17546104 31.09586258 3.17546104 31.09586258 2.03422546 32.24794006 C0.81386345 33.46458595 0.81386345 33.46458595 -0.43115234 34.70581055 C-1.29162674 35.57139587 -2.15210114 36.4369812 -3.03865051 37.32879639 C-5.39235749 39.69400153 -7.75048816 42.05460703 -10.11121321 44.41279578 C-12.08373115 46.38424191 -14.05325981 48.35866121 -16.02284682 50.33303481 C-20.66946507 54.99073462 -25.32137487 59.6431025 -29.9765625 64.29223633 C-34.77556574 69.08519459 -39.56530694 73.8872684 -44.35063398 78.69387788 C-48.46422329 82.82508651 -52.58360011 86.95046101 -56.70763552 91.07124168 C-59.16867175 93.53046609 -61.62743702 95.99185685 -64.08060837 98.45892906 C-66.81532851 101.20856549 -69.56206906 103.94599489 -72.31005859 106.68237305 C-73.11958481 107.499543 -73.92911102 108.31671295 -74.76316833 109.15864563 C-75.51456589 109.90302887 -76.26596344 110.64741211 -77.04013062 111.41435242 C-77.6879418 112.06233134 -78.33575298 112.71031027 -79.00319481 113.37792492 C-83.330584 116.89321535 -87.52417128 117.56646504 -93 117 C-100.0866456 113.78857341 -105.04810472 108.37150203 -110.45703125 102.90625 C-111.45063492 101.91212682 -112.4447592 100.91852375 -113.43937683 99.92541504 C-115.51244348 97.85225911 -117.58028469 95.77407396 -119.64428711 93.69189453 C-122.2864694 91.0269524 -124.93966285 88.37330569 -127.59660816 85.72309113 C-129.64648658 83.6765564 -131.6913408 81.62506202 -133.73462486 79.57194519 C-134.71129072 78.59143955 -135.68929731 77.61226745 -136.66868019 76.63447571 C-138.03512179 75.26840583 -139.39431264 73.89509488 -140.75317383 72.52148438 C-141.52703934 71.74301147 -142.30090485 70.96453857 -143.09822083 70.16247559 C-147.29678281 65.38837357 -147.54051183 61.20378973 -147.45703125 54.98828125 C-146.75446995 50.39461121 -144.53226702 47.8705041 -141 45 C-137.60471017 42.73647345 -136.18813329 42.67532243 -132.1875 42.625 C-131.17042969 42.59664062 -130.15335938 42.56828125 -129.10546875 42.5390625 C-122.21884105 43.56122862 -117.53382462 49.19356049 -112.8515625 53.953125 C-112.19417084 54.61334656 -111.53677917 55.27356812 -110.85946655 55.95379639 C-108.77653738 58.04785262 -106.70070042 60.14878065 -104.625 62.25 C-103.20749524 63.67754421 -101.78953114 65.10463247 -100.37109375 66.53125 C-96.90872506 70.01557984 -93.45269656 73.50608668 -90 77 C-85.10609968 72.9272005 -80.51816409 68.64997263 -76.04248047 64.12426758 C-75.38624695 63.4649675 -74.73001343 62.80566742 -74.05389404 62.12638855 C-72.64129528 60.70668206 -71.22982737 59.28584963 -69.81939316 57.86399269 C-67.58549479 55.6125902 -65.34797263 53.36484765 -63.10940552 51.11808777 C-56.74946544 44.73378641 -50.39525009 38.34380955 -44.04541016 31.94946289 C-40.15125494 28.02852036 -36.25223845 24.11246671 -32.35019302 20.19937706 C-30.86754987 18.71053226 -29.38680613 17.21979342 -27.9080162 15.72712135 C-25.84280212 13.64268021 -23.77149066 11.56448243 -21.69873047 9.48754883 C-20.78841568 8.56409164 -20.78841568 8.56409164 -19.85971069 7.62197876 C-13.57958394 1.35624832 -8.97805529 -1.05200327 0 0 Z " fill="#FDFEFE" transform="translate(324,198)"/>
</svg>
