<svg width="18" height="18" viewBox="0 0 18 18" fill="none" xmlns="http://www.w3.org/2000/svg">
<path d="M15 16.4994V3.74943C15 2.50893 13.9905 1.49943 12.75 1.49943H11.8575C11.7225 1.11918 11.4975 0.773428 11.1765 0.510178C10.6538 0.0811778 9.9735 -0.0868222 9.309 0.0436778L4.80825 0.943678C3.7605 1.15368 3 2.08218 3 3.14943V16.4994H0V17.9994H18V16.4994H15ZM9.375 9.93693C8.754 9.93693 8.25 9.43293 8.25 8.81193C8.25 8.19093 8.754 7.68693 9.375 7.68693C9.996 7.68693 10.5 8.19093 10.5 8.81193C10.5 9.43293 9.996 9.93693 9.375 9.93693ZM13.5 16.4994H12V2.99943H12.75C13.1632 2.99943 13.5 3.33543 13.5 3.74943V16.4994Z" fill="#2A4896"/>
</svg>
