<svg width="24" height="23" viewBox="0 0 24 23" fill="none" xmlns="http://www.w3.org/2000/svg">
<path d="M19.557 17.9992C19.2 17.9992 18.843 17.9192 18.509 17.7602L5.664 11.4412C3.79 10.5472 2.497 8.72116 2.278 6.66916L2.011 4.17416C1.952 3.62816 2.122 3.07516 2.476 2.65716C2.807 2.26516 3.264 2.03216 3.761 2.00216C4.588 1.95516 5.367 2.43716 5.67 3.21016L6.93 6.43316L20.507 13.2482C21.766 13.8022 22.342 15.2782 21.79 16.5392C21.522 17.1502 21.031 17.6132 20.407 17.8462C20.13 17.9492 19.843 18.0002 19.556 18.0002L19.557 17.9992ZM24 21.9992C24 21.4472 23.553 20.9992 23 20.9992H1C0.447 20.9992 0 21.4472 0 21.9992C0 22.5512 0.447 22.9992 1 22.9992H23C23.553 22.9992 24 22.5512 24 21.9992ZM16.614 9.05616L15.413 2.52716C15.331 1.61516 14.758 0.823158 13.915 0.458158L13.122 0.120158C12.656 -0.0778416 12.127 -0.0288416 11.703 0.250158C11.282 0.530158 11.031 1.00016 11.033 1.50316V6.25416L16.614 9.05516V9.05616Z" fill="#2A4896"/>
</svg>
