<svg width="40" height="40" viewBox="0 0 40 40" fill="none" xmlns="http://www.w3.org/2000/svg">
<path d="M3.3335 26.6667C3.3335 21.9527 3.3335 19.5957 4.79796 18.1312C6.26243 16.6667 8.61945 16.6667 13.3335 16.6667H26.6668C31.3808 16.6667 33.7378 16.6667 35.2023 18.1312C36.6668 19.5957 36.6668 21.9527 36.6668 26.6667C36.6668 31.3807 36.6668 33.7377 35.2023 35.2022C33.7378 36.6667 31.3808 36.6667 26.6668 36.6667H13.3335C8.61945 36.6667 6.26243 36.6667 4.79796 35.2022C3.3335 33.7377 3.3335 31.3807 3.3335 26.6667Z" stroke="white" stroke-width="4"/>
<path opacity="0.5" d="M10 16.6666V13.3333C10 7.8104 14.4771 3.33325 20 3.33325C25.5228 3.33325 30 7.8104 30 13.3333V16.6666" stroke="white" stroke-width="4" stroke-linecap="round"/>
<g opacity="0.5">
<path d="M14.9998 26.6667C14.9998 27.5872 14.2536 28.3333 13.3332 28.3333C12.4127 28.3333 11.6665 27.5872 11.6665 26.6667C11.6665 25.7462 12.4127 25 13.3332 25C14.2536 25 14.9998 25.7462 14.9998 26.6667Z" fill="white"/>
<path d="M21.6663 26.6667C21.6663 27.5872 20.9202 28.3333 19.9997 28.3333C19.0792 28.3333 18.333 27.5872 18.333 26.6667C18.333 25.7462 19.0792 25 19.9997 25C20.9202 25 21.6663 25.7462 21.6663 26.6667Z" fill="white"/>
<path d="M28.3333 26.6667C28.3333 27.5872 27.5872 28.3333 26.6667 28.3333C25.7462 28.3333 25 27.5872 25 26.6667C25 25.7462 25.7462 25 26.6667 25C27.5872 25 28.3333 25.7462 28.3333 26.6667Z" fill="white"/>
</g>
</svg>
