<svg width="200" height="201" viewBox="0 0 200 201" fill="none" xmlns="http://www.w3.org/2000/svg">
<path d="M16.6665 133.833C16.6665 110.263 16.6665 98.4783 23.9888 91.1558C31.3112 83.8333 43.0963 83.8333 66.6665 83.8333H133.333C156.903 83.8333 168.688 83.8333 176.011 91.1558C183.333 98.4783 183.333 110.263 183.333 133.833C183.333 157.403 183.333 169.188 176.011 176.511C168.688 183.833 156.903 183.833 133.333 183.833H66.6665C43.0963 183.833 31.3112 183.833 23.9888 176.511C16.6665 169.188 16.6665 157.403 16.6665 133.833Z" stroke="white" stroke-width="12"/>
<g opacity="0.5">
<path d="M75.0002 133.833C75.0002 138.436 71.2692 142.167 66.6668 142.167C62.0645 142.167 58.3335 138.436 58.3335 133.833C58.3335 129.231 62.0645 125.5 66.6668 125.5C71.2692 125.5 75.0002 129.231 75.0002 133.833Z" fill="white"/>
<path d="M108.334 133.833C108.334 138.436 104.603 142.167 100 142.167C95.3978 142.167 91.667 138.436 91.667 133.833C91.667 129.231 95.3978 125.5 100 125.5C104.603 125.5 108.334 129.231 108.334 133.833Z" fill="white"/>
<path d="M141.667 133.833C141.667 138.436 137.936 142.167 133.333 142.167C128.731 142.167 125 138.436 125 133.833C125 129.231 128.731 125.5 133.333 125.5C137.936 125.5 141.667 129.231 141.667 133.833Z" fill="white"/>
</g>
<path opacity="0.5" d="M50 83.8334V67.1667C50 39.5525 72.3857 17.1667 100 17.1667C123.298 17.1667 142.874 33.1014 148.425 54.6667" stroke="white" stroke-width="12" stroke-linecap="round"/>
</svg>
