<svg width="40" height="41" viewBox="0 0 40 41" fill="none" xmlns="http://www.w3.org/2000/svg">
<path d="M29.1624 31.3084L34.3801 15.6561C36.4606 9.41449 37.5009 6.29365 35.8536 4.64629C34.2061 2.9989 31.0851 4.03919 24.8432 6.11974L9.2912 11.3036C5.8215 12.4601 4.08663 13.0383 3.56005 14.3105C3.43628 14.6095 3.36145 14.9265 3.33843 15.2493C3.24046 16.6227 4.53355 17.9158 7.11971 20.5018L7.59076 20.9728C8.01526 21.3973 8.2275 21.6096 8.38795 21.8458C8.7044 22.3118 8.88401 22.8571 8.90646 23.4198C8.91785 23.7053 8.8733 24.0021 8.7842 24.5956C8.45805 26.7686 8.29496 27.8551 8.48708 28.6911C8.87 30.3576 10.1599 31.6658 11.8209 32.0721C12.6542 32.2759 13.7428 32.1283 15.9202 31.8328L16.0393 31.8166C16.6531 31.7333 16.9601 31.6916 17.2547 31.7094C17.7896 31.7416 18.3062 31.9159 18.7516 32.2141C18.9967 32.3784 19.2157 32.5974 19.6537 33.0354L20.0726 33.4541C22.5897 35.9712 23.8482 37.2298 25.1834 37.1641C25.5514 37.1461 25.9131 37.0608 26.2504 36.9123C27.4739 36.3739 28.0367 34.6854 29.1624 31.3084Z" stroke="white" stroke-width="4"/>
<path opacity="0.5" d="M10 30.5L35 5.5" stroke="white" stroke-width="4" stroke-linecap="round"/>
</svg>
