<svg width="50" height="51" viewBox="0 0 50 51" fill="none" xmlns="http://www.w3.org/2000/svg">
<rect y="0.5" width="50" height="50" rx="25" fill="#2A4896"/>
<path d="M26.0281 15.0007C27.1535 15.0026 27.7238 15.0086 28.2166 15.0232L28.4107 15.0296C28.6349 15.0375 28.8561 15.0475 29.1228 15.06C30.1869 15.1092 30.9128 15.2775 31.5503 15.525C32.2094 15.7792 32.7661 16.1225 33.3219 16.6784C33.8769 17.2342 34.2203 17.7925 34.4753 18.45C34.7219 19.0867 34.8903 19.8134 34.9403 20.8775C34.9522 21.1442 34.9618 21.3654 34.9697 21.5896L34.976 21.7837C34.9906 22.2765 34.9973 22.8469 34.9994 23.9723L35.0002 24.7179C35.0003 24.809 35.0003 24.903 35.0003 25L35.0002 25.2821L34.9996 26.0278C34.9977 27.1532 34.9918 27.7236 34.9771 28.2163L34.9707 28.4104C34.9628 28.6347 34.9528 28.8559 34.9403 29.1225C34.8911 30.1867 34.7219 30.9125 34.4753 31.55C34.2211 32.2092 33.8769 32.7659 33.3219 33.3217C32.7661 33.8767 32.2069 34.22 31.5503 34.475C30.9128 34.7217 30.1869 34.89 29.1228 34.94C28.8561 34.9519 28.6349 34.9616 28.4107 34.9694L28.2166 34.9757C27.7238 34.9904 27.1535 34.997 26.0281 34.9992L25.2824 35C25.1913 35 25.0973 35 25.0003 35H24.7182L23.9725 34.9993C22.8471 34.9975 22.2767 34.9915 21.784 34.9768L21.5899 34.9705C21.3656 34.9625 21.1444 34.9525 20.8778 34.94C19.8136 34.8909 19.0886 34.7217 18.4503 34.475C17.7919 34.2209 17.2344 33.8767 16.6786 33.3217C16.1228 32.7659 15.7803 32.2067 15.5253 31.55C15.2778 30.9125 15.1103 30.1867 15.0603 29.1225C15.0484 28.8559 15.0387 28.6347 15.0309 28.4104L15.0246 28.2163C15.0099 27.7236 15.0033 27.1532 15.0011 26.0278L15.001 23.9723C15.0028 22.8469 15.0088 22.2765 15.0235 21.7837L15.0298 21.5896C15.0378 21.3654 15.0478 21.1442 15.0603 20.8775C15.1094 19.8125 15.2778 19.0875 15.5253 18.45C15.7794 17.7917 16.1228 17.2342 16.6786 16.6784C17.2344 16.1225 17.7928 15.78 18.4503 15.525C19.0878 15.2775 19.8128 15.11 20.8778 15.06C21.1444 15.0482 21.3656 15.0385 21.5899 15.0306L21.784 15.0243C22.2767 15.0097 22.8471 15.003 23.9725 15.0009L26.0281 15.0007ZM25.0003 20C22.2374 20 20.0003 22.2396 20.0003 25C20.0003 27.7629 22.2398 30 25.0003 30C27.7632 30 30.0003 27.7605 30.0003 25C30.0003 22.2371 27.7607 20 25.0003 20ZM25.0003 22C26.6572 22 28.0003 23.3427 28.0003 25C28.0003 26.6569 26.6576 28 25.0003 28C23.3434 28 22.0003 26.6574 22.0003 25C22.0003 23.3431 23.3429 22 25.0003 22ZM30.2503 18.5C29.561 18.5 29.0003 19.0599 29.0003 19.7492C29.0003 20.4384 29.5602 20.9992 30.2503 20.9992C30.9395 20.9992 31.5003 20.4393 31.5003 19.7492C31.5003 19.0599 30.9386 18.4992 30.2503 18.5Z" fill="white"/>
</svg>
