<svg width="50" height="51" viewBox="0 0 50 51" fill="none" xmlns="http://www.w3.org/2000/svg">
<rect y="0.5" width="50" height="50" rx="25" fill="#2A4896"/>
<path d="M19.9405 18.9999C19.9401 19.8142 19.4461 20.547 18.6913 20.8527C17.9366 21.1584 17.0719 20.976 16.5049 20.3915C15.9379 19.807 15.7819 18.9371 16.1105 18.1921C16.4391 17.447 17.1865 16.9755 18.0005 16.9999C19.0815 17.0324 19.941 17.9184 19.9405 18.9999ZM20.0005 22.4799H16.0005V34.9999H20.0005V22.4799ZM26.3205 22.4799H22.3405V34.9999H26.2805V28.4299C26.2805 24.7699 31.0505 24.4299 31.0505 28.4299V34.9999H35.0005V27.0699C35.0005 20.8999 27.9405 21.1299 26.2805 24.1599L26.3205 22.4799Z" fill="white"/>
</svg>
