<svg width="50" height="51" viewBox="0 0 50 51" fill="none" xmlns="http://www.w3.org/2000/svg">
<rect y="0.5" width="50" height="50" rx="25" fill="#2A4896"/>
<path d="M25.001 15C19.4781 15 15.001 19.4771 15.001 25C15.001 29.9913 18.6578 34.1283 23.4385 34.8785V27.8906H20.8994V25H23.4385V22.7969C23.4385 20.2906 24.9314 18.9062 27.2156 18.9062C28.3097 18.9062 29.4541 19.1016 29.4541 19.1016V21.5625H28.1931C26.9509 21.5625 26.5635 22.3333 26.5635 23.1242V25H29.3369L28.8936 27.8906H26.5635V34.8785C31.3441 34.1283 35.001 29.9913 35.001 25C35.001 19.4771 30.5238 15 25.001 15Z" fill="white"/>
</svg>
