<svg width="24" height="25" viewBox="0 0 24 25" fill="none" xmlns="http://www.w3.org/2000/svg">
<g clip-path="url(#clip0_735_1750)">
<path d="M17.974 7.64591C17.643 7.57991 17.372 7.37291 17.232 7.07691C15.682 3.80591 12.089 1.97691 8.498 2.63891C5.226 3.23891 2.661 5.85091 2.114 9.13991C1.952 10.1109 1.964 11.0829 2.147 12.0299C2.207 12.3389 2.074 12.6829 1.801 12.9309C0.656 13.9719 0 15.4549 0 17.0009C0 20.0329 2.467 22.5009 5.5 22.5009H16.5C20.636 22.5009 24 19.1369 24 15.0009C24 11.4359 21.466 8.34191 17.974 7.64591ZM15.121 14.2079C14.926 14.4029 14.67 14.5009 14.414 14.5009C14.158 14.5009 13.902 14.4029 13.707 14.2079L12 12.5009V17.5009C12 18.0539 11.552 18.5009 11 18.5009C10.448 18.5009 10 18.0539 10 17.5009V12.5009L8.293 14.2079C7.902 14.5989 7.27 14.5989 6.879 14.2079C6.488 13.8169 6.488 13.1849 6.879 12.7939L9.586 10.0869C9.972 9.70091 10.479 9.50691 10.986 9.50391L11 9.50091L11.014 9.50391C11.522 9.50691 12.028 9.70091 12.414 10.0869L15.121 12.7939C15.512 13.1849 15.512 13.8169 15.121 14.2079Z" fill="#2A4896"/>
</g>
<defs>
<clipPath id="clip0_735_1750">
<rect width="24" height="24" fill="white" transform="translate(0 0.5)"/>
</clipPath>
</defs>
</svg>
