<svg width="127" height="38" viewBox="0 0 127 38" fill="none" xmlns="http://www.w3.org/2000/svg">
<g clip-path="url(#clip0_553_15771)">
<path d="M122.296 37.706H4.7037C2.06963 37.706 0 35.6364 0 33.0023V4.78012C0 2.14605 2.06963 0.076416 4.7037 0.076416H122.296C124.93 0.076416 127 2.14605 127 4.78012V33.0023C127 35.6364 124.93 37.706 122.296 37.706Z" fill="black"/>
<path d="M122.296 0.829009C124.46 0.829009 126.247 2.61642 126.247 4.78012V33.0023C126.247 35.166 124.46 36.9535 122.296 36.9535H4.7037C2.54 36.9535 0.752593 35.166 0.752593 33.0023V4.78012C0.752593 2.61642 2.54 0.829009 4.7037 0.829009H122.296ZM122.296 0.076416H4.7037C2.06963 0.076416 0 2.24012 0 4.78012V33.0023C0 35.6364 2.06963 37.706 4.7037 37.706H122.296C124.93 37.706 127 35.6364 127 33.0023V4.78012C127 2.24012 124.93 0.076416 122.296 0.076416Z" fill="#A6A6A6"/>
<path d="M44.5911 9.67183C44.5911 10.4244 44.403 11.0829 43.9326 11.5533C43.3681 12.1178 42.7096 12.4 41.8629 12.4C41.0163 12.4 40.3578 12.1178 39.7933 11.5533C39.2289 10.9889 38.9467 10.3303 38.9467 9.48368C38.9467 8.63701 39.2289 7.97849 39.7933 7.41405C40.3578 6.84961 41.0163 6.56738 41.8629 6.56738C42.2392 6.56738 42.6155 6.66146 42.9918 6.8496C43.3681 7.03775 43.6504 7.2259 43.8385 7.50812L43.3681 7.97849C42.9918 7.50812 42.5215 7.31998 41.8629 7.31998C41.2985 7.31998 40.7341 7.50812 40.3578 7.97849C39.8874 8.35479 39.6992 8.91923 39.6992 9.57775C39.6992 10.2363 39.8874 10.8007 40.3578 11.177C40.8281 11.5533 41.2985 11.8355 41.8629 11.8355C42.5215 11.8355 42.9918 11.6474 43.4622 11.177C43.7444 10.8948 43.9326 10.5185 43.9326 10.0481H41.8629V9.29553H44.5911V9.67183ZM48.9185 7.31998H46.3785V9.10738H48.7304V9.7659H46.3785V11.5533H48.9185V12.3059H45.6259V6.66146H48.9185V7.31998ZM52.0229 12.3059H51.2704V7.31998H49.6711V6.66146H53.6222V7.31998H52.0229V12.3059ZM56.3504 12.3059V6.66146H57.1029V12.3059H56.3504ZM60.3015 12.3059H59.5489V7.31998H57.9496V6.66146H61.8066V7.31998H60.2074V12.3059H60.3015ZM69.2385 11.5533C68.6741 12.1178 68.0155 12.4 67.1689 12.4C66.3222 12.4 65.6637 12.1178 65.0992 11.5533C64.5348 10.9889 64.2526 10.3303 64.2526 9.48368C64.2526 8.63701 64.5348 7.97849 65.0992 7.41405C65.6637 6.84961 66.3222 6.56738 67.1689 6.56738C68.0155 6.56738 68.6741 6.84961 69.2385 7.41405C69.8029 7.97849 70.0852 8.63701 70.0852 9.48368C70.0852 10.3303 69.8029 10.9889 69.2385 11.5533ZM65.6637 11.0829C66.04 11.4592 66.6044 11.7415 67.1689 11.7415C67.7333 11.7415 68.2978 11.5533 68.6741 11.0829C69.0504 10.7066 69.3326 10.1422 69.3326 9.48368C69.3326 8.82516 69.1444 8.26072 68.6741 7.88442C68.2978 7.50812 67.7333 7.2259 67.1689 7.2259C66.6044 7.2259 66.04 7.41405 65.6637 7.88442C65.2874 8.26072 65.0052 8.82516 65.0052 9.48368C65.0052 10.1422 65.1933 10.7066 65.6637 11.0829ZM71.12 12.3059V6.66146H71.9667L74.6948 11.0829V6.66146H75.4474V12.3059H74.6948L71.7785 7.69627V12.3059H71.12Z" fill="white" stroke="white" stroke-width="0.188148" stroke-miterlimit="10"/>
<path d="M64.0644 20.5846C61.8067 20.5846 60.0192 22.2779 60.0192 24.6298C60.0192 26.8875 61.8067 28.6749 64.0644 28.6749C66.3222 28.6749 68.1096 26.9816 68.1096 24.6298C68.1096 22.1838 66.3222 20.5846 64.0644 20.5846ZM64.0644 26.9816C62.8415 26.9816 61.8066 25.9468 61.8066 24.5357C61.8066 23.1246 62.8415 22.0898 64.0644 22.0898C65.2874 22.0898 66.3222 23.0305 66.3222 24.5357C66.3222 25.9468 65.2874 26.9816 64.0644 26.9816ZM55.3155 20.5846C53.0578 20.5846 51.2704 22.2779 51.2704 24.6298C51.2704 26.8875 53.0578 28.6749 55.3155 28.6749C57.5733 28.6749 59.3607 26.9816 59.3607 24.6298C59.3607 22.1838 57.5733 20.5846 55.3155 20.5846ZM55.3155 26.9816C54.0926 26.9816 53.0578 25.9468 53.0578 24.5357C53.0578 23.1246 54.0926 22.0898 55.3155 22.0898C56.5385 22.0898 57.5733 23.0305 57.5733 24.5357C57.5733 25.9468 56.5385 26.9816 55.3155 26.9816ZM44.8733 21.8075V23.5009H48.9185C48.8244 24.4416 48.4481 25.1942 47.9778 25.6646C47.4133 26.229 46.4726 26.8875 44.8733 26.8875C42.3333 26.8875 40.4518 24.912 40.4518 22.372C40.4518 19.832 42.4274 17.8564 44.8733 17.8564C46.1904 17.8564 47.2252 18.4209 47.9778 19.0794L49.2007 17.8564C48.1659 16.9157 46.8489 16.1631 44.9674 16.1631C41.5807 16.1631 38.6644 18.9853 38.6644 22.372C38.6644 25.7586 41.5807 28.5809 44.9674 28.5809C46.8489 28.5809 48.1659 28.0164 49.2948 26.7935C50.4237 25.6646 50.8 24.0653 50.8 22.8423C50.8 22.466 50.8 22.0898 50.7059 21.8075H44.8733ZM87.5829 23.1246C87.2066 22.1838 86.2659 20.5846 84.1963 20.5846C82.1267 20.5846 80.4333 22.1838 80.4333 24.6298C80.4333 26.8875 82.1266 28.6749 84.3844 28.6749C86.1718 28.6749 87.3007 27.546 87.677 26.8875L86.36 25.9468C85.8896 26.6053 85.3252 27.0757 84.3844 27.0757C83.4437 27.0757 82.8792 26.6994 82.4089 25.8527L87.7711 23.5949L87.5829 23.1246ZM82.1267 24.4416C82.1267 22.9364 83.3496 22.0898 84.1963 22.0898C84.8548 22.0898 85.5133 22.466 85.7015 22.9364L82.1267 24.4416ZM77.7052 28.2986H79.4926V16.5394H77.7052V28.2986ZM74.8829 21.4312C74.4126 20.9609 73.66 20.4905 72.7192 20.4905C70.7437 20.4905 68.8622 22.2779 68.8622 24.5357C68.8622 26.7935 70.6496 28.4868 72.7192 28.4868C73.66 28.4868 74.4126 28.0164 74.7889 27.546H74.8829V28.1105C74.8829 29.6157 74.0363 30.4623 72.7192 30.4623C71.6844 30.4623 70.9318 29.7098 70.7437 29.0512L69.2385 29.7098C69.7089 30.7446 70.8378 32.0616 72.8133 32.0616C74.8829 32.0616 76.5763 30.8386 76.5763 27.9223V20.7727H74.8829V21.4312ZM72.8133 26.9816C71.5904 26.9816 70.5555 25.9468 70.5555 24.5357C70.5555 23.1246 71.5904 22.0898 72.8133 22.0898C74.0363 22.0898 74.977 23.1246 74.977 24.5357C74.977 25.9468 74.0363 26.9816 72.8133 26.9816ZM95.7674 16.5394H91.5341V28.2986H93.3215V23.8772H95.7674C97.743 23.8772 99.6244 22.466 99.6244 20.2083C99.6244 17.9505 97.743 16.5394 95.7674 16.5394ZM95.8615 22.1838H93.3215V18.1386H95.8615C97.1785 18.1386 97.9311 19.2675 97.9311 20.1142C97.837 21.149 97.0844 22.1838 95.8615 22.1838ZM106.68 20.4905C105.363 20.4905 104.046 21.0549 103.576 22.2779L105.175 22.9364C105.551 22.2779 106.116 22.0898 106.774 22.0898C107.715 22.0898 108.561 22.6542 108.656 23.5949V23.689C108.373 23.5009 107.621 23.2186 106.868 23.2186C105.175 23.2186 103.481 24.1594 103.481 25.8527C103.481 27.452 104.893 28.4868 106.398 28.4868C107.621 28.4868 108.185 27.9223 108.656 27.3579H108.75V28.2986H110.443V23.7831C110.255 21.7135 108.656 20.4905 106.68 20.4905ZM106.492 26.9816C105.927 26.9816 105.081 26.6994 105.081 25.9468C105.081 25.006 106.116 24.7238 106.962 24.7238C107.715 24.7238 108.091 24.912 108.561 25.1001C108.373 26.229 107.433 26.9816 106.492 26.9816ZM116.37 20.7727L114.394 25.8527H114.3L112.23 20.7727H110.349L113.453 27.9223L111.666 31.8735H113.453L118.251 20.7727H116.37ZM100.565 28.2986H102.353V16.5394H100.565V28.2986Z" fill="white"/>
<path d="M9.78371 7.13208C9.50148 7.4143 9.40741 7.88467 9.40741 8.44912V29.2395C9.40741 29.8039 9.59556 30.2743 9.87778 30.5565L9.97185 30.6506L21.637 18.9854V18.7973L9.78371 7.13208Z" fill="url(#paint0_linear_553_15771)"/>
<path d="M25.4 22.9362L21.543 19.0792V18.797L25.4 14.9399L25.4941 15.034L30.1037 17.6681C31.4207 18.4207 31.4207 19.6436 30.1037 20.3962L25.4 22.9362Z" fill="url(#paint1_linear_553_15771)"/>
<path d="M25.4941 22.8422L21.543 18.8911L9.78369 30.6504C10.2541 31.1207 10.9126 31.1207 11.7592 30.7444L25.4941 22.8422Z" fill="url(#paint2_linear_553_15771)"/>
<path d="M25.4941 14.9399L11.7592 7.13176C10.9126 6.66138 10.2541 6.75546 9.78369 7.22583L21.543 18.891L25.4941 14.9399Z" fill="url(#paint3_linear_553_15771)"/>
<path opacity="0.2" d="M25.4 22.748L11.7592 30.4621C11.0067 30.9325 10.3481 30.8384 9.87777 30.4621L9.78369 30.5562L9.87777 30.6503C10.3481 31.0266 11.0067 31.1206 11.7592 30.6503L25.4 22.748Z" fill="black"/>
<path opacity="0.12" d="M9.78371 30.4622C9.50148 30.18 9.40741 29.7096 9.40741 29.1452V29.2393C9.40741 29.8037 9.59556 30.2741 9.87778 30.5563V30.4622H9.78371ZM30.1037 20.1141L25.4 22.7482L25.4941 22.8422L30.1037 20.2082C30.7622 19.8319 31.0444 19.3615 31.0444 18.8911C31.0444 19.3615 30.6682 19.7378 30.1037 20.1141Z" fill="black"/>
<path opacity="0.25" d="M11.7593 7.22578L30.1037 17.668C30.6682 18.0443 31.0444 18.4206 31.0444 18.891C31.0444 18.4206 30.7622 17.9502 30.1037 17.5739L11.7593 7.13171C10.4422 6.37911 9.40741 6.94356 9.40741 8.44874V8.54282C9.40741 7.13171 10.4422 6.47319 11.7593 7.22578Z" fill="white"/>
</g>
<defs>
<linearGradient id="paint0_linear_553_15771" x1="20.5081" y1="8.27038" x2="4.7197" y2="24.0579" gradientUnits="userSpaceOnUse">
<stop stop-color="#00A0FF"/>
<stop offset="0.007" stop-color="#00A1FF"/>
<stop offset="0.26" stop-color="#00BEFF"/>
<stop offset="0.512" stop-color="#00D2FF"/>
<stop offset="0.76" stop-color="#00DFFF"/>
<stop offset="1" stop-color="#00E3FF"/>
</linearGradient>
<linearGradient id="paint1_linear_553_15771" x1="31.829" y1="18.892" x2="9.06592" y2="18.892" gradientUnits="userSpaceOnUse">
<stop stop-color="#FFE000"/>
<stop offset="0.409" stop-color="#FFBD00"/>
<stop offset="0.775" stop-color="#FFA500"/>
<stop offset="1" stop-color="#FF9C00"/>
</linearGradient>
<linearGradient id="paint2_linear_553_15771" x1="23.3558" y1="21.0511" x2="1.94638" y2="42.4604" gradientUnits="userSpaceOnUse">
<stop stop-color="#FF3A44"/>
<stop offset="1" stop-color="#C31162"/>
</linearGradient>
<linearGradient id="paint3_linear_553_15771" x1="6.86457" y1="0.241769" x2="16.4253" y2="9.80252" gradientUnits="userSpaceOnUse">
<stop stop-color="#32A071"/>
<stop offset="0.069" stop-color="#2DA771"/>
<stop offset="0.476" stop-color="#15CF74"/>
<stop offset="0.801" stop-color="#06E775"/>
<stop offset="1" stop-color="#00F076"/>
</linearGradient>
<clipPath id="clip0_553_15771">
<rect width="127" height="37.7825" fill="white"/>
</clipPath>
</defs>
</svg>
