<?xml version="1.0" encoding="UTF-8"?>
<svg xmlns="http://www.w3.org/2000/svg" xmlns:xlink="http://www.w3.org/1999/xlink" width="36px" height="36px" viewBox="0 0 36 36" version="1.1">
<g id="surface1">
<path style=" stroke:none;fill-rule:nonzero;fill:rgb(0%,3.137255%,99.607843%);fill-opacity:1;" d="M 20.53125 1.898438 C 20.613281 1.921875 20.613281 1.921875 20.699219 1.941406 C 21.519531 2.15625 22.300781 2.441406 23.0625 2.8125 C 23.140625 2.851562 23.21875 2.890625 23.300781 2.929688 C 25.933594 4.28125 27.945312 6.71875 28.882812 9.515625 C 30.40625 14.335938 28.84375 19.664062 26.609375 24.003906 C 25.714844 25.707031 24.613281 27.320312 23.414062 28.828125 C 23.378906 28.871094 23.34375 28.917969 23.304688 28.964844 C 22.871094 29.511719 22.425781 30.046875 21.949219 30.558594 C 21.816406 30.707031 21.683594 30.855469 21.554688 31.007812 C 21.289062 31.3125 21 31.59375 20.710938 31.878906 C 20.53125 32.058594 20.53125 32.058594 20.382812 32.246094 C 20.261719 32.398438 20.140625 32.519531 19.992188 32.640625 C 19.777344 32.824219 19.578125 33.011719 19.382812 33.214844 C 19.089844 33.515625 18.769531 33.777344 18.441406 34.042969 C 18.28125 34.167969 18.28125 34.167969 18.140625 34.3125 C 17.808594 34.300781 17.648438 34.140625 17.414062 33.917969 C 17.347656 33.851562 17.277344 33.789062 17.210938 33.722656 C 17.144531 33.664062 17.082031 33.601562 17.015625 33.539062 C 16.917969 33.453125 16.820312 33.367188 16.722656 33.285156 C 16.476562 33.074219 16.253906 32.847656 16.027344 32.617188 C 15.902344 32.496094 15.773438 32.382812 15.640625 32.273438 C 15.414062 32.085938 15.230469 31.875 15.039062 31.648438 C 14.894531 31.488281 14.746094 31.335938 14.589844 31.183594 C 14.304688 30.902344 14.039062 30.609375 13.78125 30.304688 C 13.695312 30.207031 13.695312 30.207031 13.609375 30.109375 C 13.078125 29.492188 12.582031 28.847656 12.09375 28.195312 C 12.058594 28.152344 12.027344 28.105469 11.992188 28.0625 C 8.550781 23.515625 5.898438 17.488281 6.625 11.671875 C 6.839844 10.179688 7.308594 8.84375 8.015625 7.523438 C 8.054688 7.449219 8.09375 7.375 8.136719 7.296875 C 9.574219 4.71875 12.128906 2.851562 14.9375 2.039062 C 15.117188 1.992188 15.292969 1.945312 15.46875 1.898438 C 15.515625 1.886719 15.566406 1.871094 15.613281 1.859375 C 17.105469 1.484375 19.046875 1.503906 20.53125 1.898438 Z M 20.53125 1.898438 "/>
<path style=" stroke:none;fill-rule:nonzero;fill:rgb(98.039216%,70.980392%,30.196078%);fill-opacity:1;" d="M 17.140625 7.378906 C 17.195312 7.378906 17.25 7.378906 17.308594 7.378906 C 17.351562 7.382812 17.394531 7.382812 17.4375 7.382812 C 17.4375 7.441406 17.441406 7.5 17.441406 7.558594 C 17.445312 7.824219 17.453125 8.085938 17.460938 8.351562 C 17.460938 8.441406 17.460938 8.53125 17.464844 8.628906 C 17.464844 8.714844 17.46875 8.804688 17.472656 8.894531 C 17.472656 8.972656 17.476562 9.054688 17.476562 9.140625 C 17.511719 9.367188 17.558594 9.46875 17.71875 9.632812 C 17.855469 9.675781 17.855469 9.675781 18 9.667969 C 18.046875 9.667969 18.097656 9.667969 18.144531 9.671875 C 18.34375 9.617188 18.386719 9.527344 18.492188 9.351562 C 18.527344 9.132812 18.527344 9.132812 18.527344 8.894531 C 18.53125 8.761719 18.53125 8.761719 18.535156 8.628906 C 18.539062 8.535156 18.539062 8.445312 18.539062 8.351562 C 18.542969 8.257812 18.546875 8.164062 18.546875 8.070312 C 18.554688 7.839844 18.558594 7.613281 18.5625 7.382812 C 19.738281 7.351562 20.917969 7.957031 21.796875 8.71875 C 21.878906 8.78125 21.878906 8.78125 21.964844 8.847656 C 22.839844 9.585938 23.546875 10.816406 23.695312 11.953125 C 23.699219 12.140625 23.699219 12.328125 23.695312 12.515625 C 23.636719 12.515625 23.578125 12.519531 23.519531 12.519531 C 23.253906 12.523438 22.992188 12.53125 22.726562 12.539062 C 22.636719 12.539062 22.546875 12.539062 22.449219 12.542969 C 22.363281 12.542969 22.273438 12.546875 22.183594 12.550781 C 22.105469 12.550781 22.023438 12.554688 21.9375 12.554688 C 21.710938 12.589844 21.609375 12.636719 21.445312 12.796875 C 21.402344 12.933594 21.402344 12.933594 21.414062 13.078125 C 21.414062 13.125 21.414062 13.175781 21.414062 13.222656 C 21.457031 13.40625 21.503906 13.457031 21.65625 13.570312 C 21.882812 13.605469 21.882812 13.605469 22.136719 13.605469 C 22.207031 13.609375 22.207031 13.609375 22.277344 13.609375 C 22.425781 13.613281 22.574219 13.617188 22.722656 13.617188 C 22.824219 13.621094 22.925781 13.625 23.027344 13.625 C 23.273438 13.632812 23.519531 13.636719 23.765625 13.640625 C 23.558594 15.328125 22.796875 16.726562 21.445312 17.789062 C 20.941406 18.132812 20.417969 18.386719 19.84375 18.59375 C 19.796875 18.609375 19.75 18.628906 19.703125 18.644531 C 19.328125 18.773438 18.957031 18.816406 18.5625 18.84375 C 18.5625 18.785156 18.5625 18.722656 18.558594 18.660156 C 18.558594 18.4375 18.554688 18.210938 18.546875 17.988281 C 18.546875 17.890625 18.542969 17.792969 18.542969 17.695312 C 18.542969 17.558594 18.539062 17.417969 18.535156 17.277344 C 18.53125 17.152344 18.53125 17.152344 18.53125 17.023438 C 18.484375 16.765625 18.417969 16.679688 18.210938 16.523438 C 18 16.476562 18 16.476562 17.789062 16.523438 C 17.582031 16.679688 17.515625 16.765625 17.46875 17.023438 C 17.46875 17.109375 17.464844 17.191406 17.464844 17.277344 C 17.460938 17.371094 17.460938 17.460938 17.457031 17.554688 C 17.457031 17.648438 17.457031 17.746094 17.453125 17.84375 C 17.453125 17.9375 17.449219 18.035156 17.449219 18.132812 C 17.445312 18.371094 17.441406 18.605469 17.4375 18.84375 C 17.28125 18.824219 17.128906 18.804688 16.976562 18.785156 C 16.847656 18.765625 16.847656 18.765625 16.714844 18.75 C 15.289062 18.496094 14.03125 17.542969 13.210938 16.382812 C 12.640625 15.5 12.363281 14.679688 12.234375 13.640625 C 12.296875 13.640625 12.359375 13.636719 12.425781 13.636719 C 12.65625 13.632812 12.890625 13.628906 13.125 13.621094 C 13.226562 13.621094 13.324219 13.617188 13.425781 13.617188 C 13.570312 13.613281 13.714844 13.609375 13.863281 13.605469 C 13.992188 13.605469 13.992188 13.605469 14.125 13.601562 C 14.34375 13.589844 14.34375 13.589844 14.476562 13.472656 C 14.574219 13.332031 14.585938 13.246094 14.585938 13.078125 C 14.585938 13.03125 14.589844 12.980469 14.589844 12.933594 C 14.539062 12.734375 14.449219 12.691406 14.273438 12.585938 C 14.054688 12.550781 14.054688 12.550781 13.816406 12.550781 C 13.683594 12.546875 13.683594 12.546875 13.550781 12.542969 C 13.457031 12.539062 13.367188 12.539062 13.273438 12.539062 C 13.179688 12.535156 13.085938 12.53125 12.992188 12.53125 C 12.761719 12.523438 12.535156 12.519531 12.304688 12.515625 C 12.28125 11.171875 12.945312 9.960938 13.851562 9 C 14.671875 8.191406 15.9375 7.359375 17.140625 7.378906 Z M 17.140625 7.378906 "/>
<path style=" stroke:none;fill-rule:nonzero;fill:rgb(1.176471%,3.921569%,98.823529%);fill-opacity:1;" d="M 18.914062 11.8125 C 19.25 12.109375 19.507812 12.425781 19.566406 12.878906 C 19.597656 13.363281 19.484375 13.746094 19.195312 14.132812 C 18.761719 14.507812 18.359375 14.660156 17.789062 14.652344 C 17.332031 14.589844 16.984375 14.339844 16.699219 13.988281 C 16.664062 13.917969 16.628906 13.851562 16.59375 13.78125 C 16.566406 13.730469 16.535156 13.675781 16.507812 13.625 C 16.378906 13.160156 16.398438 12.714844 16.636719 12.296875 C 17.230469 11.496094 18.046875 11.304688 18.914062 11.8125 Z M 18.914062 11.8125 "/>
<path style=" stroke:none;fill-rule:nonzero;fill:rgb(34.117647%,61.960784%,83.921569%);fill-opacity:1;" d="M 12.234375 12.304688 C 12.269531 12.410156 12.269531 12.410156 12.304688 12.515625 C 12.363281 12.515625 12.421875 12.511719 12.480469 12.511719 C 12.742188 12.503906 13.003906 12.5 13.265625 12.5 C 13.359375 12.496094 13.449219 12.492188 13.542969 12.492188 C 13.628906 12.488281 13.71875 12.488281 13.808594 12.488281 C 13.890625 12.488281 13.96875 12.484375 14.054688 12.484375 C 14.320312 12.523438 14.433594 12.609375 14.625 12.796875 C 14.667969 12.9375 14.667969 12.9375 14.664062 13.078125 C 14.664062 13.125 14.664062 13.171875 14.664062 13.21875 C 14.605469 13.421875 14.507812 13.507812 14.34375 13.640625 C 14.152344 13.675781 14.152344 13.675781 13.929688 13.679688 C 13.847656 13.679688 13.761719 13.679688 13.675781 13.679688 C 13.589844 13.679688 13.5 13.679688 13.40625 13.679688 C 13.265625 13.679688 13.265625 13.679688 13.125 13.683594 C 12.929688 13.683594 12.734375 13.683594 12.539062 13.679688 C 12.289062 13.679688 12.039062 13.679688 11.789062 13.683594 C 11.550781 13.6875 11.3125 13.683594 11.074219 13.683594 C 10.984375 13.6875 10.894531 13.6875 10.800781 13.6875 C 10.109375 13.679688 10.109375 13.679688 9.894531 13.476562 C 9.746094 13.242188 9.71875 13.136719 9.773438 12.867188 C 9.957031 12.632812 10.058594 12.527344 10.359375 12.476562 C 10.488281 12.476562 10.488281 12.476562 10.621094 12.480469 C 10.667969 12.480469 10.714844 12.480469 10.761719 12.484375 C 10.90625 12.484375 11.054688 12.488281 11.203125 12.492188 C 11.300781 12.496094 11.402344 12.496094 11.5 12.5 C 11.746094 12.503906 11.988281 12.507812 12.234375 12.515625 C 12.234375 12.445312 12.234375 12.375 12.234375 12.304688 Z M 12.234375 12.304688 "/>
<path style=" stroke:none;fill-rule:nonzero;fill:rgb(34.117647%,61.960784%,83.921569%);fill-opacity:1;" d="M 23.695312 12.304688 C 23.730469 12.410156 23.730469 12.410156 23.765625 12.515625 C 23.855469 12.511719 23.855469 12.511719 23.945312 12.511719 C 24.167969 12.503906 24.390625 12.5 24.613281 12.496094 C 24.710938 12.496094 24.804688 12.492188 24.902344 12.488281 C 25.800781 12.460938 25.800781 12.460938 26.078125 12.679688 C 26.226562 12.867188 26.226562 12.867188 26.273438 13.078125 C 26.226562 13.292969 26.167969 13.414062 26.011719 13.566406 C 25.6875 13.742188 25.28125 13.6875 24.925781 13.683594 C 24.835938 13.683594 24.742188 13.683594 24.648438 13.683594 C 24.453125 13.6875 24.257812 13.683594 24.0625 13.683594 C 23.8125 13.679688 23.5625 13.679688 23.3125 13.683594 C 23.070312 13.683594 22.832031 13.679688 22.59375 13.679688 C 22.503906 13.679688 22.414062 13.679688 22.324219 13.679688 C 22.238281 13.679688 22.15625 13.679688 22.070312 13.679688 C 21.996094 13.675781 21.921875 13.675781 21.847656 13.675781 C 21.609375 13.632812 21.523438 13.546875 21.375 13.359375 C 21.335938 13.21875 21.335938 13.21875 21.335938 13.078125 C 21.332031 13.03125 21.332031 12.984375 21.332031 12.9375 C 21.402344 12.714844 21.535156 12.640625 21.726562 12.515625 C 21.945312 12.484375 21.945312 12.484375 22.191406 12.488281 C 22.277344 12.488281 22.367188 12.488281 22.457031 12.492188 C 22.546875 12.492188 22.640625 12.496094 22.734375 12.5 C 22.824219 12.5 22.917969 12.5 23.011719 12.5 C 23.242188 12.503906 23.46875 12.511719 23.695312 12.515625 C 23.695312 12.445312 23.695312 12.375 23.695312 12.304688 Z M 23.695312 12.304688 "/>
<path style=" stroke:none;fill-rule:nonzero;fill:rgb(33.72549%,61.960784%,83.921569%);fill-opacity:1;" d="M 18.078125 4.847656 C 18.3125 4.933594 18.410156 5.003906 18.5625 5.203125 C 18.59375 5.429688 18.59375 5.429688 18.589844 5.691406 C 18.589844 5.738281 18.589844 5.785156 18.589844 5.832031 C 18.585938 5.980469 18.582031 6.128906 18.578125 6.273438 C 18.578125 6.375 18.578125 6.476562 18.578125 6.578125 C 18.574219 6.820312 18.566406 7.066406 18.5625 7.3125 C 18.65625 7.335938 18.75 7.359375 18.84375 7.382812 C 18.75 7.382812 18.65625 7.382812 18.5625 7.382812 C 18.5625 7.441406 18.566406 7.5 18.566406 7.558594 C 18.574219 7.820312 18.578125 8.082031 18.578125 8.34375 C 18.582031 8.4375 18.585938 8.527344 18.585938 8.621094 C 18.589844 8.707031 18.589844 8.796875 18.589844 8.886719 C 18.589844 8.96875 18.59375 9.046875 18.59375 9.132812 C 18.554688 9.398438 18.46875 9.511719 18.28125 9.703125 C 18.140625 9.75 18.140625 9.75 18 9.746094 C 17.953125 9.746094 17.90625 9.75 17.859375 9.75 C 17.640625 9.675781 17.5625 9.542969 17.4375 9.351562 C 17.40625 9.132812 17.40625 9.132812 17.410156 8.886719 C 17.410156 8.800781 17.410156 8.710938 17.414062 8.621094 C 17.414062 8.53125 17.417969 8.4375 17.421875 8.34375 C 17.421875 8.253906 17.421875 8.160156 17.421875 8.066406 C 17.425781 7.835938 17.433594 7.609375 17.4375 7.382812 C 17.390625 7.359375 17.34375 7.335938 17.296875 7.3125 C 17.34375 7.3125 17.390625 7.3125 17.4375 7.3125 C 17.433594 7.25 17.433594 7.1875 17.429688 7.125 C 17.421875 6.894531 17.417969 6.660156 17.414062 6.429688 C 17.414062 6.332031 17.410156 6.230469 17.40625 6.132812 C 17.375 5.304688 17.375 5.304688 17.527344 5.058594 C 17.707031 4.898438 17.839844 4.851562 18.078125 4.847656 Z M 18.078125 4.847656 "/>
<path style=" stroke:none;fill-rule:nonzero;fill:rgb(34.117647%,62.352941%,83.921569%);fill-opacity:1;" d="M 18.210938 16.453125 C 18.390625 16.570312 18.460938 16.621094 18.5625 16.804688 C 18.613281 17.109375 18.609375 17.410156 18.605469 17.71875 C 18.605469 17.808594 18.605469 17.898438 18.605469 17.988281 C 18.605469 18.175781 18.601562 18.367188 18.601562 18.554688 C 18.597656 18.796875 18.597656 19.035156 18.597656 19.277344 C 18.597656 19.507812 18.597656 19.738281 18.59375 19.96875 C 18.59375 20.054688 18.59375 20.140625 18.59375 20.230469 C 18.59375 20.351562 18.59375 20.351562 18.59375 20.472656 C 18.589844 20.542969 18.589844 20.617188 18.589844 20.6875 C 18.558594 20.914062 18.484375 21.050781 18.351562 21.234375 C 18.152344 21.332031 18.007812 21.320312 17.789062 21.304688 C 17.570312 21.179688 17.519531 21.128906 17.4375 20.882812 C 17.429688 20.753906 17.425781 20.621094 17.425781 20.488281 C 17.421875 20.410156 17.421875 20.328125 17.421875 20.246094 C 17.417969 19.878906 17.414062 19.511719 17.414062 19.144531 C 17.410156 18.949219 17.410156 18.757812 17.40625 18.5625 C 17.402344 18.28125 17.402344 18.003906 17.402344 17.722656 C 17.398438 17.636719 17.398438 17.550781 17.394531 17.460938 C 17.398438 16.792969 17.398438 16.792969 17.601562 16.574219 C 17.835938 16.425781 17.941406 16.398438 18.210938 16.453125 Z M 18.210938 16.453125 "/>
</g>
</svg>
