<?xml version="1.0" encoding="UTF-8"?>
<svg xmlns="http://www.w3.org/2000/svg" xmlns:xlink="http://www.w3.org/1999/xlink" width="36px" height="36px" viewBox="0 0 36 36" version="1.1">
<g id="surface1">
<path style=" stroke:none;fill-rule:nonzero;fill:rgb(99.215686%,9.019608%,3.137255%);fill-opacity:1;" d="M 17.578125 1.6875 L 18.386719 1.6875 L 18.914062 1.722656 L 19.582031 1.792969 L 20.195312 1.898438 L 20.882812 2.054688 L 21.410156 2.214844 L 22.023438 2.425781 L 22.605469 2.671875 L 23.117188 2.917969 L 23.609375 3.179688 L 24.011719 3.429688 L 24.273438 3.601562 L 24.574219 3.8125 L 24.855469 4.023438 L 25.101562 4.21875 L 25.328125 4.414062 L 25.507812 4.570312 L 25.648438 4.695312 L 25.875 4.90625 L 26.191406 5.21875 L 26.3125 5.359375 L 26.542969 5.609375 L 26.703125 5.800781 L 26.929688 6.082031 L 27.140625 6.363281 L 27.386719 6.714844 L 27.667969 7.15625 L 27.859375 7.488281 L 28.070312 7.875 L 28.300781 8.332031 L 28.511719 8.824219 L 28.6875 9.28125 L 28.882812 9.859375 L 29.054688 10.511719 L 29.195312 11.195312 L 29.285156 11.8125 L 29.335938 12.359375 L 29.355469 12.65625 L 29.355469 14.027344 L 29.320312 14.695312 L 29.25 15.453125 L 29.125 16.367188 L 28.984375 17.15625 L 28.792969 18.035156 L 28.601562 18.789062 L 28.390625 19.492188 L 28.140625 20.25 L 27.898438 20.917969 L 27.617188 21.621094 L 27.296875 22.34375 L 27.070312 22.835938 L 26.71875 23.554688 L 26.402344 24.152344 L 26.171875 24.574219 L 26.015625 24.835938 L 25.75 25.296875 L 25.488281 25.71875 L 25.257812 26.085938 L 24.625 27.035156 L 24.503906 27.210938 L 24.292969 27.507812 L 24.0625 27.828125 L 23.640625 28.390625 L 23.46875 28.617188 L 23.257812 28.882812 L 23.0625 29.125 L 22.746094 29.515625 L 22.554688 29.742188 L 22.394531 29.9375 L 22.164062 30.199219 L 21.601562 30.832031 L 21.410156 31.042969 L 21.199219 31.273438 L 21.078125 31.394531 L 20.953125 31.535156 L 20.636719 31.851562 L 20.515625 31.992188 L 20.023438 32.484375 L 19.882812 32.609375 L 19.632812 32.851562 L 19.492188 32.976562 L 19.371094 33.101562 L 19.230469 33.222656 L 18.96875 33.46875 L 18.828125 33.59375 L 18.648438 33.75 L 18.457031 33.90625 L 18.210938 34.117188 L 18.015625 34.277344 L 17.929688 34.296875 L 17.753906 34.136719 L 17.578125 33.996094 L 17.351562 33.804688 L 17.140625 33.609375 L 16.945312 33.453125 L 16.820312 33.328125 L 16.679688 33.203125 L 16.101562 32.660156 L 15.875 32.429688 L 15.734375 32.308594 L 15.3125 31.886719 L 15.1875 31.746094 L 14.90625 31.464844 L 14.78125 31.324219 L 14.640625 31.183594 L 14.519531 31.042969 L 14.378906 30.902344 L 14.257812 30.761719 L 14.097656 30.585938 L 13.976562 30.445312 L 13.816406 30.269531 L 13.65625 30.078125 L 13.5 29.898438 L 13.34375 29.707031 L 13.132812 29.460938 L 12.9375 29.214844 L 12.742188 28.984375 L 12.390625 28.53125 L 12.148438 28.210938 L 11.917969 27.898438 L 11.707031 27.617188 L 11.214844 26.914062 L 11.039062 26.648438 L 10.632812 26.03125 L 10.492188 25.804688 L 10.28125 25.46875 L 10.054688 25.085938 L 9.789062 24.625 L 9.5625 24.222656 L 9.335938 23.78125 L 9.15625 23.449219 L 8.859375 22.851562 L 8.632812 22.359375 L 8.4375 21.921875 L 8.242188 21.460938 L 8.015625 20.882812 L 7.734375 20.109375 L 7.488281 19.351562 L 7.3125 18.738281 L 7.136719 18.070312 L 6.976562 17.351562 L 6.855469 16.71875 L 6.734375 15.90625 L 6.644531 15.152344 L 6.59375 14.484375 L 6.554688 13.726562 L 6.554688 12.867188 L 6.59375 12.25 L 6.664062 11.617188 L 6.765625 10.984375 L 6.90625 10.351562 L 7.046875 9.84375 L 7.257812 9.210938 L 7.507812 8.59375 L 7.734375 8.101562 L 7.910156 7.75 L 8.140625 7.347656 L 8.367188 6.976562 L 8.523438 6.734375 L 8.703125 6.484375 L 8.894531 6.222656 L 9.070312 5.992188 L 9.265625 5.765625 L 9.421875 5.570312 L 9.617188 5.359375 L 9.703125 5.257812 L 9.738281 5.257812 L 9.773438 5.1875 L 10.195312 4.765625 L 10.335938 4.640625 L 10.5625 4.429688 L 10.757812 4.273438 L 11.039062 4.042969 L 11.355469 3.8125 L 11.65625 3.601562 L 12.007812 3.375 L 12.304688 3.199219 L 12.585938 3.039062 L 13.0625 2.796875 L 13.554688 2.566406 L 14.097656 2.355469 L 14.730469 2.144531 L 15.257812 2.003906 L 15.734375 1.898438 L 16.347656 1.792969 L 16.980469 1.722656 Z M 17.578125 1.6875 "/>
<path style=" stroke:none;fill-rule:nonzero;fill:rgb(98.823529%,70.980392%,32.54902%);fill-opacity:1;" d="M 17.964844 4.867188 L 18.140625 4.886719 L 18.367188 5.007812 L 18.476562 5.148438 L 18.546875 5.328125 L 18.5625 6.03125 L 18.5625 7.328125 L 18.929688 7.382812 L 19.421875 7.488281 L 19.863281 7.609375 L 20.355469 7.804688 L 20.8125 8.03125 L 21.179688 8.261719 L 21.480469 8.472656 L 21.640625 8.613281 L 21.78125 8.71875 L 22.007812 8.929688 L 22.273438 9.195312 L 22.429688 9.386719 L 22.570312 9.546875 L 22.796875 9.859375 L 22.992188 10.179688 L 23.203125 10.5625 L 23.414062 11.054688 L 23.554688 11.496094 L 23.660156 11.917969 L 23.75 12.445312 L 23.75 12.53125 L 25.734375 12.53125 L 25.890625 12.585938 L 26.050781 12.691406 L 26.15625 12.851562 L 26.210938 13.023438 L 26.210938 13.148438 L 26.15625 13.324219 L 26.050781 13.484375 L 25.910156 13.585938 L 25.71875 13.640625 L 23.78125 13.65625 L 23.75 13.765625 L 23.625 14.398438 L 23.519531 14.800781 L 23.34375 15.292969 L 23.203125 15.609375 L 22.992188 15.996094 L 22.816406 16.277344 L 22.640625 16.523438 L 22.464844 16.75 L 22.253906 17 L 21.796875 17.453125 L 21.621094 17.59375 L 21.390625 17.773438 L 20.988281 18.035156 L 20.601562 18.246094 L 20.265625 18.40625 L 19.84375 18.5625 L 19.492188 18.667969 L 19.019531 18.773438 L 18.6875 18.828125 L 18.5625 18.828125 L 18.5625 20.726562 L 18.527344 20.9375 L 18.421875 21.109375 L 18.226562 21.25 L 18.015625 21.304688 L 17.84375 21.289062 L 17.683594 21.21875 L 17.59375 21.148438 L 17.492188 20.988281 L 17.453125 20.882812 L 17.4375 20.671875 L 17.421875 18.84375 L 16.859375 18.757812 L 16.296875 18.617188 L 15.804688 18.4375 L 15.292969 18.195312 L 15.011719 18.035156 L 14.695312 17.824219 L 14.5 17.683594 L 14.21875 17.453125 L 14.007812 17.261719 L 13.695312 16.945312 L 13.570312 16.804688 L 13.359375 16.539062 L 13.078125 16.117188 L 12.867188 15.75 L 12.710938 15.414062 L 12.570312 15.0625 L 12.429688 14.625 L 12.320312 14.1875 L 12.234375 13.65625 L 10.210938 13.640625 L 10.039062 13.570312 L 9.929688 13.484375 L 9.84375 13.34375 L 9.789062 13.183594 L 9.789062 12.972656 L 9.859375 12.8125 L 9.96875 12.671875 L 10.054688 12.601562 L 10.28125 12.53125 L 12.234375 12.515625 L 12.359375 11.867188 L 12.445312 11.496094 L 12.621094 10.96875 L 12.8125 10.53125 L 13.023438 10.140625 L 13.253906 9.789062 L 13.464844 9.507812 L 13.675781 9.265625 L 13.796875 9.125 L 14.117188 8.804688 L 14.308594 8.648438 L 14.589844 8.421875 L 14.941406 8.191406 L 15.1875 8.050781 L 15.59375 7.839844 L 15.925781 7.699219 L 16.453125 7.523438 L 16.910156 7.417969 L 17.296875 7.347656 L 17.4375 7.347656 L 17.4375 5.359375 L 17.492188 5.203125 L 17.5625 5.097656 L 17.632812 5.007812 L 17.773438 4.921875 Z M 17.964844 4.867188 "/>
<path style=" stroke:none;fill-rule:nonzero;fill:rgb(99.607843%,9.019608%,3.137255%);fill-opacity:1;" d="M 17.789062 11.546875 L 18.195312 11.546875 L 18.492188 11.617188 L 18.773438 11.742188 L 18.96875 11.867188 L 19.160156 12.039062 L 19.320312 12.269531 L 19.441406 12.515625 L 19.53125 12.796875 L 19.5625 13.09375 L 19.53125 13.375 L 19.441406 13.65625 L 19.300781 13.9375 L 19.179688 14.097656 L 18.96875 14.308594 L 18.71875 14.46875 L 18.457031 14.570312 L 18.246094 14.625 L 18.085938 14.640625 L 17.914062 14.640625 L 17.613281 14.589844 L 17.367188 14.5 L 17.191406 14.414062 L 17 14.273438 L 16.804688 14.078125 L 16.628906 13.816406 L 16.523438 13.570312 L 16.453125 13.234375 L 16.453125 12.9375 L 16.507812 12.65625 L 16.59375 12.429688 L 16.699219 12.234375 L 16.859375 12.039062 L 17.015625 11.882812 L 17.28125 11.707031 L 17.542969 11.601562 Z M 17.789062 11.546875 "/>
<path style=" stroke:none;fill-rule:nonzero;fill:rgb(33.333333%,61.568627%,83.529412%);fill-opacity:1;" d="M 17.964844 4.867188 L 18.140625 4.886719 L 18.367188 5.007812 L 18.476562 5.148438 L 18.546875 5.328125 L 18.5625 6.03125 L 18.5625 9.246094 L 18.527344 9.40625 L 18.421875 9.5625 L 18.28125 9.6875 L 18.140625 9.738281 L 17.875 9.738281 L 17.703125 9.667969 L 17.5625 9.546875 L 17.472656 9.40625 L 17.421875 9.140625 L 17.421875 7.769531 L 17.4375 5.359375 L 17.492188 5.203125 L 17.5625 5.097656 L 17.632812 5.007812 L 17.773438 4.921875 Z M 17.964844 4.867188 "/>
<path style=" stroke:none;fill-rule:nonzero;fill:rgb(33.333333%,61.568627%,83.529412%);fill-opacity:1;" d="M 17.875 16.4375 L 18.125 16.4375 L 18.335938 16.539062 L 18.476562 16.679688 L 18.546875 16.804688 L 18.5625 17.226562 L 18.5625 20.726562 L 18.527344 20.9375 L 18.421875 21.109375 L 18.226562 21.25 L 18.015625 21.304688 L 17.84375 21.289062 L 17.683594 21.21875 L 17.59375 21.148438 L 17.492188 20.988281 L 17.453125 20.882812 L 17.4375 20.671875 L 17.421875 18.789062 L 17.421875 17.492188 L 17.4375 16.929688 L 17.453125 16.804688 L 17.5625 16.628906 L 17.773438 16.46875 Z M 17.875 16.4375 "/>
<path style=" stroke:none;fill-rule:nonzero;fill:rgb(33.333333%,61.568627%,83.529412%);fill-opacity:1;" d="M 10.28125 12.53125 L 14.1875 12.53125 L 14.378906 12.601562 L 14.554688 12.761719 L 14.640625 12.9375 L 14.660156 13.164062 L 14.609375 13.34375 L 14.539062 13.445312 L 14.378906 13.585938 L 14.1875 13.640625 L 13.992188 13.65625 L 12.234375 13.65625 L 10.210938 13.640625 L 10.039062 13.570312 L 9.929688 13.484375 L 9.84375 13.34375 L 9.789062 13.183594 L 9.789062 12.972656 L 9.859375 12.8125 L 9.96875 12.671875 L 10.054688 12.601562 Z M 10.28125 12.53125 "/>
<path style=" stroke:none;fill-rule:nonzero;fill:rgb(33.333333%,61.568627%,83.529412%);fill-opacity:1;" d="M 21.8125 12.53125 L 25.734375 12.53125 L 25.890625 12.585938 L 26.050781 12.691406 L 26.15625 12.851562 L 26.210938 13.023438 L 26.210938 13.148438 L 26.15625 13.324219 L 26.050781 13.484375 L 25.910156 13.585938 L 25.71875 13.640625 L 23.679688 13.65625 L 22.816406 13.65625 L 21.796875 13.640625 L 21.640625 13.605469 L 21.5 13.484375 L 21.390625 13.34375 L 21.339844 13.183594 L 21.339844 13.023438 L 21.390625 12.832031 L 21.460938 12.726562 L 21.5 12.726562 L 21.515625 12.671875 L 21.601562 12.601562 Z M 21.8125 12.53125 "/>
</g>
</svg>
