<svg width="36" height="36" viewBox="0 0 36 36" fill="none" xmlns="http://www.w3.org/2000/svg">
<path opacity="0.4" d="M26.97 16.185V22.185C26.97 22.575 26.955 22.95 26.91 23.31C26.565 27.36 24.18 29.37 19.785 29.37H19.185C18.81 29.37 18.45 29.55 18.225 29.85L16.425 32.25C15.63 33.315 14.34 33.315 13.545 32.25L11.745 29.85C11.55 29.595 11.115 29.37 10.785 29.37H10.185C5.40001 29.37 3 28.185 3 22.185V16.185C3 11.79 5.02501 9.40501 9.06001 9.06001C9.42001 9.01501 9.79501 9 10.185 9H19.785C24.57 9 26.97 11.4 26.97 16.185Z" fill="#292D32"/>
<path d="M14.9854 21C14.1454 21 13.4854 20.325 13.4854 19.5C13.4854 18.675 14.1604 18 14.9854 18C15.8103 18 16.4853 18.675 16.4853 19.5C16.4853 20.325 15.8253 21 14.9854 21Z" fill="#292D32"/>
<path d="M20.2354 21C19.3954 21 18.7354 20.325 18.7354 19.5C18.7354 18.675 19.4104 18 20.2354 18C21.0604 18 21.7354 18.675 21.7354 19.5C21.7354 20.325 21.0604 21 20.2354 21Z" fill="#292D32"/>
<path d="M9.75 21C8.91 21 8.25 20.325 8.25 19.5C8.25 18.675 8.925 18 9.75 18C10.575 18 11.25 18.675 11.25 19.5C11.25 20.325 10.575 21 9.75 21Z" fill="#292D32"/>
<path d="M32.9687 10.185V16.185C32.9687 20.595 30.9437 22.965 26.9087 23.31C26.9537 22.95 26.9687 22.575 26.9687 22.185V16.185C26.9687 11.4 24.5687 9 19.7837 9H10.1836C9.79359 9 9.41859 9.01501 9.05859 9.06001C9.40359 5.02501 11.7886 3 16.1837 3H25.7837C30.5687 3 32.9687 5.40001 32.9687 10.185Z" fill="#292D32"/>
</svg>
