<svg width="24" height="24" viewBox="0 0 24 24" fill="none" xmlns="http://www.w3.org/2000/svg">
<path d="M16.1898 2H7.81976C4.17976 2 2.00977 4.17 2.00977 7.81V16.18C2.00977 19.82 4.17976 21.99 7.81976 21.99H16.1898C19.8298 21.99 21.9998 19.82 21.9998 16.18V7.81C21.9998 4.17 19.8298 2 16.1898 2Z" fill="#A9ABAD"/>
<path d="M10.1103 11.1504H7.4603C6.8303 11.1504 6.32031 11.6603 6.32031 12.2903V17.4103H10.1103V11.1504Z" fill="black"/>
<path opacity="0.4" d="M12.7596 6.60059H11.2396C10.6096 6.60059 10.0996 7.1106 10.0996 7.7406V17.4006H13.8896V7.7406C13.8896 7.1106 13.3896 6.60059 12.7596 6.60059Z" fill="black"/>
<path d="M16.5504 12.8506H13.9004V17.4006H17.6904V13.9906C17.6804 13.3606 17.1704 12.8506 16.5504 12.8506Z" fill="black"/>
</svg>
