<svg width="24" height="24" viewBox="0 0 24 24" fill="none" xmlns="http://www.w3.org/2000/svg">
<path d="M21.0802 8.58003V15.42C21.0802 16.54 20.4802 17.58 19.5102 18.15L13.5702 21.58C12.6002 22.14 11.4002 22.14 10.4202 21.58L4.48016 18.15C3.51016 17.59 2.91016 16.55 2.91016 15.42V8.58003C2.91016 7.46003 3.51016 6.41999 4.48016 5.84999L10.4202 2.42C11.3902 1.86 12.5902 1.86 13.5702 2.42L19.5102 5.84999C20.4802 6.41999 21.0802 7.45003 21.0802 8.58003Z" fill="#A9ABAD"/>
<path d="M11.9999 11.9999C13.2867 11.9999 14.3299 10.9567 14.3299 9.66979C14.3299 8.38297 13.2867 7.33984 11.9999 7.33984C10.7131 7.33984 9.66992 8.38297 9.66992 9.66979C9.66992 10.9567 10.7131 11.9999 11.9999 11.9999Z" fill="black"/>
<path d="M14.6792 16.6604C15.4892 16.6604 15.9592 15.7604 15.5092 15.0904C14.8292 14.0804 13.5092 13.4004 11.9992 13.4004C10.4892 13.4004 9.16919 14.0804 8.48919 15.0904C8.03919 15.7604 8.50919 16.6604 9.31919 16.6604H14.6792Z" fill="black"/>
</svg>
