<svg width="18" height="18" viewBox="0 0 18 18" fill="none" xmlns="http://www.w3.org/2000/svg">
<path d="M16.1445 6.21309L10.4528 0.659336C9.9585 0.164336 9.2475 -0.0779137 8.55675 0.0210863L3.39075 0.727586C2.9805 0.783836 2.69325 1.16184 2.7495 1.57209C2.80575 1.98234 3.183 2.26884 3.59475 2.21334L8.7615 1.50684C8.991 1.47534 9.228 1.55409 9.39975 1.72584L15.0923 7.27959C15.876 8.06334 15.9525 9.28959 15.3345 10.1648C15.159 9.81459 14.9423 9.48084 14.6513 9.18984L9.045 3.63084C8.5515 3.13734 7.84725 2.89959 7.149 2.99259L1.98225 3.69909C1.64175 3.74559 1.37625 4.01784 1.33875 4.35984L0.765004 9.54684C0.690004 10.2301 0.925504 10.8998 1.413 11.3866L6.975 16.9013C7.683 17.6101 8.62425 17.9993 9.6255 17.9993H9.63825C10.6448 17.9963 11.5883 17.6003 12.2955 16.8841L14.6708 14.4781C15.366 13.7738 15.7155 12.8588 15.738 11.9371L16.1708 11.5051C17.6145 10.0426 17.6063 7.67109 16.1468 6.21234L16.1445 6.21309ZM4.5 7.50009C4.086 7.50009 3.75 7.16409 3.75 6.75009C3.7545 5.76909 5.2455 5.76984 5.25 6.75009C5.25 7.16409 4.914 7.50009 4.5 7.50009Z" fill="#ffffff"/>
</svg>
