<svg width="18" height="19" viewBox="0 0 18 19" fill="none" xmlns="http://www.w3.org/2000/svg">
<g clip-path="url(#clip0_698_1018)">
<path d="M18 2.74998V4.99998C18 6.24048 16.9905 7.24998 15.75 7.24998H13.7648L12.1695 8.53248C11.964 8.67648 11.7413 8.74698 11.5245 8.74698C11.3632 8.74698 11.205 8.70798 11.0588 8.63223C10.716 8.45373 10.503 8.10273 10.5015 7.71648V2.75148C10.5 1.51098 11.5095 0.501481 12.75 0.500731H15.7493C16.3507 0.500731 16.9155 0.734731 17.34 1.15923C17.7645 1.58373 17.9993 2.14923 17.9993 2.75073L18 2.74998ZM15.4913 11.642C14.5965 10.7855 13.1737 10.7885 12.2812 11.6465L10.8517 12.851C8.45325 11.8332 6.74625 10.1232 5.65275 7.64223L6.85275 6.21948C7.2705 5.78523 7.5 5.21523 7.5 4.61073C7.5 4.00623 7.272 3.44148 6.85725 3.00723C6.85725 3.00723 5.46825 1.20198 5.445 1.17873C4.53975 0.273481 3.0675 0.274231 2.19975 1.14348L1.33725 1.89648C0.47475 2.75898 0 3.92373 0 5.17848C0 10.9055 7.5945 18.5 13.3215 18.5C14.5762 18.5 15.7418 18.0245 16.6373 17.1252L17.3212 16.3377C18.225 15.4325 18.225 13.9595 17.3212 13.0542C17.298 13.0317 15.4913 11.642 15.4913 11.642Z" fill="#ACACAC"/>
</g>
<defs>
<clipPath id="clip0_698_1018">
<rect width="18" height="18" fill="white" transform="translate(0 0.5)"/>
</clipPath>
</defs>
</svg>
