<svg width="18" height="18" viewBox="0 0 18 18" fill="none" xmlns="http://www.w3.org/2000/svg">
<g clip-path="url(#clip0_698_5135)">
<path d="M6.75 6.75H1.5C0.67275 6.75 0 6.07725 0 5.25V3.75C0 1.68225 1.68225 0 3.75 0H6.75C7.57725 0 8.25 0.67275 8.25 1.5V5.25C8.25 6.07725 7.57725 6.75 6.75 6.75ZM14.25 18H11.25C10.4227 18 9.75 17.3272 9.75 16.5V12.75C9.75 11.9227 10.4227 11.25 11.25 11.25H16.5C17.3272 11.25 18 11.9227 18 12.75V14.25C18 16.3177 16.3177 18 14.25 18ZM16.5 9.75H11.25C10.4227 9.75 9.75 9.07725 9.75 8.25V1.5C9.75 0.67275 10.4227 0 11.25 0H14.25C16.3177 0 18 1.68225 18 3.75V8.25C18 9.07725 17.3272 9.75 16.5 9.75ZM6.75 18H3.75C1.68225 18 0 16.3177 0 14.25V9.75C0 8.92275 0.67275 8.25 1.5 8.25H6.75C7.57725 8.25 8.25 8.92275 8.25 9.75V16.5C8.25 17.3272 7.57725 18 6.75 18Z" fill="#ffffff"/>
</g>
<defs>
<clipPath id="clip0_698_5135">
<rect width="18" height="18" fill="white"/>
</clipPath>
</defs>
</svg>
