<svg width="18" height="18" viewBox="0 0 18 18" fill="none" xmlns="http://www.w3.org/2000/svg">
<path d="M0.75 4.5C0.75 2.43225 2.43225 0.75 4.5 0.75C6.56775 0.75 8.25 2.43225 8.25 4.5C8.25 6.56775 6.56775 8.25 4.5 8.25C2.43225 8.25 0.75 6.56775 0.75 4.5ZM17.25 2.694V0.75C17.25 0.55125 17.1713 0.36 17.0303 0.21975C16.8892 0.0795 16.6987 0 16.5 0C16.1655 0 15.771 0.22125 15.6788 0.543C15.5018 1.16025 14.994 1.5 14.25 1.5H12.75C11.5095 1.5 10.5 2.5095 10.5 3.75C10.5 4.27125 10.6853 4.74525 10.9838 5.127L12.3135 8.211L11.058 9.51975C10.917 9.666 10.7198 9.75075 10.5165 9.75075H4.5C2.0145 9.75075 0 11.7652 0 14.2507V17.2507C0 17.6647 0.336 18.0007 0.75 18.0007H7.5C7.914 18.0007 8.25 17.6647 8.25 17.2507V12.0007L11.388 11.073C11.6693 10.9552 11.9265 10.7812 12.1403 10.5585L14.0782 8.51925V8.5185C14.1923 8.37375 14.253 8.202 14.2455 8.028C14.2597 7.85475 14.2305 7.6785 14.1578 7.5135L13.5653 6.0015H14.2493C14.9933 6.0015 15.501 6.34125 15.678 6.9585C15.7702 7.28025 16.164 7.5015 16.4985 7.5015C16.9125 7.5015 17.2485 7.1655 17.2485 6.7515V4.8075C17.6842 4.65225 17.9993 4.23975 17.9993 3.7515C17.9993 3.26325 17.685 2.85075 17.2493 2.6955L17.25 2.694Z" fill="#ACACAC"/>
</svg>
