<svg width="18" height="18" viewBox="0 0 18 18" fill="none" xmlns="http://www.w3.org/2000/svg">
<g clip-path="url(#clip0_698_5143)">
<path d="M18 16.5C18 16.6989 17.921 16.8896 17.7803 17.0303C17.6397 17.1709 17.4489 17.25 17.25 17.25H0.75C0.551088 17.25 0.360322 17.1709 0.21967 17.0303C0.0790176 16.8896 0 16.6989 0 16.5C0 16.301 0.0790176 16.1103 0.21967 15.9696C0.360322 15.829 0.551088 15.75 0.75 15.75H17.25C17.4489 15.75 17.6397 15.829 17.7803 15.9696C17.921 16.1103 18 16.301 18 16.5ZM1.5 14.25H16.5C16.6989 14.25 16.8897 14.1709 17.0303 14.0303C17.171 13.8896 17.25 13.6989 17.25 13.5V12.75C17.2473 10.6929 16.4769 8.71102 15.0897 7.19217C13.7025 5.67331 11.7983 4.7269 9.75 4.5382V3.5422C10.036 3.3771 10.2595 3.12226 10.3858 2.81719C10.5122 2.51212 10.5344 2.17389 10.4489 1.85494C10.3634 1.53599 10.1751 1.25415 9.91314 1.05313C9.65118 0.85212 9.3302 0.743164 9 0.743164C8.6698 0.743164 8.34882 0.85212 8.08686 1.05313C7.82489 1.25415 7.63657 1.53599 7.55111 1.85494C7.46565 2.17389 7.48782 2.51212 7.61418 2.81719C7.74054 3.12226 7.96404 3.3771 8.25 3.5422V4.5382C6.20167 4.7269 4.29751 5.67331 2.9103 7.19217C1.5231 8.71102 0.752723 10.6929 0.75 12.75V13.5C0.75 13.6989 0.829018 13.8896 0.96967 14.0303C1.11032 14.1709 1.30109 14.25 1.5 14.25Z" fill="#ffffff"/>
</g>
<defs>
<clipPath id="clip0_698_5143">
<rect width="18" height="18" fill="white"/>
</clipPath>
</defs>
</svg>
