<svg width="18" height="19" viewBox="0 0 18 19" fill="none" xmlns="http://www.w3.org/2000/svg">
<g clip-path="url(#clip0_698_988)">
<path d="M0 14V4.25C0 2.5955 1.3455 1.25 3 1.25H4.5C4.848 1.25 5.196 1.33175 5.5065 1.487L7.87275 2.6705C7.97625 2.72225 8.0925 2.74925 8.208 2.74925H12C14.0677 2.74925 15.75 4.4315 15.75 6.49925H7.518C5.5395 6.49925 3.76575 7.82375 3.2025 9.7265L1.19775 16.7308C0.465 16.046 0 15.0793 0 14ZM17.6198 8.76275C17.2605 8.2805 16.713 8.00375 16.1138 7.994C16.1025 7.994 16.0935 8 16.0823 8H7.518C6.1995 8 5.01675 8.88275 4.6425 10.1465L2.529 17.5287C2.91375 17.6623 3.32025 17.75 3.75 17.75H13.1685C14.838 17.75 16.281 16.676 16.77 15.0448L17.919 10.4578C18.0945 9.87125 17.985 9.254 17.6198 8.76275Z" fill="#ACACAC"/>
</g>
<defs>
<clipPath id="clip0_698_988">
<rect width="18" height="18" fill="white" transform="translate(0 0.5)"/>
</clipPath>
</defs>
</svg>
