<svg width="18" height="19" viewBox="0 0 18 19" fill="none" xmlns="http://www.w3.org/2000/svg">
<g clip-path="url(#clip0_698_1000)">
<path d="M6 15.5C6.82875 15.5 7.5 16.1713 7.5 17C7.5 17.8288 6.82875 18.5 6 18.5C5.17125 18.5 4.5 17.8288 4.5 17C4.5 16.1713 5.17125 15.5 6 15.5ZM7.77 5.40275C7.629 5.3315 7.47 5.40725 7.461 5.585V8.91575C7.47825 9.092 7.608 9.1685 7.77 9.098L10.7677 7.43225C10.9178 7.32875 10.9178 7.17125 10.7677 7.0685L7.77 5.40275ZM18 4.25V10.25C18 12.3177 16.3177 14 14.25 14H3.75C1.68225 14 0 12.3177 0 10.25V4.25C0 2.18225 1.68225 0.5 3.75 0.5H14.25C16.3177 0.5 18 2.18225 18 4.25ZM12.375 7.25C12.375 6.6305 12.0382 6.05825 11.4967 5.75675L8.499 4.091C7.416 3.44075 5.919 4.32125 5.961 5.58425V8.915C5.91825 10.178 7.416 11.0578 8.499 10.4083L11.4975 8.7425C12.039 8.441 12.3757 7.86875 12.3757 7.24925L12.375 7.25ZM18 17C18 16.5853 17.664 16.25 17.25 16.25H9.75C9.336 16.25 9 16.5853 9 17C9 17.4147 9.336 17.75 9.75 17.75H17.25C17.664 17.75 18 17.4147 18 17ZM3 17C3 16.5853 2.664 16.25 2.25 16.25H0.75C0.336 16.25 0 16.5853 0 17C0 17.4147 0.336 17.75 0.75 17.75H2.25C2.664 17.75 3 17.4147 3 17Z" fill="#ffffff"/>
</g>
<defs>
<clipPath id="clip0_698_1000">
<rect width="18" height="18" fill="white" transform="translate(0 0.5)"/>
</clipPath>
</defs>
</svg>
