<svg width="18" height="19" viewBox="0 0 18 19" fill="none" xmlns="http://www.w3.org/2000/svg">
<g clip-path="url(#clip0_698_978)">
<path d="M1.20527 14C1.82564 15.0767 3.2014 15.4466 4.2781 14.8262C4.27884 14.8258 4.27954 14.8254 4.28028 14.825L4.61402 14.6322C5.24402 15.1712 5.96817 15.5892 6.75001 15.8652V16.25C6.75001 17.4926 7.75737 18.5 9.00001 18.5C10.2426 18.5 11.25 17.4926 11.25 16.25V15.8652C12.032 15.5888 12.7561 15.1703 13.386 14.6307L13.7212 14.8242C14.7982 15.4456 16.1749 15.0762 16.7963 13.9992C17.4176 12.9223 17.0482 11.5455 15.9712 10.9242L15.6382 10.7322C15.7882 9.91657 15.7882 9.08041 15.6382 8.26472L15.9712 8.07273C17.0482 7.45141 17.4176 6.07469 16.7963 4.99771C16.1749 3.92077 14.7982 3.55139 13.7212 4.1727L13.3875 4.36546C12.7569 3.82712 12.0322 3.40988 11.25 3.13475V2.75C11.25 1.50737 10.2426 0.5 9.00001 0.5C7.75737 0.5 6.75001 1.50737 6.75001 2.75V3.13475C5.96806 3.41118 5.24388 3.82968 4.61402 4.36926L4.27877 4.17502C3.20179 3.55367 1.82507 3.92306 1.20376 5C0.58244 6.07694 0.951791 7.4537 2.02877 8.07501L2.36177 8.267C2.21186 9.08266 2.21186 9.91882 2.36177 10.7345L2.02877 10.9265C0.95478 11.5495 0.586623 12.9235 1.20527 14ZM9.00001 6.50001C10.6568 6.50001 12 7.84316 12 9.5C12 11.1568 10.6568 12.5 9.00001 12.5C7.34316 12.5 6.00002 11.1568 6.00002 9.5C6.00002 7.84316 7.34316 6.50001 9.00001 6.50001Z" fill="#ACACAC"/>
</g>
<defs>
<clipPath id="clip0_698_978">
<rect width="18" height="18" fill="white" transform="translate(0 0.5)"/>
</clipPath>
</defs>
</svg>
