<svg width="18" height="19" viewBox="0 0 18 19" fill="none" xmlns="http://www.w3.org/2000/svg">
<g clip-path="url(#clip0_698_983)">
<path d="M14.25 2.75H3.75C2.7558 2.75119 1.80267 3.14666 1.09966 3.84967C0.396661 4.55267 0.00119089 5.5058 0 6.5H18C17.9988 5.5058 17.6033 4.55267 16.9003 3.84967C16.1973 3.14666 15.2442 2.75119 14.25 2.75Z" fill="#ffffff"/>
<path d="M0 12.5C0.00119089 13.4942 0.396661 14.4473 1.09966 15.1503C1.80267 15.8533 2.7558 16.2488 3.75 16.25H14.25C15.2442 16.2488 16.1973 15.8533 16.9003 15.1503C17.6033 14.4473 17.9988 13.4942 18 12.5V8H0V12.5ZM5.25 12.125C5.25 12.3475 5.18402 12.565 5.0604 12.75C4.93679 12.935 4.76109 13.0792 4.55552 13.1644C4.34995 13.2495 4.12375 13.2718 3.90552 13.2284C3.68729 13.185 3.48684 13.0778 3.3295 12.9205C3.17217 12.7632 3.06502 12.5627 3.02162 12.3445C2.97821 12.1262 3.00049 11.9 3.08564 11.6945C3.17078 11.4889 3.31498 11.3132 3.49998 11.1896C3.68499 11.066 3.9025 11 4.125 11C4.42337 11 4.70952 11.1185 4.9205 11.3295C5.13147 11.5405 5.25 11.8266 5.25 12.125Z" fill="#ffffff"/>
</g>
<defs>
<clipPath id="clip0_698_983">
<rect width="18" height="18" fill="white" transform="translate(0 0.5)"/>
</clipPath>
</defs>
</svg>
