<svg width="18" height="19" viewBox="0 0 18 19" fill="none" xmlns="http://www.w3.org/2000/svg">
<g clip-path="url(#clip0_698_1014)">
<path d="M15 6.5C13.3425 6.5 12 5.1575 12 3.5C12 1.8425 13.3425 0.5 15 0.5C16.6575 0.5 18 1.8425 18 3.5C18 5.1575 16.6575 6.5 15 6.5ZM9 12.065C9.5775 12.065 10.155 11.8475 10.59 11.405L14.0925 7.9025C12.045 7.4825 10.5 5.6675 10.5 3.4925C10.5 3.2375 10.53 2.99 10.5675 2.7425H3.75C2.3925 2.7425 1.215 3.47 0.555 4.55L7.41 11.4125C7.845 11.8475 8.4225 12.0725 9 12.0725V12.065ZM16.32 7.7975L11.6475 12.47C10.92 13.1975 9.9525 13.565 8.9925 13.565C8.0325 13.565 7.0725 13.1975 6.3375 12.47L0.0375 6.155C0.03 6.2675 0 6.38 0 6.5V14.75C0 16.82 1.68 18.5 3.75 18.5H14.25C16.32 18.5 18 16.82 18 14.75L17.985 6.8525C17.505 7.28 16.9425 7.6025 16.32 7.7975Z" fill="#ffffff"/>
</g>
<defs>
<clipPath id="clip0_698_1014">
<rect width="18" height="18" fill="white" transform="translate(0 0.5)"/>
</clipPath>
</defs>
</svg>
