<svg width="18" height="19" viewBox="0 0 18 19" fill="none" xmlns="http://www.w3.org/2000/svg">
<g clip-path="url(#clip0_698_994)">
<path d="M2.25 13.25C2.66475 13.25 3 12.9147 3 12.5C3 12.0852 3.336 11.75 3.75 11.75H8.25V12.5C8.25 12.9147 8.58525 13.25 9 13.25C9.41475 13.25 9.75 12.9147 9.75 12.5V11.75H14.25C14.664 11.75 15 12.086 15 12.5C15 12.914 15.3352 13.25 15.75 13.25C16.1647 13.25 16.5 12.9147 16.5 12.5C16.5 11.2595 15.4905 10.25 14.25 10.25H9.75V9.42422C10.56 9.25922 11.2762 8.83171 11.805 8.23547L12.522 8.64947C12.6397 8.71772 12.7688 8.74996 12.8962 8.74996C13.1557 8.74996 13.4078 8.61572 13.5465 8.37496C13.7535 8.01572 13.6305 7.55746 13.272 7.35046L12.5573 6.93796C12.6825 6.56446 12.75 6.16546 12.75 5.75071C12.75 5.33597 12.6818 4.93621 12.5573 4.56347L13.272 4.15096C13.6312 3.94396 13.7543 3.48496 13.5465 3.12646C13.3387 2.76721 12.879 2.64421 12.522 2.85196L11.805 3.26596C11.2755 2.66971 10.56 2.24221 9.75 2.07721V1.25146C9.75 0.837465 9.41475 0.501465 9 0.501465C8.58525 0.501465 8.25 0.837465 8.25 1.25146V2.07721C7.44 2.24221 6.72375 2.66971 6.195 3.26596L5.478 2.85196C5.11875 2.64421 4.6605 2.76721 4.4535 3.12646C4.2465 3.48571 4.3695 3.94396 4.728 4.15096L5.44275 4.56347C5.3175 4.93696 5.25 5.33597 5.25 5.75071C5.25 6.16546 5.31825 6.56521 5.44275 6.93796L4.728 7.35046C4.36875 7.55746 4.24575 8.01647 4.4535 8.37496C4.593 8.61572 4.84425 8.74996 5.10375 8.74996C5.23125 8.74996 5.36025 8.71772 5.478 8.64947L6.195 8.23547C6.7245 8.83171 7.44 9.25922 8.25 9.42422V10.25H3.75C2.5095 10.25 1.5 11.2595 1.5 12.5C1.5 12.9147 1.83525 13.25 2.25 13.25ZM7.875 5.74996C7.875 5.12971 8.37975 4.62496 9 4.62496C9.62025 4.62496 10.125 5.12971 10.125 5.74996C10.125 6.37021 9.62025 6.87496 9 6.87496C8.37975 6.87496 7.875 6.37021 7.875 5.74996ZM9.75 14H8.25C7.42275 14 6.75 14.6727 6.75 15.5V17C6.75 17.8272 7.42275 18.5 8.25 18.5H9.75C10.5773 18.5 11.25 17.8272 11.25 17V15.5C11.25 14.6727 10.5773 14 9.75 14ZM16.5 14H15C14.1727 14 13.5 14.6727 13.5 15.5V17C13.5 17.8272 14.1727 18.5 15 18.5H16.5C17.3272 18.5 18 17.8272 18 17V15.5C18 14.6727 17.3272 14 16.5 14ZM3 14H1.5C0.67275 14 0 14.6727 0 15.5V17C0 17.8272 0.67275 18.5 1.5 18.5H3C3.82725 18.5 4.5 17.8272 4.5 17V15.5C4.5 14.6727 3.82725 14 3 14Z" fill="#ACACAC"/>
</g>
<defs>
<clipPath id="clip0_698_994">
<rect width="18" height="18" fill="white" transform="translate(0 0.5)"/>
</clipPath>
</defs>
</svg>
