<svg width="18" height="19" viewBox="0 0 18 19" fill="none" xmlns="http://www.w3.org/2000/svg">
<g clip-path="url(#clip0_698_1010)">
<path d="M15.75 8.75H12C10.7595 8.75 9.75 9.7595 9.75 11V16.25C9.75 17.4905 10.7595 18.5 12 18.5H15.75C16.9905 18.5 18 17.4905 18 16.25V11C18 9.7595 16.9905 8.75 15.75 8.75ZM15 15.5H12.75C12.3353 15.5 12 15.164 12 14.75C12 14.336 12.3353 14 12.75 14H15C15.4148 14 15.75 14.336 15.75 14.75C15.75 15.164 15.4148 15.5 15 15.5ZM15 12.4977H12.75C12.3353 12.4977 12 12.1617 12 11.7477C12 11.3337 12.3353 10.9977 12.75 10.9977H15C15.4148 10.9977 15.75 11.3337 15.75 11.7477C15.75 12.1617 15.4148 12.4977 15 12.4977ZM2.25 5C2.25 2.51825 4.26825 0.5 6.75 0.5C9.23175 0.5 11.25 2.51825 11.25 5C11.25 7.48175 9.23175 9.5 6.75 9.5C4.26825 9.5 2.25 7.48175 2.25 5ZM9.0195 18.5H0.750001C0.332251 18.5 -0.000748736 18.155 1.2644e-06 17.7372C0.00675126 14.021 3.03225 11 6.75 11C7.266 11 7.767 11.0638 8.25 11.174V16.25C8.25 17.0975 8.54325 17.8715 9.0195 18.5Z" fill="#ffffff"/>
</g>
<defs>
<clipPath id="clip0_698_1010">
<rect width="18" height="18" fill="white" transform="translate(0 0.5)"/>
</clipPath>
</defs>
</svg>
