<svg width="18" height="19" viewBox="0 0 18 19" fill="none" xmlns="http://www.w3.org/2000/svg">
<g clip-path="url(#clip0_698_1004)">
<path d="M6 9.5C3.51825 9.5 1.5 7.48175 1.5 5C1.5 2.51825 3.51825 0.5 6 0.5C8.48175 0.5 10.5 2.51825 10.5 5C10.5 7.48175 8.48175 9.5 6 9.5ZM14.4818 8.00675C12.915 7.9115 11.5328 8.88125 10.848 10.2935C10.3657 11.2887 10.4453 12.1737 10.7198 12.9672C10.7198 12.9672 10.5 13.2493 10.5 13.6243C10.5 14.3743 10.4835 14.7493 10.4835 14.7493H9.7335C9.3195 14.7493 8.9835 15.0853 8.9835 15.4993V16.2493H8.25C7.836 16.2493 7.5 16.5853 7.5 16.9993V17.7493C7.5 18.1632 7.836 18.4993 8.25 18.4993H8.832C9.2295 18.4993 9.61125 18.341 9.8925 18.0597L12.7628 15.1895C13.4738 15.4978 14.2957 15.5975 15.1575 15.3898C16.5712 15.0493 17.6873 13.8635 17.94 12.431C18.3435 10.1397 16.665 8.1395 14.4818 8.00675ZM15 12.125C14.379 12.125 13.875 11.621 13.875 11C13.875 10.379 14.379 9.875 15 9.875C15.621 9.875 16.125 10.379 16.125 11C16.125 11.621 15.621 12.125 15 12.125ZM6 17.75V17C6 15.9928 6.66525 15.1385 7.57875 14.8527C7.788 14.156 8.32725 13.601 9.01275 13.3685C9.033 13.1743 9.07425 12.9965 9.12525 12.8383C9.04875 12.4955 9.02025 12.1573 9.01575 11.8212C8.1285 11.3022 7.10025 11 6 11C2.69175 11 0 13.6918 0 17V17.75C0 18.1647 0.336 18.5 0.75 18.5H6.138C6.054 18.2645 6 18.014 6 17.75Z" fill="#ffffff"/>
</g>
<defs>
<clipPath id="clip0_698_1004">
<rect width="18" height="18" fill="white" transform="translate(0 0.5)"/>
</clipPath>
</defs>
</svg>
