<svg width="30" height="34" viewBox="0 0 30 34" fill="none" xmlns="http://www.w3.org/2000/svg">
<path d="M13.3066 1.51836C14.3142 0.778019 15.6858 0.778019 16.6933 1.51836L27.3768 9.36856C28.0212 9.84212 28.4379 10.5639 28.5258 11.3588L29.9826 24.5359C30.1199 25.7787 29.4342 26.9665 28.2892 27.469L16.1491 32.7959C15.4167 33.1172 14.5833 33.1172 13.8509 32.7959L1.71078 27.469C0.565857 26.9665 -0.119976 25.7787 0.0174148 24.5359L1.47424 11.3588C1.56212 10.5639 1.97884 9.84212 2.62331 9.36856L13.3066 1.51836Z" fill="#3BAA64"/>
<path fill-rule="evenodd" clip-rule="evenodd" d="M9.63749 10.4631C9.64741 10.4631 9.65735 10.4631 9.66732 10.4631L20.3638 10.4631C20.6524 10.4631 20.9169 10.463 21.1321 10.492C21.3691 10.5238 21.6196 10.5988 21.8256 10.8048C22.0316 11.0108 22.1066 11.2613 22.1385 11.4983C22.1674 11.7135 22.1674 11.9781 22.1673 12.2666V12.3263C22.1674 12.6148 22.1674 12.8794 22.1385 13.0946C22.1066 13.3316 22.0316 13.5821 21.8256 13.7881C21.6298 13.9839 21.3937 14.0613 21.1673 14.0959V17.6674C21.1673 18.8926 21.1673 19.863 21.0652 20.6225C20.9601 21.4041 20.7387 22.0367 20.2398 22.5356C19.7409 23.0345 19.1083 23.2559 18.3267 23.361C17.5672 23.4631 16.5968 23.4631 15.3716 23.4631H14.6297C13.4045 23.4631 12.4341 23.4631 11.6746 23.361C10.893 23.2559 10.2604 23.0345 9.76148 22.5356C9.26258 22.0367 9.04116 21.4041 8.93608 20.6225C8.83397 19.863 8.83398 18.8926 8.83399 17.6674L8.83399 14.0959C8.60757 14.0613 8.37154 13.9839 8.1757 13.7881C7.96968 13.5821 7.89472 13.3316 7.86286 13.0946C7.83392 12.8794 7.83395 12.6148 7.83399 12.3263C7.83399 12.3164 7.83399 12.3064 7.83399 12.2964C7.83399 12.2865 7.83399 12.2765 7.83399 12.2666C7.83395 11.9781 7.83392 11.7135 7.86286 11.4983C7.89472 11.2613 7.96968 11.0108 8.1757 10.8048C8.38171 10.5988 8.6322 10.5238 8.86918 10.492C9.08439 10.463 9.34895 10.4631 9.63749 10.4631ZM9.83399 14.1298V17.6298C9.83399 18.901 9.83505 19.8041 9.92716 20.4892C10.0173 21.1599 10.1865 21.5464 10.4686 21.8285C10.7507 22.1106 11.1372 22.2798 11.8079 22.3699C12.493 22.462 13.3961 22.4631 14.6673 22.4631H15.334C16.6052 22.4631 17.5083 22.462 18.1934 22.3699C18.8641 22.2798 19.2506 22.1106 19.5327 21.8285C19.8149 21.5464 19.984 21.1599 20.0742 20.4892C20.1663 19.8041 20.1673 18.901 20.1673 17.6298V14.1298H9.83399ZM8.88281 11.5119L8.88444 11.511C8.88573 11.5103 8.88794 11.5093 8.8913 11.5079C8.90582 11.5019 8.93806 11.4917 9.00243 11.4831C9.14291 11.4642 9.33892 11.4631 9.66732 11.4631H20.334C20.6624 11.4631 20.8584 11.4642 20.9989 11.4831C21.0633 11.4917 21.0955 11.5019 21.11 11.5079C21.1134 11.5093 21.1156 11.5103 21.1169 11.511L21.1185 11.5119L21.1194 11.5136C21.1201 11.5148 21.1212 11.5171 21.1226 11.5204C21.1285 11.5349 21.1387 11.5672 21.1474 11.6316C21.1663 11.772 21.1673 11.968 21.1673 12.2964C21.1673 12.6248 21.1663 12.8209 21.1474 12.9613C21.1387 13.0257 21.1285 13.0579 21.1226 13.0725C21.1212 13.0758 21.1201 13.078 21.1194 13.0793L21.1185 13.081L21.1169 13.0819C21.1156 13.0825 21.1134 13.0836 21.11 13.085C21.0955 13.091 21.0633 13.1012 20.9989 13.1098C20.8584 13.1287 20.6624 13.1298 20.334 13.1298H9.66732C9.33892 13.1298 9.14291 13.1287 9.00243 13.1098C8.93806 13.1012 8.90582 13.091 8.8913 13.085C8.88794 13.0836 8.88573 13.0825 8.88444 13.0819L8.88281 13.081L8.8819 13.0793C8.88122 13.078 8.88015 13.0758 8.87876 13.0725C8.87279 13.0579 8.86259 13.0257 8.85394 12.9613C8.83505 12.8209 8.83399 12.6248 8.83399 12.2964C8.83399 11.968 8.83505 11.772 8.85394 11.6316C8.86259 11.5672 8.87279 11.5349 8.87876 11.5204C8.88015 11.5171 8.88122 11.5148 8.8819 11.5136L8.88281 11.5119ZM8.88281 13.081C8.88255 13.0807 8.88263 13.0807 8.88281 13.081V13.081ZM13.9861 15.4631H16.0152C16.158 15.4631 16.2892 15.4631 16.3995 15.4706C16.5179 15.4787 16.6481 15.4971 16.7805 15.5519C17.0663 15.6703 17.2934 15.8974 17.4118 16.1833C17.4667 16.3156 17.4851 16.4459 17.4932 16.5643C17.5007 16.6745 17.5007 16.8058 17.5007 16.9486V16.9776C17.5007 17.1205 17.5007 17.2517 17.4932 17.3619C17.4851 17.4803 17.4667 17.6106 17.4118 17.7429C17.2934 18.0288 17.0663 18.2559 16.7805 18.3743C16.6481 18.4291 16.5179 18.4475 16.3995 18.4556C16.2892 18.4631 16.158 18.4631 16.0152 18.4631H13.9861C13.8433 18.4631 13.7121 18.4631 13.6019 18.4556C13.4834 18.4475 13.3532 18.4291 13.2209 18.3743C12.935 18.2559 12.7079 18.0288 12.5895 17.7429C12.5346 17.6106 12.5162 17.4803 12.5082 17.3619C12.5006 17.2517 12.5006 17.1205 12.5007 16.9776V16.9486C12.5006 16.8058 12.5006 16.6745 12.5082 16.5643C12.5162 16.4459 12.5346 16.3156 12.5895 16.1833C12.7079 15.8974 12.935 15.6703 13.2209 15.5519C13.3532 15.4971 13.4834 15.4787 13.6019 15.4706C13.7121 15.4631 13.8433 15.4631 13.9861 15.4631ZM13.6015 16.4766C13.5623 16.4935 13.531 16.5248 13.5142 16.564C13.5129 16.5689 13.5089 16.5878 13.5058 16.6324C13.5009 16.7044 13.5007 16.801 13.5007 16.9631C13.5007 17.1253 13.5009 17.2218 13.5058 17.2938C13.5089 17.3384 13.5129 17.3573 13.5142 17.3622C13.531 17.4015 13.5623 17.4327 13.6015 17.4496C13.6064 17.4508 13.6254 17.4549 13.6699 17.4579C13.7419 17.4628 13.8385 17.4631 14.0007 17.4631H16.0007C16.1628 17.4631 16.2594 17.4628 16.3314 17.4579C16.3759 17.4549 16.3949 17.4508 16.3998 17.4496C16.439 17.4327 16.4703 17.4015 16.4871 17.3622C16.4884 17.3573 16.4924 17.3384 16.4955 17.2938C16.5004 17.2218 16.5007 17.1253 16.5007 16.9631C16.5007 16.801 16.5004 16.7044 16.4955 16.6324C16.4924 16.5878 16.4884 16.5689 16.4871 16.564C16.4703 16.5248 16.439 16.4935 16.3998 16.4766C16.3949 16.4754 16.3759 16.4713 16.3314 16.4683C16.2594 16.4634 16.1628 16.4631 16.0007 16.4631H14.0007C13.8385 16.4631 13.7419 16.4634 13.6699 16.4683C13.6254 16.4713 13.6064 16.4754 13.6015 16.4766Z" fill="white"/>
</svg>
