<svg width="30" height="34" viewBox="0 0 30 34" fill="none" xmlns="http://www.w3.org/2000/svg">
<path d="M13.3066 1.51839C14.3142 0.778049 15.6858 0.778049 16.6933 1.51839L27.3768 9.3686C28.0212 9.84215 28.4379 10.5639 28.5258 11.3588L29.9826 24.536C30.1199 25.7787 29.4342 26.9666 28.2892 27.4691L16.1491 32.7959C15.4167 33.1173 14.5833 33.1173 13.8509 32.7959L1.71078 27.4691C0.565857 26.9666 -0.119976 25.7787 0.0174148 24.536L1.47424 11.3588C1.56212 10.5639 1.97884 9.84215 2.62331 9.3686L13.3066 1.51839Z" fill="#2673DD"/>
<g clip-path="url(#clip0_276_8019)">
<path fill-rule="evenodd" clip-rule="evenodd" d="M17.9299 10.3105L17.9743 10.3224C18.7072 10.5188 19.288 10.6744 19.7448 10.8394C20.2121 11.0082 20.5932 11.2013 20.9071 11.4954C21.3642 11.9235 21.6841 12.4776 21.8263 13.0875C21.924 13.5064 21.9007 13.933 21.8132 14.422C21.7277 14.9002 21.5721 15.481 21.3757 16.214L21.0187 17.5462C20.8224 18.2791 20.6667 18.8599 20.5017 19.3167C20.3329 19.784 20.1398 20.165 19.8458 20.479C19.4313 20.9215 18.8987 21.2355 18.3117 21.3841C18.1402 21.7773 17.8897 22.1333 17.5738 22.4292C17.2598 22.7232 16.8788 22.9163 16.4115 23.0852C15.9547 23.2502 15.3739 23.4058 14.641 23.6022L14.5967 23.614C13.8637 23.8104 13.2829 23.9661 12.8047 24.0516C12.3156 24.139 11.8891 24.1623 11.4702 24.0647C10.8603 23.9224 10.3062 23.6025 9.87806 23.1454C9.58404 22.8315 9.39093 22.4504 9.22213 21.9832C9.0571 21.5263 8.90148 20.9455 8.7051 20.2126L8.34813 18.8804C8.15174 18.1475 7.99611 17.5667 7.91061 17.0885C7.82316 16.5994 7.79986 16.1729 7.89753 15.754C8.03975 15.144 8.35964 14.59 8.81676 14.1618C9.13068 13.8678 9.51174 13.6747 9.97904 13.5059C10.4359 13.3409 11.0167 13.1853 11.7496 12.9889L11.7718 12.9829C11.9481 12.9357 12.1149 12.8911 12.2728 12.8493C12.5339 11.9166 12.7636 11.2572 13.2114 10.7792C13.6395 10.322 14.1936 10.0021 14.8036 9.85993C15.2224 9.76226 15.649 9.78556 16.1381 9.87302C16.6162 9.95852 17.197 10.1141 17.9299 10.3105ZM11.9707 13.9649C11.2421 14.1602 10.72 14.3015 10.3188 14.4464C9.9125 14.5932 9.67395 14.7291 9.50035 14.8917C9.18759 15.1846 8.96871 15.5637 8.8714 15.9811C8.81739 16.2127 8.81896 16.4873 8.895 16.9125C8.97214 17.3439 9.11635 17.8837 9.32 18.6437L9.66509 19.9316C9.86873 20.6916 10.0138 21.2313 10.1626 21.6434C10.3094 22.0497 10.4453 22.2882 10.6079 22.4618C10.9009 22.7746 11.28 22.9935 11.6973 23.0908C11.9289 23.1448 12.2035 23.1432 12.6287 23.0672C13.0601 22.9901 13.5999 22.8458 14.3599 22.6422C15.1199 22.4386 15.6596 22.2935 16.0717 22.1446C16.478 21.9979 16.7166 21.862 16.8902 21.6994C16.9819 21.6135 17.0655 21.5202 17.1404 21.4207C17.021 21.4039 16.8982 21.3824 16.7711 21.3571C16.3232 21.2681 15.7852 21.1239 15.1212 20.946L15.0829 20.9357C14.35 20.7393 13.7692 20.5837 13.3124 20.4187C12.8451 20.2499 12.464 20.0568 12.1501 19.7628C11.693 19.3346 11.3731 18.7805 11.2309 18.1706C11.1332 17.7517 11.1565 17.3252 11.2439 16.8361C11.3294 16.3579 11.4851 15.7771 11.6815 15.0442L11.9707 13.9649ZM15.962 10.8574C15.5368 10.7814 15.2623 10.7798 15.0306 10.8338C14.6133 10.9311 14.2342 11.15 13.9413 11.4628C13.6505 11.7732 13.4716 12.2527 13.1604 13.3919C13.1099 13.577 13.0564 13.7765 12.9984 13.993L12.6533 15.2809C12.4497 16.0409 12.3055 16.5807 12.2283 17.0121C12.1523 17.4373 12.1507 17.7119 12.2047 17.9435C12.302 18.3609 12.5209 18.74 12.8337 19.0329C13.0073 19.1955 13.2458 19.3314 13.6521 19.4782C14.0643 19.6271 14.6039 19.7721 15.3639 19.9757C16.0475 20.1589 16.5542 20.2944 16.9661 20.3763C17.3763 20.4579 17.6546 20.4779 17.8828 20.4497C17.9324 20.4436 17.9801 20.4352 18.0266 20.4243C18.4439 20.327 18.823 20.1081 19.1159 19.7954C19.2785 19.6218 19.4144 19.3832 19.5612 18.9769C19.7101 18.5648 19.8551 18.0252 20.0588 17.2652L20.4039 15.9773C20.6075 15.2172 20.7517 14.6774 20.8288 14.246C20.9049 13.8208 20.9065 13.5462 20.8524 13.3146C20.7551 12.8973 20.5363 12.5182 20.2235 12.2252C20.0499 12.0626 19.8113 11.9267 19.4051 11.78C18.9929 11.6311 18.4533 11.486 17.6933 11.2824C16.9333 11.0788 16.3934 10.9345 15.962 10.8574ZM14.3689 15.5003C14.4404 15.2336 14.7146 15.0753 14.9813 15.1468L18.201 16.0095C18.4678 16.081 18.6261 16.3551 18.5546 16.6219C18.4831 16.8886 18.209 17.0469 17.9422 16.9754L14.7225 16.1127C14.4557 16.0412 14.2974 15.767 14.3689 15.5003ZM13.851 17.4321C13.9225 17.1654 14.1967 17.0071 14.4634 17.0786L16.3952 17.5962C16.662 17.6677 16.8203 17.9418 16.7488 18.2086C16.6773 18.4753 16.4032 18.6336 16.1364 18.5621L14.2046 18.0445C13.9378 17.973 13.7795 17.6988 13.851 17.4321Z" fill="white"/>
</g>
<defs>
<clipPath id="clip0_276_8019">
<rect x="7" y="8.96313" width="16" height="16" rx="5" fill="white"/>
</clipPath>
</defs>
</svg>
