<svg width="306" height="130" viewBox="0 0 306 130" fill="none" xmlns="http://www.w3.org/2000/svg">
<mask id="mask0_276_8944" style="mask-type:alpha" maskUnits="userSpaceOnUse" x="0" y="0" width="306" height="130">
<path d="M0 0H306V124C306 127.314 303.314 130 300 130H6C2.68629 130 0 127.314 0 124V0Z" fill="white"/>
</mask>
<g mask="url(#mask0_276_8944)">
<path opacity="0.2" d="M61.7868 91.3075C36.1894 126.448 12.0631 130.353 0 132.012V158.953H305.992V6.97017C306.286 6.4821 298.872 16.2238 266.86 59.0953C226.846 112.685 185.949 93.3573 164.765 64.9521C147.818 42.2278 130.635 35.9611 124.162 35.6683C108.862 34.497 87.3842 56.1669 61.7868 91.3075Z" fill="url(#paint0_linear_276_8944)"/>
<path opacity="0.2" d="M63.7255 136.308C38.8226 138.896 10.8656 117.976 0 107.193V158.953H306V87.1943C286.912 64.8432 251.965 34.5516 222.012 33.9634C192.058 33.3752 168.858 57.785 142.134 87.1943C115.411 116.604 94.8541 133.073 63.7255 136.308Z" fill="url(#paint1_linear_276_8944)"/>
</g>
<defs>
<linearGradient id="paint0_linear_276_8944" x1="153" y1="6.953" x2="153" y2="158.953" gradientUnits="userSpaceOnUse">
<stop stop-color="#17B26A"/>
<stop offset="1" stop-color="#17B26A" stop-opacity="0.37"/>
</linearGradient>
<linearGradient id="paint1_linear_276_8944" x1="153" y1="33.953" x2="153" y2="158.953" gradientUnits="userSpaceOnUse">
<stop stop-color="#17B26A"/>
<stop offset="1" stop-color="#17B26A" stop-opacity="0.37"/>
</linearGradient>
</defs>
</svg>
