<svg width="50" height="50" viewBox="0 0 50 50" fill="none" xmlns="http://www.w3.org/2000/svg">
<circle cx="25" cy="25" r="25" fill="#ECFDF3"/>
<circle cx="25" cy="25" r="20" fill="#DCFAE6"/>
<path d="M25 30V30.5V31" stroke="#079455" stroke-width="1.5" stroke-linecap="round"/>
<path d="M25 19V19.5V20" stroke="#079455" stroke-width="1.5" stroke-linecap="round"/>
<path d="M28 22.5C28 21.1193 26.6569 20 25 20C23.3431 20 22 21.1193 22 22.5C22 23.8807 23.3431 25 25 25C26.6569 25 28 26.1193 28 27.5C28 28.8807 26.6569 30 25 30C23.3431 30 22 28.8807 22 27.5" stroke="#079455" stroke-width="1.5" stroke-linecap="round"/>
<path d="M20 16.3378C21.4709 15.487 23.1786 15 25 15C30.5228 15 35 19.4772 35 25C35 30.5228 30.5228 35 25 35C19.4772 35 15 30.5228 15 25C15 23.1786 15.487 21.4709 16.3378 20" stroke="#079455" stroke-width="1.5" stroke-linecap="round"/>
</svg>
