<svg width="31" height="34" viewBox="0 0 31 34" fill="none" xmlns="http://www.w3.org/2000/svg">
<path d="M13.8066 1.51836C14.8142 0.778019 16.1858 0.778019 17.1933 1.51836L27.8768 9.36856C28.5212 9.84212 28.9379 10.5639 29.0258 11.3588L30.4826 24.5359C30.6199 25.7787 29.9342 26.9665 28.7892 27.469L16.6491 32.7959C15.9167 33.1172 15.0833 33.1172 14.3509 32.7959L2.21078 27.469C1.06586 26.9665 0.380024 25.7787 0.517415 24.5359L1.97424 11.3588C2.06212 10.5639 2.47884 9.84212 3.12331 9.36856L13.8066 1.51836Z" fill="#FD5151"/>
<g clip-path="url(#clip0_276_8042)">
<path fill-rule="evenodd" clip-rule="evenodd" d="M18.1673 13.463C17.7071 13.463 17.334 13.8361 17.334 14.2964C17.334 14.7566 17.7071 15.1297 18.1673 15.1297C18.6276 15.1297 19.0007 14.7566 19.0007 14.2964C19.0007 13.8361 18.6276 13.463 18.1673 13.463ZM16.334 14.2964C16.334 13.2838 17.1548 12.463 18.1673 12.463C19.1798 12.463 20.0007 13.2838 20.0007 14.2964C20.0007 15.3089 19.1798 16.1297 18.1673 16.1297C17.1548 16.1297 16.334 15.3089 16.334 14.2964Z" fill="white"/>
<path fill-rule="evenodd" clip-rule="evenodd" d="M15.4624 9.79636H15.5389C17.0778 9.79635 18.2839 9.79634 19.2248 9.92285C20.188 10.0523 20.948 10.3226 21.5446 10.9191C22.1411 11.5157 22.4113 12.2757 22.5408 13.2388C22.6673 14.1798 22.6673 15.3858 22.6673 16.9248V17.0013C22.6673 18.5402 22.6673 19.7462 22.5408 20.6872C22.4113 21.6504 22.1411 22.4104 21.5446 23.0069C20.948 23.6035 20.188 23.8737 19.2248 24.0032C18.2839 24.1297 17.0778 24.1297 15.5389 24.1297H15.4624C13.9235 24.1297 12.7174 24.1297 11.7765 24.0032C10.8133 23.8737 10.0533 23.6035 9.45674 23.0069C8.8602 22.4104 8.58998 21.6504 8.46048 20.6872C8.33397 19.7462 8.33398 18.5402 8.33398 17.0013V16.9248C8.33398 15.3858 8.33397 14.1798 8.46048 13.2388C8.58998 12.2757 8.8602 11.5157 9.45674 10.9191C10.0533 10.3226 10.8133 10.0523 11.7765 9.92285C12.7174 9.79634 13.9235 9.79635 15.4624 9.79636ZM10.1638 22.2998C9.78408 21.9201 9.56615 21.4062 9.45156 20.554C9.34925 19.7929 9.33596 18.822 9.33424 17.5231L10.331 16.651C10.7404 16.2928 11.3574 16.3133 11.7421 16.698L14.6019 19.5578C15.2319 20.1878 16.2235 20.2736 16.9524 19.7614L17.1512 19.6217C17.7233 19.2196 18.4974 19.2662 19.0171 19.734L21.1662 21.6681C21.1896 21.6891 21.2144 21.7076 21.2403 21.7234C21.1325 21.9507 20.9998 22.1375 20.8375 22.2998C20.4577 22.6796 19.9439 22.8975 19.0916 23.0121C18.2249 23.1286 17.0861 23.1297 15.5007 23.1297C13.9152 23.1297 12.7764 23.1286 11.9097 23.0121C11.0574 22.8975 10.5436 22.6796 10.1638 22.2998ZM11.9097 10.9139C11.0574 11.0285 10.5436 11.2464 10.1638 11.6262C9.78408 12.006 9.56615 12.5198 9.45156 13.3721C9.35481 14.0917 9.33767 14.9991 9.33463 16.194L9.67246 15.8984C10.4781 15.1935 11.6923 15.2339 12.4492 15.9909L15.309 18.8507C15.5954 19.137 16.0461 19.1761 16.3774 18.9432L16.5762 18.8035C17.5298 18.1334 18.8198 18.211 19.6861 18.9907L21.5354 20.6551C21.5404 20.6219 21.5451 20.5882 21.5497 20.554C21.6663 19.6873 21.6673 18.5485 21.6673 16.963C21.6673 15.3775 21.6663 14.2387 21.5497 13.3721C21.4352 12.5198 21.2172 12.006 20.8375 11.6262C20.4577 11.2464 19.9439 11.0285 19.0916 10.9139C18.2249 10.7974 17.0861 10.7964 15.5007 10.7964C13.9152 10.7964 12.7764 10.7974 11.9097 10.9139Z" fill="white"/>
</g>
<defs>
<clipPath id="clip0_276_8042">
<rect width="16" height="16" fill="white" transform="translate(7.5 8.9631)"/>
</clipPath>
</defs>
</svg>
