<svg width="59" height="64" viewBox="0 0 59 64" fill="none" xmlns="http://www.w3.org/2000/svg">
<path d="M26.1697 1.17049C28.1512 -0.28551 30.8488 -0.28551 32.8302 1.17049L53.841 16.6092C55.1084 17.5406 55.9279 18.9601 56.1007 20.5234L58.9658 46.4384C59.2358 48.8825 57.8872 51.2185 55.6355 52.2068L31.7598 62.683C30.3195 63.3149 28.6804 63.3149 27.2401 62.683L3.36454 52.2068C1.11285 51.2185 -0.235952 48.8825 0.0342491 46.4384L2.89934 20.5234C3.07216 18.9601 3.89172 17.5406 5.15917 16.6092L26.1697 1.17049Z" fill="#FDB751"/>
<circle cx="29" cy="33.2451" r="10.5" stroke="white" stroke-width="2"/>
<path d="M31.4751 35.72L29.0003 33.2452M29.0003 33.2452L26.5254 30.7703M29.0003 33.2452L31.4752 30.7703M29.0003 33.2452L26.5254 35.72" stroke="white" stroke-width="2" stroke-linecap="round"/>
<path d="M19.0835 23.3285L23.7502 20.4119" stroke="white" stroke-width="2" stroke-linecap="round" stroke-linejoin="round"/>
<path d="M38.9167 23.3285L34.25 20.4119" stroke="white" stroke-width="2" stroke-linecap="round" stroke-linejoin="round"/>
</svg>
