<svg width="59" height="64" viewBox="0 0 59 64" fill="none" xmlns="http://www.w3.org/2000/svg">
<path d="M26.1697 1.17049C28.1512 -0.28551 30.8488 -0.28551 32.8302 1.17049L53.841 16.6092C55.1084 17.5406 55.9279 18.9601 56.1007 20.5234L58.9658 46.4384C59.2358 48.8825 57.8872 51.2185 55.6355 52.2068L31.7598 62.683C30.3195 63.3149 28.6804 63.3149 27.2401 62.683L3.36454 52.2068C1.11285 51.2185 -0.235952 48.8825 0.0342491 46.4384L2.89934 20.5234C3.07216 18.9601 3.89172 17.5406 5.15917 16.6092L26.1697 1.17049Z" fill="#F04438"/>
<path d="M40.6668 32.0785C40.6668 38.5219 35.4435 43.7452 29.0002 43.7452C22.5568 43.7452 17.3335 38.5219 17.3335 32.0785C17.3335 25.6352 22.5568 20.4119 29.0002 20.4119C35.4435 20.4119 40.6668 25.6352 40.6668 32.0785Z" stroke="white" stroke-width="2" stroke-linecap="round" stroke-dasharray="0.5 3.5"/>
<path d="M40.6665 32.0785C40.6665 25.6352 35.4432 20.4119 28.9998 20.4119" stroke="white" stroke-width="2" stroke-linecap="round"/>
<path d="M29 28.5785V33.2452H33.6667" stroke="white" stroke-width="2" stroke-linecap="round" stroke-linejoin="round"/>
</svg>
