<svg width="59" height="64" viewBox="0 0 59 64" fill="none" xmlns="http://www.w3.org/2000/svg">
<path d="M26.1697 1.092C28.1512 -0.364001 30.8488 -0.364001 32.8302 1.092L53.841 16.5307C55.1084 17.4621 55.9279 18.8816 56.1007 20.4449L58.9658 46.3599C59.2358 48.804 57.8872 51.1401 55.6355 52.1283L31.7598 62.6045C30.3195 63.2364 28.6804 63.2364 27.2401 62.6045L3.36454 52.1283C1.11285 51.1401 -0.235952 48.804 0.0342491 46.3599L2.89934 20.4449C3.07216 18.8816 3.89172 17.4621 5.15917 16.5307L26.1697 1.092Z" fill="#2673DD"/>
<path fill-rule="evenodd" clip-rule="evenodd" d="M29.9327 19.4584H30.0666C32.7597 19.4584 34.8703 19.4583 36.517 19.6797C38.2025 19.9064 39.5326 20.3793 40.5765 21.4232C41.6205 22.4671 42.0934 23.7972 42.32 25.4827C42.5414 27.1294 42.5414 29.24 42.5413 31.9331V32.067C42.5414 34.7601 42.5414 36.8706 42.32 38.5174C42.0934 40.2029 41.6205 41.5329 40.5765 42.5769C39.5326 43.6208 38.2025 44.0937 36.517 44.3203C34.8703 44.5417 32.7597 44.5417 30.0666 44.5417H29.9327C27.2396 44.5417 25.1291 44.5417 23.4823 44.3203C21.7968 44.0937 20.4668 43.6208 19.4228 42.5769C18.3789 41.5329 17.906 40.2029 17.6794 38.5174C17.458 36.8706 17.458 34.7601 17.458 32.067V31.9331C17.458 29.24 17.458 27.1294 17.6794 25.4827C17.906 23.7972 18.3789 22.4671 19.4228 21.4232C20.4668 20.3793 21.7968 19.9064 23.4823 19.6797C25.1291 19.4583 27.2396 19.4584 29.9327 19.4584ZM23.7155 21.4141C22.224 21.6147 21.3249 21.996 20.6603 22.6606C19.9957 23.3252 19.6143 24.2244 19.4138 25.7159C19.2099 27.2325 19.208 29.2254 19.208 32C19.208 34.7746 19.2099 36.7676 19.4138 38.2842C19.6143 39.7757 19.9957 40.6748 20.6603 41.3394C21.3249 42.004 22.224 42.3854 23.7155 42.5859C25.2322 42.7898 27.2251 42.7917 29.9997 42.7917C32.7743 42.7917 34.7672 42.7898 36.2838 42.5859C37.7753 42.3854 38.6745 42.004 39.3391 41.3394C40.0037 40.6748 40.3851 39.7757 40.5856 38.2842C40.7895 36.7676 40.7913 34.7746 40.7913 32C40.7913 29.2254 40.7895 27.2325 40.5856 25.7159C40.3851 24.2244 40.0037 23.3252 39.3391 22.6606C38.6745 21.996 37.7753 21.6147 36.2838 21.4141C34.7672 21.2102 32.7743 21.2084 29.9997 21.2084C27.2251 21.2084 25.2322 21.2102 23.7155 21.4141ZM28.2698 25.5331C28.6197 25.8664 28.6332 26.4202 28.3 26.7702L24.9666 30.2702C24.8015 30.4436 24.5725 30.5417 24.333 30.5417C24.0935 30.5417 23.8645 30.4436 23.6994 30.2702L22.3661 28.8702C22.0328 28.5202 22.0463 27.9664 22.3962 27.6331C22.7462 27.2998 23.3 27.3133 23.6333 27.6633L24.333 28.398L27.0327 25.5633C27.366 25.2133 27.9199 25.1998 28.2698 25.5331ZM30.2913 28.5C30.2913 28.0168 30.6831 27.625 31.1663 27.625H36.9997C37.4829 27.625 37.8747 28.0168 37.8747 28.5C37.8747 28.9833 37.4829 29.375 36.9997 29.375H31.1663C30.6831 29.375 30.2913 28.9833 30.2913 28.5ZM28.2698 33.6998C28.6197 34.033 28.6332 34.5869 28.3 34.9368L24.9666 38.4368C24.8015 38.6102 24.5725 38.7084 24.333 38.7084C24.0935 38.7084 23.8645 38.6102 23.6994 38.4368L22.3661 37.0368C22.0328 36.6869 22.0463 36.133 22.3962 35.7998C22.7462 35.4665 23.3 35.48 23.6333 35.8299L24.333 36.5646L27.0327 33.7299C27.366 33.38 27.9199 33.3665 28.2698 33.6998ZM30.2913 36.6667C30.2913 36.1835 30.6831 35.7917 31.1663 35.7917H36.9997C37.4829 35.7917 37.8747 36.1835 37.8747 36.6667C37.8747 37.15 37.4829 37.5417 36.9997 37.5417H31.1663C30.6831 37.5417 30.2913 37.15 30.2913 36.6667Z" fill="white"/>
</svg>
