<svg width="59" height="64" viewBox="0 0 59 64" fill="none" xmlns="http://www.w3.org/2000/svg">
<path d="M26.1697 1.092C28.1512 -0.364001 30.8488 -0.364001 32.8302 1.092L53.841 16.5307C55.1084 17.4621 55.9279 18.8816 56.1007 20.4449L58.9658 46.3599C59.2358 48.804 57.8872 51.1401 55.6355 52.1283L31.7598 62.6045C30.3195 63.2364 28.6804 63.2364 27.2401 62.6045L3.36454 52.1283C1.11285 51.1401 -0.235952 48.804 0.0342491 46.3599L2.89934 20.4449C3.07216 18.8816 3.89172 17.4621 5.15917 16.5307L26.1697 1.092Z" fill="#079455"/>
<path d="M26.4113 22.5392C27.0692 21.9786 27.3981 21.6983 27.742 21.5339C28.5374 21.1537 29.4621 21.1537 30.2575 21.5339C30.6015 21.6983 30.9304 21.9786 31.5882 22.5392C31.8501 22.7623 31.981 22.8739 32.1208 22.9676C32.4413 23.1824 32.8012 23.3315 33.1797 23.4063C33.3449 23.4389 33.5163 23.4525 33.8592 23.4799C34.7208 23.5487 35.1516 23.583 35.511 23.71C36.3423 24.0036 36.9962 24.6575 37.2898 25.4888C37.4167 25.8482 37.4511 26.279 37.5199 27.1405C37.5472 27.4835 37.5609 27.6549 37.5935 27.82C37.6683 28.1986 37.8173 28.5585 38.0322 28.879C38.1259 29.0188 38.2374 29.1497 38.4606 29.4116C39.0212 30.0694 39.3015 30.3983 39.4659 30.7422C39.8461 31.5377 39.8461 32.4624 39.4659 33.2578C39.3015 33.6017 39.0212 33.9306 38.4606 34.5885C38.2374 34.8503 38.1259 34.9812 38.0322 35.121C37.8173 35.4415 37.6683 35.8015 37.5935 36.18C37.5609 36.3451 37.5472 36.5166 37.5199 36.8595C37.4511 37.7211 37.4167 38.1519 37.2898 38.5113C36.9962 39.3426 36.3423 39.9964 35.511 40.29C35.1516 40.417 34.7208 40.4514 33.8592 40.5201C33.5163 40.5475 33.3449 40.5612 33.1797 40.5938C32.8012 40.6685 32.4413 40.8176 32.1208 41.0324C31.981 41.1261 31.8501 41.2377 31.5882 41.4608C30.9304 42.0214 30.6015 42.3017 30.2575 42.4661C29.4621 42.8463 28.5374 42.8463 27.742 42.4661C27.3981 42.3017 27.0692 42.0214 26.4113 41.4608C26.1495 41.2377 26.0186 41.1261 25.8788 41.0324C25.5583 40.8176 25.1983 40.6685 24.8198 40.5938C24.6547 40.5612 24.4832 40.5475 24.1403 40.5201C23.2787 40.4514 22.8479 40.417 22.4885 40.29C21.6572 39.9964 21.0034 39.3426 20.7097 38.5113C20.5828 38.1519 20.5484 37.7211 20.4797 36.8595C20.4523 36.5166 20.4386 36.3451 20.406 36.18C20.3313 35.8015 20.1822 35.4415 19.9674 35.121C19.8737 34.9812 19.7621 34.8503 19.539 34.5885C18.9784 33.9306 18.6981 33.6017 18.5337 33.2578C18.1535 32.4624 18.1535 31.5377 18.5337 30.7422C18.6981 30.3983 18.9784 30.0694 19.539 29.4116C19.7621 29.1497 19.8737 29.0188 19.9674 28.879C20.1822 28.5585 20.3313 28.1986 20.406 27.82C20.4386 27.6549 20.4523 27.4835 20.4797 27.1405C20.5484 26.279 20.5828 25.8482 20.7097 25.4888C21.0034 24.6575 21.6572 24.0036 22.4885 23.71C22.8479 23.583 23.2787 23.5487 24.1403 23.4799C24.4832 23.4525 24.6547 23.4389 24.8198 23.4063C25.1983 23.3315 25.5583 23.1824 25.8788 22.9676C26.0186 22.8739 26.1495 22.7623 26.4113 22.5392Z" stroke="white" stroke-width="2"/>
<path d="M24.9165 32.5834L27.2498 34.9167L33.0832 29.0834" stroke="white" stroke-width="2" stroke-linecap="round" stroke-linejoin="round"/>
</svg>
