<svg width="31" height="34" viewBox="0 0 31 34" fill="none" xmlns="http://www.w3.org/2000/svg">
<path d="M13.8066 1.51839C14.8142 0.778049 16.1858 0.778049 17.1933 1.51839L27.8768 9.3686C28.5212 9.84215 28.9379 10.5639 29.0258 11.3588L30.4826 24.536C30.6199 25.7787 29.9342 26.9666 28.7892 27.4691L16.6491 32.7959C15.9167 33.1173 15.0833 33.1173 14.3509 32.7959L2.21078 27.4691C1.06586 26.9666 0.380024 25.7787 0.517415 24.536L1.97424 11.3588C2.06212 10.5639 2.47884 9.84215 3.12331 9.3686L13.8066 1.51839Z" fill="#FDB751"/>
<g clip-path="url(#clip0_276_8027)">
<path fill-rule="evenodd" clip-rule="evenodd" d="M15.5007 10.7964C12.0949 10.7964 9.33398 13.5573 9.33398 16.9631C9.33398 20.3688 12.0949 23.1297 15.5007 23.1297C18.9064 23.1297 21.6673 20.3688 21.6673 16.9631C21.6673 13.5573 18.9064 10.7964 15.5007 10.7964ZM8.33398 16.9631C8.33398 13.005 11.5426 9.79639 15.5007 9.79639C19.4587 9.79639 22.6673 13.005 22.6673 16.9631C22.6673 20.9211 19.4587 24.1297 15.5007 24.1297C11.5426 24.1297 8.33398 20.9211 8.33398 16.9631ZM15.8825 14.3565C15.8955 14.3645 15.9086 14.3724 15.9217 14.3804C16.1132 14.4968 16.3021 14.6179 16.4721 14.7372C16.6655 14.873 16.8718 15.033 17.0751 15.1988C17.0854 15.2072 17.0956 15.2156 17.1058 15.2239C17.4377 15.4946 17.7361 15.738 17.9446 15.9807C18.1809 16.2559 18.334 16.5653 18.334 16.9631C18.334 17.3608 18.1809 17.6702 17.9446 17.9455C17.7361 18.1882 17.4378 18.4316 17.1058 18.7023L17.0751 18.7273C16.8718 18.8932 16.6655 19.0531 16.4721 19.189C16.3021 19.3083 16.1132 19.4294 15.9217 19.5458C15.9086 19.5537 15.8955 19.5617 15.8825 19.5696C15.5592 19.7663 15.2539 19.9521 14.9866 20.0481C14.838 20.1015 14.6676 20.1407 14.4842 20.127C14.2916 20.1127 14.1191 20.0427 13.9688 19.9299C13.6627 19.7001 13.5398 19.3675 13.4757 19.0367C13.4146 18.7215 13.3911 18.3155 13.3637 17.8411L13.3617 17.8067C13.3449 17.516 13.334 17.2263 13.334 16.9631C13.334 16.6998 13.3449 16.4102 13.3617 16.1194L13.3637 16.085C13.3911 15.6106 13.4146 15.2047 13.4757 14.8895C13.5398 14.5587 13.6627 14.226 13.9688 13.9963C14.1191 13.8834 14.2916 13.8135 14.4842 13.7991C14.6676 13.7855 14.838 13.8247 14.9866 13.878C15.2539 13.974 15.5592 14.1599 15.8825 14.3565ZM14.5676 14.7972C14.5512 14.8097 14.5011 14.8541 14.4574 15.0797C14.4107 15.3209 14.3901 15.6587 14.3601 16.1772C14.3439 16.4564 14.334 16.7255 14.334 16.9631C14.334 17.2007 14.3439 17.4698 14.3601 17.749C14.3901 18.2674 14.4107 18.6052 14.4574 18.8464C14.5011 19.0721 14.5512 19.1164 14.5676 19.129C14.5801 19.1274 14.6057 19.1224 14.6485 19.107C14.8081 19.0497 15.025 18.9207 15.4022 18.6913C15.5816 18.5822 15.751 18.4734 15.8974 18.3706C16.0645 18.2533 16.2507 18.1093 16.443 17.9524C16.8154 17.6486 17.0425 17.4611 17.1859 17.294C17.3079 17.152 17.334 17.0652 17.334 16.9631C17.334 16.8609 17.3079 16.7742 17.1859 16.6322C17.0425 16.4651 16.8154 16.2775 16.443 15.9737C16.2507 15.8168 16.0645 15.6729 15.8974 15.5556C15.751 15.4527 15.5816 15.344 15.4022 15.2348C15.025 15.0055 14.8081 14.8765 14.6485 14.8192C14.6057 14.8038 14.5801 14.7988 14.5676 14.7972Z" fill="white"/>
</g>
<defs>
<clipPath id="clip0_276_8027">
<rect width="16" height="16" fill="white" transform="translate(7.5 8.96313)"/>
</clipPath>
</defs>
</svg>
